<?xml version="1.0" encoding="UTF-8" standalone="no"?>
<!DOCTYPE svg PUBLIC "-//W3C//DTD SVG 1.1//EN"
 "http://www.w3.org/Graphics/SVG/1.1/DTD/svg11.dtd">
<!-- Generated by graphviz version 2.26.3 (20100126.1600)
 -->
<!-- Title: controllers_diagram Pages: 1 -->
<svg width="1024pt" height="342pt"
 viewBox="0.00 0.00 1024.00 342.00" xmlns="http://www.w3.org/2000/svg" xmlns:xlink="http://www.w3.org/1999/xlink">
<g id="graph1" class="graph" transform="scale(1 1) rotate(0) translate(4 338)">
<title>controllers_diagram</title>
<polygon fill="white" stroke="white" points="-4,5 -4,-338 1021,-338 1021,5 -4,5"/>
<!-- GuestsController -->
<g id="node1" class="node"><title>GuestsController</title>
<polyline fill="none" stroke="black" points="12,-86 122,-86 "/>
<path fill="none" stroke="black" d="M122,-86C128,-86 134,-92 134,-98"/>
<polyline fill="none" stroke="black" points="134,-98 134,-236 "/>
<path fill="none" stroke="black" d="M134,-236C134,-242 128,-248 122,-248"/>
<polyline fill="none" stroke="black" points="122,-248 12,-248 "/>
<path fill="none" stroke="black" d="M12,-248C6,-248 0,-242 0,-236"/>
<polyline fill="none" stroke="black" points="0,-236 0,-98 "/>
<path fill="none" stroke="black" d="M0,-98C0,-92 6,-86 12,-86"/>
<text text-anchor="middle" x="67" y="-231.4" font-family="Times Roman,serif" font-size="14.00">GuestsController</text>
<polyline fill="none" stroke="black" points="0,-221 134,-221 "/>
<text text-anchor="start" x="8" y="-204.4" font-family="Times Roman,serif" font-size="14.00">_callback_before_41</text>
<text text-anchor="start" x="8" y="-185.4" font-family="Times Roman,serif" font-size="14.00">_callback_before_42</text>
<text text-anchor="start" x="8" y="-166.4" font-family="Times Roman,serif" font-size="14.00">index</text>
<text text-anchor="start" x="8" y="-147.4" font-family="Times Roman,serif" font-size="14.00">update</text>
<polyline fill="none" stroke="black" points="0,-137 134,-137 "/>
<polyline fill="none" stroke="black" points="0,-113 134,-113 "/>
<text text-anchor="start" x="8" y="-96.4" font-family="Times Roman,serif" font-size="14.00">_layout</text>
</g>
<!-- ProfilesController -->
<g id="node2" class="node"><title>ProfilesController</title>
<polyline fill="none" stroke="black" points="164,-57.5 274,-57.5 "/>
<path fill="none" stroke="black" d="M274,-57.5C280,-57.5 286,-63.5 286,-69.5"/>
<polyline fill="none" stroke="black" points="286,-69.5 286,-264.5 "/>
<path fill="none" stroke="black" d="M286,-264.5C286,-270.5 280,-276.5 274,-276.5"/>
<polyline fill="none" stroke="black" points="274,-276.5 164,-276.5 "/>
<path fill="none" stroke="black" d="M164,-276.5C158,-276.5 152,-270.5 152,-264.5"/>
<polyline fill="none" stroke="black" points="152,-264.5 152,-69.5 "/>
<path fill="none" stroke="black" d="M152,-69.5C152,-63.5 158,-57.5 164,-57.5"/>
<text text-anchor="middle" x="219" y="-259.9" font-family="Times Roman,serif" font-size="14.00">ProfilesController</text>
<polyline fill="none" stroke="black" points="152,-249.5 286,-249.5 "/>
<text text-anchor="start" x="160" y="-232.9" font-family="Times Roman,serif" font-size="14.00">_callback_before_43</text>
<text text-anchor="start" x="160" y="-213.9" font-family="Times Roman,serif" font-size="14.00">comment</text>
<text text-anchor="start" x="160" y="-194.9" font-family="Times Roman,serif" font-size="14.00">edit</text>
<text text-anchor="start" x="160" y="-175.9" font-family="Times Roman,serif" font-size="14.00">erase_avatar</text>
<text text-anchor="start" x="160" y="-156.9" font-family="Times Roman,serif" font-size="14.00">show</text>
<text text-anchor="start" x="160" y="-137.9" font-family="Times Roman,serif" font-size="14.00">update</text>
<polyline fill="none" stroke="black" points="152,-127.5 286,-127.5 "/>
<polyline fill="none" stroke="black" points="152,-103.5 286,-103.5 "/>
<text text-anchor="start" x="160" y="-86.9" font-family="Times Roman,serif" font-size="14.00">_layout</text>
<text text-anchor="start" x="160" y="-67.9" font-family="Times Roman,serif" font-size="14.00">profile_params</text>
</g>
<!-- ApplicationController -->
<g id="node3" class="node"><title>ApplicationController</title>
<polyline fill="none" stroke="black" points="316,-97 450,-97 "/>
<path fill="none" stroke="black" d="M450,-97C456,-97 462,-103 462,-109"/>
<polyline fill="none" stroke="black" points="462,-109 462,-225 "/>
<path fill="none" stroke="black" d="M462,-225C462,-231 456,-237 450,-237"/>
<polyline fill="none" stroke="black" points="450,-237 316,-237 "/>
<path fill="none" stroke="black" d="M316,-237C310,-237 304,-231 304,-225"/>
<polyline fill="none" stroke="black" points="304,-225 304,-109 "/>
<path fill="none" stroke="black" d="M304,-109C304,-103 310,-97 316,-97"/>
<text text-anchor="middle" x="383" y="-220.4" font-family="Times Roman,serif" font-size="14.00">ApplicationController</text>
<polyline fill="none" stroke="black" points="304,-210 462,-210 "/>
<polyline fill="none" stroke="black" points="304,-186 462,-186 "/>
<polyline fill="none" stroke="black" points="304,-162 462,-162 "/>
<text text-anchor="start" x="312" y="-145.4" font-family="Times Roman,serif" font-size="14.00">_layout</text>
<text text-anchor="start" x="312" y="-126.4" font-family="Times Roman,serif" font-size="14.00">set_padding_top</text>
<text text-anchor="start" x="312" y="-107.4" font-family="Times Roman,serif" font-size="14.00">update_sanitized_params</text>
</g>
<!-- PartiesController -->
<g id="node4" class="node"><title>PartiesController</title>
<polyline fill="none" stroke="black" points="492,-0.5 612,-0.5 "/>
<path fill="none" stroke="black" d="M612,-0.5C618,-0.5 624,-6.5 624,-12.5"/>
<polyline fill="none" stroke="black" points="624,-12.5 624,-321.5 "/>
<path fill="none" stroke="black" d="M624,-321.5C624,-327.5 618,-333.5 612,-333.5"/>
<polyline fill="none" stroke="black" points="612,-333.5 492,-333.5 "/>
<path fill="none" stroke="black" d="M492,-333.5C486,-333.5 480,-327.5 480,-321.5"/>
<polyline fill="none" stroke="black" points="480,-321.5 480,-12.5 "/>
<path fill="none" stroke="black" d="M480,-12.5C480,-6.5 486,-0.5 492,-0.5"/>
<text text-anchor="middle" x="552" y="-316.9" font-family="Times Roman,serif" font-size="14.00">PartiesController</text>
<polyline fill="none" stroke="black" points="480,-306.5 624,-306.5 "/>
<text text-anchor="start" x="488" y="-289.9" font-family="Times Roman,serif" font-size="14.00">_callback_before_44</text>
<text text-anchor="start" x="488" y="-270.9" font-family="Times Roman,serif" font-size="14.00">comment</text>
<text text-anchor="start" x="488" y="-251.9" font-family="Times Roman,serif" font-size="14.00">create</text>
<text text-anchor="start" x="488" y="-232.9" font-family="Times Roman,serif" font-size="14.00">destroy</text>
<text text-anchor="start" x="488" y="-213.9" font-family="Times Roman,serif" font-size="14.00">edit</text>
<text text-anchor="start" x="488" y="-194.9" font-family="Times Roman,serif" font-size="14.00">get_parties_in_zone</text>
<text text-anchor="start" x="488" y="-175.9" font-family="Times Roman,serif" font-size="14.00">index</text>
<text text-anchor="start" x="488" y="-156.9" font-family="Times Roman,serif" font-size="14.00">new</text>
<text text-anchor="start" x="488" y="-137.9" font-family="Times Roman,serif" font-size="14.00">participate</text>
<text text-anchor="start" x="488" y="-118.9" font-family="Times Roman,serif" font-size="14.00">show</text>
<text text-anchor="start" x="488" y="-99.9" font-family="Times Roman,serif" font-size="14.00">update</text>
<polyline fill="none" stroke="black" points="480,-89.5 624,-89.5 "/>
<polyline fill="none" stroke="black" points="480,-65.5 624,-65.5 "/>
<text text-anchor="start" x="488" y="-48.9" font-family="Times Roman,serif" font-size="14.00">_layout</text>
<text text-anchor="start" x="488" y="-29.9" font-family="Times Roman,serif" font-size="14.00">party_creation_params</text>
<text text-anchor="start" x="488" y="-10.9" font-family="Times Roman,serif" font-size="14.00">party_params</text>
</g>
<!-- Users::OmniauthCallbacksController -->
<g id="node5" class="node"><title>Users::OmniauthCallbacksController</title>
<polyline fill="none" stroke="black" points="654,-103.5 856,-103.5 "/>
<path fill="none" stroke="black" d="M856,-103.5C862,-103.5 868,-109.5 868,-115.5"/>
<polyline fill="none" stroke="black" points="868,-115.5 868,-218.5 "/>
<path fill="none" stroke="black" d="M868,-218.5C868,-224.5 862,-230.5 856,-230.5"/>
<polyline fill="none" stroke="black" points="856,-230.5 654,-230.5 "/>
<path fill="none" stroke="black" d="M654,-230.5C648,-230.5 642,-224.5 642,-218.5"/>
<polyline fill="none" stroke="black" points="642,-218.5 642,-115.5 "/>
<path fill="none" stroke="black" d="M642,-115.5C642,-109.5 648,-103.5 654,-103.5"/>
<text text-anchor="middle" x="755" y="-213.9" font-family="Times Roman,serif" font-size="14.00">Users::OmniauthCallbacksController</text>
<polyline fill="none" stroke="black" points="642,-203.5 868,-203.5 "/>
<text text-anchor="start" x="650" y="-186.9" font-family="Times Roman,serif" font-size="14.00">facebook</text>
<text text-anchor="start" x="650" y="-167.9" font-family="Times Roman,serif" font-size="14.00">vkontakte</text>
<polyline fill="none" stroke="black" points="642,-157.5 868,-157.5 "/>
<text text-anchor="start" x="650" y="-140.9" font-family="Times Roman,serif" font-size="14.00">auth</text>
<polyline fill="none" stroke="black" points="642,-130.5 868,-130.5 "/>
<text text-anchor="start" x="650" y="-113.9" font-family="Times Roman,serif" font-size="14.00">_layout</text>
</g>
<!-- WelcomeController -->
<g id="node6" class="node"><title>WelcomeController</title>
<polyline fill="none" stroke="black" points="897.5,-114.5 1004.5,-114.5 "/>
<path fill="none" stroke="black" d="M1004.5,-114.5C1010.5,-114.5 1016.5,-120.5 1016.5,-126.5"/>
<polyline fill="none" stroke="black" points="1016.5,-126.5 1016.5,-207.5 "/>
<path fill="none" stroke="black" d="M1016.5,-207.5C1016.5,-213.5 1010.5,-219.5 1004.5,-219.5"/>
<polyline fill="none" stroke="black" points="1004.5,-219.5 897.5,-219.5 "/>
<path fill="none" stroke="black" d="M897.5,-219.5C891.5,-219.5 885.5,-213.5 885.5,-207.5"/>
<polyline fill="none" stroke="black" points="885.5,-207.5 885.5,-126.5 "/>
<path fill="none" stroke="black" d="M885.5,-126.5C885.5,-120.5 891.5,-114.5 897.5,-114.5"/>
<text text-anchor="middle" x="951" y="-202.9" font-family="Times Roman,serif" font-size="14.00">WelcomeController</text>
<polyline fill="none" stroke="black" points="885.5,-192.5 1016.5,-192.5 "/>
<text text-anchor="start" x="893.5" y="-175.9" font-family="Times Roman,serif" font-size="14.00">index</text>
<polyline fill="none" stroke="black" points="885.5,-165.5 1016.5,-165.5 "/>
<polyline fill="none" stroke="black" points="885.5,-141.5 1016.5,-141.5 "/>
<text text-anchor="start" x="893.5" y="-124.9" font-family="Times Roman,serif" font-size="14.00">_layout</text>
</g>
</g>
</svg>
