<?xml version="1.0" encoding="UTF-8" standalone="no"?>
<!DOCTYPE svg PUBLIC "-//W3C//DTD SVG 1.1//EN"
 "http://www.w3.org/Graphics/SVG/1.1/DTD/svg11.dtd">
<!-- Generated by graphviz version 2.36.0 (20140111.2315)
 -->
<!-- Title: controllers_diagram Pages: 1 -->
<svg width="743pt" height="268pt"
 viewBox="0.00 0.00 743.00 268.00" xmlns="http://www.w3.org/2000/svg" xmlns:xlink="http://www.w3.org/1999/xlink">
<g id="graph0" class="graph" transform="scale(1 1) rotate(0) translate(4 264)">
<title>controllers_diagram</title>
<polygon fill="white" stroke="none" points="-4,4 -4,-264 739,-264 739,4 -4,4"/>
<!-- WelcomeController -->
<g id="node1" class="node"><title>WelcomeController</title>
<path fill="none" stroke="black" d="M11.5,-83.5C11.5,-83.5 112.5,-83.5 112.5,-83.5 118.5,-83.5 124.5,-89.5 124.5,-95.5 124.5,-95.5 124.5,-164.5 124.5,-164.5 124.5,-170.5 118.5,-176.5 112.5,-176.5 112.5,-176.5 11.5,-176.5 11.5,-176.5 5.5,-176.5 -0.5,-170.5 -0.5,-164.5 -0.5,-164.5 -0.5,-95.5 -0.5,-95.5 -0.5,-89.5 5.5,-83.5 11.5,-83.5"/>
<text text-anchor="middle" x="62" y="-161.3" font-family="Times,serif" font-size="14.00">WelcomeController</text>
<polyline fill="none" stroke="black" points="-0.5,-153.5 124.5,-153.5 "/>
<text text-anchor="start" x="7.5" y="-138.3" font-family="Times,serif" font-size="14.00">index</text>
<polyline fill="none" stroke="black" points="-0.5,-130.5 124.5,-130.5 "/>
<polyline fill="none" stroke="black" points="-0.5,-106.5 124.5,-106.5 "/>
<text text-anchor="start" x="7.5" y="-91.3" font-family="Times,serif" font-size="14.00">_layout</text>
</g>
<!-- GuestsController -->
<g id="node2" class="node"><title>GuestsController</title>
<path fill="none" stroke="black" d="M155,-61C155,-61 261,-61 261,-61 267,-61 273,-67 273,-73 273,-73 273,-187 273,-187 273,-193 267,-199 261,-199 261,-199 155,-199 155,-199 149,-199 143,-193 143,-187 143,-187 143,-73 143,-73 143,-67 149,-61 155,-61"/>
<text text-anchor="middle" x="208" y="-183.8" font-family="Times,serif" font-size="14.00">GuestsController</text>
<polyline fill="none" stroke="black" points="143,-176 273,-176 "/>
<text text-anchor="start" x="151" y="-160.8" font-family="Times,serif" font-size="14.00">_callback_before_21</text>
<text text-anchor="start" x="151" y="-145.8" font-family="Times,serif" font-size="14.00">_callback_before_22</text>
<text text-anchor="start" x="151" y="-130.8" font-family="Times,serif" font-size="14.00">index</text>
<text text-anchor="start" x="151" y="-115.8" font-family="Times,serif" font-size="14.00">update</text>
<polyline fill="none" stroke="black" points="143,-108 273,-108 "/>
<polyline fill="none" stroke="black" points="143,-84 273,-84 "/>
<text text-anchor="start" x="151" y="-68.8" font-family="Times,serif" font-size="14.00">_layout</text>
</g>
<!-- PartiesController -->
<g id="node3" class="node"><title>PartiesController</title>
<path fill="none" stroke="black" d="M303.5,-1C303.5,-1 420.5,-1 420.5,-1 426.5,-1 432.5,-7 432.5,-13 432.5,-13 432.5,-247 432.5,-247 432.5,-253 426.5,-259 420.5,-259 420.5,-259 303.5,-259 303.5,-259 297.5,-259 291.5,-253 291.5,-247 291.5,-247 291.5,-13 291.5,-13 291.5,-7 297.5,-1 303.5,-1"/>
<text text-anchor="middle" x="362" y="-243.8" font-family="Times,serif" font-size="14.00">PartiesController</text>
<polyline fill="none" stroke="black" points="291.5,-236 432.5,-236 "/>
<text text-anchor="start" x="299.5" y="-220.8" font-family="Times,serif" font-size="14.00">_callback_before_23</text>
<text text-anchor="start" x="299.5" y="-205.8" font-family="Times,serif" font-size="14.00">create</text>
<text text-anchor="start" x="299.5" y="-190.8" font-family="Times,serif" font-size="14.00">destroy</text>
<text text-anchor="start" x="299.5" y="-175.8" font-family="Times,serif" font-size="14.00">edit</text>
<text text-anchor="start" x="299.5" y="-160.8" font-family="Times,serif" font-size="14.00">get_parties_in_zone</text>
<text text-anchor="start" x="299.5" y="-145.8" font-family="Times,serif" font-size="14.00">index</text>
<text text-anchor="start" x="299.5" y="-130.8" font-family="Times,serif" font-size="14.00">new</text>
<text text-anchor="start" x="299.5" y="-115.8" font-family="Times,serif" font-size="14.00">participate</text>
<text text-anchor="start" x="299.5" y="-100.8" font-family="Times,serif" font-size="14.00">show</text>
<text text-anchor="start" x="299.5" y="-85.8" font-family="Times,serif" font-size="14.00">update</text>
<polyline fill="none" stroke="black" points="291.5,-78 432.5,-78 "/>
<polyline fill="none" stroke="black" points="291.5,-54 432.5,-54 "/>
<text text-anchor="start" x="299.5" y="-38.8" font-family="Times,serif" font-size="14.00">_layout</text>
<text text-anchor="start" x="299.5" y="-23.8" font-family="Times,serif" font-size="14.00">party_creation_params</text>
<text text-anchor="start" x="299.5" y="-8.8" font-family="Times,serif" font-size="14.00">party_params</text>
</g>
<!-- ApplicationController -->
<g id="node4" class="node"><title>ApplicationController</title>
<path fill="none" stroke="black" d="M463,-83C463,-83 575,-83 575,-83 581,-83 587,-89 587,-95 587,-95 587,-165 587,-165 587,-171 581,-177 575,-177 575,-177 463,-177 463,-177 457,-177 451,-171 451,-165 451,-165 451,-95 451,-95 451,-89 457,-83 463,-83"/>
<text text-anchor="middle" x="519" y="-161.8" font-family="Times,serif" font-size="14.00">ApplicationController</text>
<polyline fill="none" stroke="black" points="451,-154 587,-154 "/>
<polyline fill="none" stroke="black" points="451,-130 587,-130 "/>
<polyline fill="none" stroke="black" points="451,-106 587,-106 "/>
<text text-anchor="start" x="459" y="-90.8" font-family="Times,serif" font-size="14.00">_layout</text>
</g>
<!-- ProfilesController -->
<g id="node5" class="node"><title>ProfilesController</title>
<path fill="none" stroke="black" d="M617,-53.5C617,-53.5 723,-53.5 723,-53.5 729,-53.5 735,-59.5 735,-65.5 735,-65.5 735,-194.5 735,-194.5 735,-200.5 729,-206.5 723,-206.5 723,-206.5 617,-206.5 617,-206.5 611,-206.5 605,-200.5 605,-194.5 605,-194.5 605,-65.5 605,-65.5 605,-59.5 611,-53.5 617,-53.5"/>
<text text-anchor="middle" x="670" y="-191.3" font-family="Times,serif" font-size="14.00">ProfilesController</text>
<polyline fill="none" stroke="black" points="605,-183.5 735,-183.5 "/>
<text text-anchor="start" x="613" y="-168.3" font-family="Times,serif" font-size="14.00">_callback_before_24</text>
<text text-anchor="start" x="613" y="-153.3" font-family="Times,serif" font-size="14.00">edit</text>
<text text-anchor="start" x="613" y="-138.3" font-family="Times,serif" font-size="14.00">show</text>
<text text-anchor="start" x="613" y="-123.3" font-family="Times,serif" font-size="14.00">update</text>
<polyline fill="none" stroke="black" points="605,-115.5 735,-115.5 "/>
<polyline fill="none" stroke="black" points="605,-91.5 735,-91.5 "/>
<text text-anchor="start" x="613" y="-76.3" font-family="Times,serif" font-size="14.00">_layout</text>
<text text-anchor="start" x="613" y="-61.3" font-family="Times,serif" font-size="14.00">profile_params</text>
</g>
</g>
</svg>
