<?xml version="1.0" encoding="UTF-8" standalone="no"?>
<!DOCTYPE svg PUBLIC "-//W3C//DTD SVG 1.1//EN"
 "http://www.w3.org/Graphics/SVG/1.1/DTD/svg11.dtd">
<!-- Generated by graphviz version 2.36.0 (20140111.2315)
 -->
<!-- Title: controllers_diagram Pages: 1 -->
<svg width="420pt" height="581pt"
 viewBox="0.00 0.00 420.04 581.32" xmlns="http://www.w3.org/2000/svg" xmlns:xlink="http://www.w3.org/1999/xlink">
<g id="graph0" class="graph" transform="scale(1 1) rotate(0) translate(4 577.317)">
<title>controllers_diagram</title>
<polygon fill="white" stroke="none" points="-4,4 -4,-577.317 416.045,-577.317 416.045,4 -4,4"/>
<!-- WelcomeController -->
<g id="node1" class="node"><title>WelcomeController</title>
<path fill="none" stroke="black" d="M13.7647,-446.867C13.7647,-446.867 114.765,-446.867 114.765,-446.867 120.765,-446.867 126.765,-452.867 126.765,-458.867 126.765,-458.867 126.765,-527.867 126.765,-527.867 126.765,-533.867 120.765,-539.867 114.765,-539.867 114.765,-539.867 13.7647,-539.867 13.7647,-539.867 7.76473,-539.867 1.76473,-533.867 1.76473,-527.867 1.76473,-527.867 1.76473,-458.867 1.76473,-458.867 1.76473,-452.867 7.76473,-446.867 13.7647,-446.867"/>
<text text-anchor="middle" x="64.2647" y="-524.667" font-family="Times,serif" font-size="14.00">WelcomeController</text>
<polyline fill="none" stroke="black" points="1.76473,-516.867 126.765,-516.867 "/>
<text text-anchor="start" x="9.76473" y="-501.667" font-family="Times,serif" font-size="14.00">index</text>
<polyline fill="none" stroke="black" points="1.76473,-493.867 126.765,-493.867 "/>
<polyline fill="none" stroke="black" points="1.76473,-469.867 126.765,-469.867 "/>
<text text-anchor="start" x="9.76473" y="-454.667" font-family="Times,serif" font-size="14.00">_layout</text>
</g>
<!-- GuestsController -->
<g id="node2" class="node"><title>GuestsController</title>
<path fill="none" stroke="black" d="M294.045,-69.2342C294.045,-69.2342 400.045,-69.2342 400.045,-69.2342 406.045,-69.2342 412.045,-75.2342 412.045,-81.2342 412.045,-81.2342 412.045,-195.234 412.045,-195.234 412.045,-201.234 406.045,-207.234 400.045,-207.234 400.045,-207.234 294.045,-207.234 294.045,-207.234 288.045,-207.234 282.045,-201.234 282.045,-195.234 282.045,-195.234 282.045,-81.2342 282.045,-81.2342 282.045,-75.2342 288.045,-69.2342 294.045,-69.2342"/>
<text text-anchor="middle" x="347.045" y="-192.034" font-family="Times,serif" font-size="14.00">GuestsController</text>
<polyline fill="none" stroke="black" points="282.045,-184.234 412.045,-184.234 "/>
<text text-anchor="start" x="290.045" y="-169.034" font-family="Times,serif" font-size="14.00">_callback_before_21</text>
<text text-anchor="start" x="290.045" y="-154.034" font-family="Times,serif" font-size="14.00">_callback_before_22</text>
<text text-anchor="start" x="290.045" y="-139.034" font-family="Times,serif" font-size="14.00">index</text>
<text text-anchor="start" x="290.045" y="-124.034" font-family="Times,serif" font-size="14.00">update</text>
<polyline fill="none" stroke="black" points="282.045,-116.234 412.045,-116.234 "/>
<polyline fill="none" stroke="black" points="282.045,-92.2342 412.045,-92.2342 "/>
<text text-anchor="start" x="290.045" y="-77.0342" font-family="Times,serif" font-size="14.00">_layout</text>
</g>
<!-- PartiesController -->
<g id="node3" class="node"><title>PartiesController</title>
<path fill="none" stroke="black" d="M12,-0.5C12,-0.5 129,-0.5 129,-0.5 135,-0.5 141,-6.5 141,-12.5 141,-12.5 141,-246.5 141,-246.5 141,-252.5 135,-258.5 129,-258.5 129,-258.5 12,-258.5 12,-258.5 6,-258.5 0,-252.5 0,-246.5 0,-246.5 0,-12.5 0,-12.5 0,-6.5 6,-0.5 12,-0.5"/>
<text text-anchor="middle" x="70.5" y="-243.3" font-family="Times,serif" font-size="14.00">PartiesController</text>
<polyline fill="none" stroke="black" points="0,-235.5 141,-235.5 "/>
<text text-anchor="start" x="8" y="-220.3" font-family="Times,serif" font-size="14.00">_callback_before_23</text>
<text text-anchor="start" x="8" y="-205.3" font-family="Times,serif" font-size="14.00">create</text>
<text text-anchor="start" x="8" y="-190.3" font-family="Times,serif" font-size="14.00">destroy</text>
<text text-anchor="start" x="8" y="-175.3" font-family="Times,serif" font-size="14.00">edit</text>
<text text-anchor="start" x="8" y="-160.3" font-family="Times,serif" font-size="14.00">get_parties_in_zone</text>
<text text-anchor="start" x="8" y="-145.3" font-family="Times,serif" font-size="14.00">index</text>
<text text-anchor="start" x="8" y="-130.3" font-family="Times,serif" font-size="14.00">new</text>
<text text-anchor="start" x="8" y="-115.3" font-family="Times,serif" font-size="14.00">participate</text>
<text text-anchor="start" x="8" y="-100.3" font-family="Times,serif" font-size="14.00">show</text>
<text text-anchor="start" x="8" y="-85.3" font-family="Times,serif" font-size="14.00">update</text>
<polyline fill="none" stroke="black" points="0,-77.5 141,-77.5 "/>
<polyline fill="none" stroke="black" points="0,-53.5 141,-53.5 "/>
<text text-anchor="start" x="8" y="-38.3" font-family="Times,serif" font-size="14.00">_layout</text>
<text text-anchor="start" x="8" y="-23.3" font-family="Times,serif" font-size="14.00">party_creation_params</text>
<text text-anchor="start" x="8" y="-8.3" font-family="Times,serif" font-size="14.00">party_params</text>
</g>
<!-- ApplicationController -->
<g id="node4" class="node"><title>ApplicationController</title>
<path fill="none" stroke="black" d="M143.15,-268.58C143.15,-268.58 255.15,-268.58 255.15,-268.58 261.15,-268.58 267.15,-274.58 267.15,-280.58 267.15,-280.58 267.15,-350.58 267.15,-350.58 267.15,-356.58 261.15,-362.58 255.15,-362.58 255.15,-362.58 143.15,-362.58 143.15,-362.58 137.15,-362.58 131.15,-356.58 131.15,-350.58 131.15,-350.58 131.15,-280.58 131.15,-280.58 131.15,-274.58 137.15,-268.58 143.15,-268.58"/>
<text text-anchor="middle" x="199.15" y="-347.38" font-family="Times,serif" font-size="14.00">ApplicationController</text>
<polyline fill="none" stroke="black" points="131.15,-339.58 267.15,-339.58 "/>
<polyline fill="none" stroke="black" points="131.15,-315.58 267.15,-315.58 "/>
<polyline fill="none" stroke="black" points="131.15,-291.58 267.15,-291.58 "/>
<text text-anchor="start" x="139.15" y="-276.38" font-family="Times,serif" font-size="14.00">_layout</text>
</g>
<!-- ApplicationController&#45;&gt;WelcomeController -->
<g id="edge1" class="edge"><title>ApplicationController&#45;&gt;WelcomeController</title>
<path fill="none" stroke="black" d="M163.357,-362.757C143.689,-388.68 119.377,-420.726 99.7566,-446.586"/>
</g>
<!-- ApplicationController&#45;&gt;GuestsController -->
<g id="edge2" class="edge"><title>ApplicationController&#45;&gt;GuestsController</title>
<path fill="none" stroke="black" d="M238.395,-268.52C253.97,-249.844 272.2,-227.983 289.231,-207.561"/>
</g>
<!-- ApplicationController&#45;&gt;PartiesController -->
<g id="edge3" class="edge"><title>ApplicationController&#45;&gt;PartiesController</title>
<path fill="none" stroke="black" d="M166.353,-268.142C158.537,-256.836 149.895,-244.337 141.095,-231.608"/>
</g>
<!-- ProfilesController -->
<g id="node5" class="node"><title>ProfilesController</title>
<path fill="none" stroke="black" d="M288.794,-419.817C288.794,-419.817 394.794,-419.817 394.794,-419.817 400.794,-419.817 406.794,-425.817 406.794,-431.817 406.794,-431.817 406.794,-560.817 406.794,-560.817 406.794,-566.817 400.794,-572.817 394.794,-572.817 394.794,-572.817 288.794,-572.817 288.794,-572.817 282.794,-572.817 276.794,-566.817 276.794,-560.817 276.794,-560.817 276.794,-431.817 276.794,-431.817 276.794,-425.817 282.794,-419.817 288.794,-419.817"/>
<text text-anchor="middle" x="341.794" y="-557.617" font-family="Times,serif" font-size="14.00">ProfilesController</text>
<polyline fill="none" stroke="black" points="276.794,-549.817 406.794,-549.817 "/>
<text text-anchor="start" x="284.794" y="-534.617" font-family="Times,serif" font-size="14.00">_callback_before_24</text>
<text text-anchor="start" x="284.794" y="-519.617" font-family="Times,serif" font-size="14.00">edit</text>
<text text-anchor="start" x="284.794" y="-504.617" font-family="Times,serif" font-size="14.00">show</text>
<text text-anchor="start" x="284.794" y="-489.617" font-family="Times,serif" font-size="14.00">update</text>
<polyline fill="none" stroke="black" points="276.794,-481.817 406.794,-481.817 "/>
<polyline fill="none" stroke="black" points="276.794,-457.817 406.794,-457.817 "/>
<text text-anchor="start" x="284.794" y="-442.617" font-family="Times,serif" font-size="14.00">_layout</text>
<text text-anchor="start" x="284.794" y="-427.617" font-family="Times,serif" font-size="14.00">profile_params</text>
</g>
<!-- ApplicationController&#45;&gt;ProfilesController -->
<g id="edge4" class="edge"><title>ApplicationController&#45;&gt;ProfilesController</title>
<path fill="none" stroke="black" d="M236.256,-362.594C250.041,-380.062 266.062,-400.361 281.393,-419.786"/>
</g>
</g>
</svg>
