<?xml version="1.0" encoding="UTF-8" standalone="no"?>
<!DOCTYPE svg PUBLIC "-//W3C//DTD SVG 1.1//EN"
 "http://www.w3.org/Graphics/SVG/1.1/DTD/svg11.dtd">
<!-- Generated by graphviz version 2.26.3 (20100126.1600)
 -->
<!-- Title: controllers_diagram Pages: 1 -->
<svg width="900pt" height="576pt"
 viewBox="0.00 0.00 900.00 576.00" xmlns="http://www.w3.org/2000/svg" xmlns:xlink="http://www.w3.org/1999/xlink">
<g id="graph1" class="graph" transform="scale(1 1) rotate(0) translate(4 572)">
<title>controllers_diagram</title>
<polygon fill="white" stroke="white" points="-4,5 -4,-572 897,-572 897,5 -4,5"/>
<!-- GuestsController -->
<g id="node1" class="node"><title>GuestsController</title>
<polyline fill="none" stroke="black" points="12,-105 122,-105 "/>
<path fill="none" stroke="black" d="M122,-105C128,-105 134,-111 134,-117"/>
<polyline fill="none" stroke="black" points="134,-117 134,-255 "/>
<path fill="none" stroke="black" d="M134,-255C134,-261 128,-267 122,-267"/>
<polyline fill="none" stroke="black" points="122,-267 12,-267 "/>
<path fill="none" stroke="black" d="M12,-267C6,-267 0,-261 0,-255"/>
<polyline fill="none" stroke="black" points="0,-255 0,-117 "/>
<path fill="none" stroke="black" d="M0,-117C0,-111 6,-105 12,-105"/>
<text text-anchor="middle" x="67" y="-250.4" font-family="Times Roman,serif" font-size="14.00">GuestsController</text>
<polyline fill="none" stroke="black" points="0,-240 134,-240 "/>
<text text-anchor="start" x="8" y="-223.4" font-family="Times Roman,serif" font-size="14.00">_callback_before_43</text>
<text text-anchor="start" x="8" y="-204.4" font-family="Times Roman,serif" font-size="14.00">_callback_before_44</text>
<text text-anchor="start" x="8" y="-185.4" font-family="Times Roman,serif" font-size="14.00">index</text>
<text text-anchor="start" x="8" y="-166.4" font-family="Times Roman,serif" font-size="14.00">update</text>
<polyline fill="none" stroke="black" points="0,-156 134,-156 "/>
<polyline fill="none" stroke="black" points="0,-132 134,-132 "/>
<text text-anchor="start" x="8" y="-115.4" font-family="Times Roman,serif" font-size="14.00">_layout</text>
</g>
<!-- ProfilesController -->
<g id="node2" class="node"><title>ProfilesController</title>
<polyline fill="none" stroke="black" points="164,-57.5 274,-57.5 "/>
<path fill="none" stroke="black" d="M274,-57.5C280,-57.5 286,-63.5 286,-69.5"/>
<polyline fill="none" stroke="black" points="286,-69.5 286,-302.5 "/>
<path fill="none" stroke="black" d="M286,-302.5C286,-308.5 280,-314.5 274,-314.5"/>
<polyline fill="none" stroke="black" points="274,-314.5 164,-314.5 "/>
<path fill="none" stroke="black" d="M164,-314.5C158,-314.5 152,-308.5 152,-302.5"/>
<polyline fill="none" stroke="black" points="152,-302.5 152,-69.5 "/>
<path fill="none" stroke="black" d="M152,-69.5C152,-63.5 158,-57.5 164,-57.5"/>
<text text-anchor="middle" x="219" y="-297.9" font-family="Times Roman,serif" font-size="14.00">ProfilesController</text>
<polyline fill="none" stroke="black" points="152,-287.5 286,-287.5 "/>
<text text-anchor="start" x="160" y="-270.9" font-family="Times Roman,serif" font-size="14.00">_callback_before_45</text>
<text text-anchor="start" x="160" y="-251.9" font-family="Times Roman,serif" font-size="14.00">comment</text>
<text text-anchor="start" x="160" y="-232.9" font-family="Times Roman,serif" font-size="14.00">edit</text>
<text text-anchor="start" x="160" y="-213.9" font-family="Times Roman,serif" font-size="14.00">erase_avatar</text>
<text text-anchor="start" x="160" y="-194.9" font-family="Times Roman,serif" font-size="14.00">erase_social_avatar</text>
<text text-anchor="start" x="160" y="-175.9" font-family="Times Roman,serif" font-size="14.00">show</text>
<text text-anchor="start" x="160" y="-156.9" font-family="Times Roman,serif" font-size="14.00">update</text>
<text text-anchor="start" x="160" y="-137.9" font-family="Times Roman,serif" font-size="14.00">vote</text>
<polyline fill="none" stroke="black" points="152,-127.5 286,-127.5 "/>
<polyline fill="none" stroke="black" points="152,-103.5 286,-103.5 "/>
<text text-anchor="start" x="160" y="-86.9" font-family="Times Roman,serif" font-size="14.00">_layout</text>
<text text-anchor="start" x="160" y="-67.9" font-family="Times Roman,serif" font-size="14.00">profile_params</text>
</g>
<!-- ApplicationController -->
<g id="node3" class="node"><title>ApplicationController</title>
<polyline fill="none" stroke="black" points="230,-408.5 364,-408.5 "/>
<path fill="none" stroke="black" d="M364,-408.5C370,-408.5 376,-414.5 376,-420.5"/>
<polyline fill="none" stroke="black" points="376,-420.5 376,-555.5 "/>
<path fill="none" stroke="black" d="M376,-555.5C376,-561.5 370,-567.5 364,-567.5"/>
<polyline fill="none" stroke="black" points="364,-567.5 230,-567.5 "/>
<path fill="none" stroke="black" d="M230,-567.5C224,-567.5 218,-561.5 218,-555.5"/>
<polyline fill="none" stroke="black" points="218,-555.5 218,-420.5 "/>
<path fill="none" stroke="black" d="M218,-420.5C218,-414.5 224,-408.5 230,-408.5"/>
<text text-anchor="middle" x="297" y="-550.9" font-family="Times Roman,serif" font-size="14.00">ApplicationController</text>
<polyline fill="none" stroke="black" points="218,-540.5 376,-540.5 "/>
<polyline fill="none" stroke="black" points="218,-516.5 376,-516.5 "/>
<polyline fill="none" stroke="black" points="218,-492.5 376,-492.5 "/>
<text text-anchor="start" x="226" y="-475.9" font-family="Times Roman,serif" font-size="14.00">_layout</text>
<text text-anchor="start" x="226" y="-456.9" font-family="Times Roman,serif" font-size="14.00">after_sign_in_path_for</text>
<text text-anchor="start" x="226" y="-437.9" font-family="Times Roman,serif" font-size="14.00">set_padding_top</text>
<text text-anchor="start" x="226" y="-418.9" font-family="Times Roman,serif" font-size="14.00">update_sanitized_params</text>
</g>
<!-- ApplicationController&#45;&gt;GuestsController -->
<g id="edge2" class="edge"><title>ApplicationController&#45;&gt;GuestsController</title>
<path fill="none" stroke="black" d="M217.898,-440.808C191.399,-422.013 163.431,-398.513 143,-372 119.259,-341.191 101.781,-301.936 89.6145,-267.435"/>
</g>
<!-- ApplicationController&#45;&gt;ProfilesController -->
<g id="edge4" class="edge"><title>ApplicationController&#45;&gt;ProfilesController</title>
<path fill="none" stroke="black" d="M276.404,-408.258C269.002,-379.598 260.452,-346.495 252.25,-314.736"/>
</g>
<!-- PartiesController -->
<g id="node4" class="node"><title>PartiesController</title>
<polyline fill="none" stroke="black" points="316,-0.5 436,-0.5 "/>
<path fill="none" stroke="black" d="M436,-0.5C442,-0.5 448,-6.5 448,-12.5"/>
<polyline fill="none" stroke="black" points="448,-12.5 448,-359.5 "/>
<path fill="none" stroke="black" d="M448,-359.5C448,-365.5 442,-371.5 436,-371.5"/>
<polyline fill="none" stroke="black" points="436,-371.5 316,-371.5 "/>
<path fill="none" stroke="black" d="M316,-371.5C310,-371.5 304,-365.5 304,-359.5"/>
<polyline fill="none" stroke="black" points="304,-359.5 304,-12.5 "/>
<path fill="none" stroke="black" d="M304,-12.5C304,-6.5 310,-0.5 316,-0.5"/>
<text text-anchor="middle" x="376" y="-354.9" font-family="Times Roman,serif" font-size="14.00">PartiesController</text>
<polyline fill="none" stroke="black" points="304,-344.5 448,-344.5 "/>
<text text-anchor="start" x="312" y="-327.9" font-family="Times Roman,serif" font-size="14.00">_callback_before_46</text>
<text text-anchor="start" x="312" y="-308.9" font-family="Times Roman,serif" font-size="14.00">autocomplete_tags</text>
<text text-anchor="start" x="312" y="-289.9" font-family="Times Roman,serif" font-size="14.00">comment</text>
<text text-anchor="start" x="312" y="-270.9" font-family="Times Roman,serif" font-size="14.00">create</text>
<text text-anchor="start" x="312" y="-251.9" font-family="Times Roman,serif" font-size="14.00">destroy</text>
<text text-anchor="start" x="312" y="-232.9" font-family="Times Roman,serif" font-size="14.00">edit</text>
<text text-anchor="start" x="312" y="-213.9" font-family="Times Roman,serif" font-size="14.00">get_parties_in_zone</text>
<text text-anchor="start" x="312" y="-194.9" font-family="Times Roman,serif" font-size="14.00">index</text>
<text text-anchor="start" x="312" y="-175.9" font-family="Times Roman,serif" font-size="14.00">new</text>
<text text-anchor="start" x="312" y="-156.9" font-family="Times Roman,serif" font-size="14.00">participate</text>
<text text-anchor="start" x="312" y="-137.9" font-family="Times Roman,serif" font-size="14.00">show</text>
<text text-anchor="start" x="312" y="-118.9" font-family="Times Roman,serif" font-size="14.00">update</text>
<text text-anchor="start" x="312" y="-99.9" font-family="Times Roman,serif" font-size="14.00">vote</text>
<polyline fill="none" stroke="black" points="304,-89.5 448,-89.5 "/>
<polyline fill="none" stroke="black" points="304,-65.5 448,-65.5 "/>
<text text-anchor="start" x="312" y="-48.9" font-family="Times Roman,serif" font-size="14.00">_layout</text>
<text text-anchor="start" x="312" y="-29.9" font-family="Times Roman,serif" font-size="14.00">party_creation_params</text>
<text text-anchor="start" x="312" y="-10.9" font-family="Times Roman,serif" font-size="14.00">party_params</text>
</g>
<!-- ApplicationController&#45;&gt;PartiesController -->
<g id="edge6" class="edge"><title>ApplicationController&#45;&gt;PartiesController</title>
<path fill="none" stroke="black" d="M317.86,-408.258C320.9,-396.637 324.131,-384.285 327.452,-371.589"/>
</g>
<!-- WelcomeController -->
<g id="node6" class="node"><title>WelcomeController</title>
<polyline fill="none" stroke="black" points="477.5,-133.5 584.5,-133.5 "/>
<path fill="none" stroke="black" d="M584.5,-133.5C590.5,-133.5 596.5,-139.5 596.5,-145.5"/>
<polyline fill="none" stroke="black" points="596.5,-145.5 596.5,-226.5 "/>
<path fill="none" stroke="black" d="M596.5,-226.5C596.5,-232.5 590.5,-238.5 584.5,-238.5"/>
<polyline fill="none" stroke="black" points="584.5,-238.5 477.5,-238.5 "/>
<path fill="none" stroke="black" d="M477.5,-238.5C471.5,-238.5 465.5,-232.5 465.5,-226.5"/>
<polyline fill="none" stroke="black" points="465.5,-226.5 465.5,-145.5 "/>
<path fill="none" stroke="black" d="M465.5,-145.5C465.5,-139.5 471.5,-133.5 477.5,-133.5"/>
<text text-anchor="middle" x="531" y="-221.9" font-family="Times Roman,serif" font-size="14.00">WelcomeController</text>
<polyline fill="none" stroke="black" points="465.5,-211.5 596.5,-211.5 "/>
<text text-anchor="start" x="473.5" y="-194.9" font-family="Times Roman,serif" font-size="14.00">index</text>
<polyline fill="none" stroke="black" points="465.5,-184.5 596.5,-184.5 "/>
<polyline fill="none" stroke="black" points="465.5,-160.5 596.5,-160.5 "/>
<text text-anchor="start" x="473.5" y="-143.9" font-family="Times Roman,serif" font-size="14.00">_layout</text>
</g>
<!-- ApplicationController&#45;&gt;WelcomeController -->
<g id="edge10" class="edge"><title>ApplicationController&#45;&gt;WelcomeController</title>
<path fill="none" stroke="black" d="M376.066,-443.667C404.578,-424.591 435.092,-400.165 457,-372 487.832,-332.361 507.435,-278.209 518.661,-238.558"/>
</g>
<!-- Users::OmniauthCallbacksController -->
<g id="node5" class="node"><title>Users::OmniauthCallbacksController</title>
<polyline fill="none" stroke="black" points="626,-122.5 828,-122.5 "/>
<path fill="none" stroke="black" d="M828,-122.5C834,-122.5 840,-128.5 840,-134.5"/>
<polyline fill="none" stroke="black" points="840,-134.5 840,-237.5 "/>
<path fill="none" stroke="black" d="M840,-237.5C840,-243.5 834,-249.5 828,-249.5"/>
<polyline fill="none" stroke="black" points="828,-249.5 626,-249.5 "/>
<path fill="none" stroke="black" d="M626,-249.5C620,-249.5 614,-243.5 614,-237.5"/>
<polyline fill="none" stroke="black" points="614,-237.5 614,-134.5 "/>
<path fill="none" stroke="black" d="M614,-134.5C614,-128.5 620,-122.5 626,-122.5"/>
<text text-anchor="middle" x="727" y="-232.9" font-family="Times Roman,serif" font-size="14.00">Users::OmniauthCallbacksController</text>
<polyline fill="none" stroke="black" points="614,-222.5 840,-222.5 "/>
<text text-anchor="start" x="622" y="-205.9" font-family="Times Roman,serif" font-size="14.00">facebook</text>
<text text-anchor="start" x="622" y="-186.9" font-family="Times Roman,serif" font-size="14.00">vkontakte</text>
<polyline fill="none" stroke="black" points="614,-176.5 840,-176.5 "/>
<text text-anchor="start" x="622" y="-159.9" font-family="Times Roman,serif" font-size="14.00">auth</text>
<polyline fill="none" stroke="black" points="614,-149.5 840,-149.5 "/>
<text text-anchor="start" x="622" y="-132.9" font-family="Times Roman,serif" font-size="14.00">_layout</text>
</g>
<!-- Devise::OmniauthCallbacksController -->
<g id="node10" class="node"><title>Devise::OmniauthCallbacksController</title>
<ellipse fill="none" stroke="black" cx="727" cy="-488" rx="164.756" ry="19.0919"/>
<text text-anchor="middle" x="727" y="-484.9" font-family="Times Roman,serif" font-size="14.00">Devise::OmniauthCallbacksController</text>
</g>
<!-- Devise::OmniauthCallbacksController&#45;&gt;Users::OmniauthCallbacksController -->
<g id="edge8" class="edge"><title>Devise::OmniauthCallbacksController&#45;&gt;Users::OmniauthCallbacksController</title>
<path fill="none" stroke="black" d="M727,-468.649C727,-425.298 727,-318.774 727,-249.59"/>
</g>
</g>
</svg>
