<?xml version="1.0" encoding="UTF-8" standalone="no"?>
<!DOCTYPE svg PUBLIC "-//W3C//DTD SVG 1.1//EN"
 "http://www.w3.org/Graphics/SVG/1.1/DTD/svg11.dtd">
<!-- Generated by graphviz version 2.26.3 (20100126.1600)
 -->
<!-- Title: controllers_diagram Pages: 1 -->
<svg width="959pt" height="705pt"
 viewBox="0.00 0.00 959.45 704.74" xmlns="http://www.w3.org/2000/svg" xmlns:xlink="http://www.w3.org/1999/xlink">
<g id="graph1" class="graph" transform="scale(1 1) rotate(0) translate(4 700.741)">
<title>controllers_diagram</title>
<polygon fill="white" stroke="white" points="-4,5 -4,-700.741 956.448,-700.741 956.448,5 -4,5"/>
<!-- GuestsController -->
<g id="node1" class="node"><title>GuestsController</title>
<polyline fill="none" stroke="black" points="17.5698,-54.6428 127.57,-54.6428 "/>
<path fill="none" stroke="black" d="M127.57,-54.6428C133.57,-54.6428 139.57,-60.6428 139.57,-66.6428"/>
<polyline fill="none" stroke="black" points="139.57,-66.6428 139.57,-204.643 "/>
<path fill="none" stroke="black" d="M139.57,-204.643C139.57,-210.643 133.57,-216.643 127.57,-216.643"/>
<polyline fill="none" stroke="black" points="127.57,-216.643 17.5698,-216.643 "/>
<path fill="none" stroke="black" d="M17.5698,-216.643C11.5698,-216.643 5.56982,-210.643 5.56982,-204.643"/>
<polyline fill="none" stroke="black" points="5.56982,-204.643 5.56982,-66.6428 "/>
<path fill="none" stroke="black" d="M5.56982,-66.6428C5.56982,-60.6428 11.5698,-54.6428 17.5698,-54.6428"/>
<text text-anchor="middle" x="72.5698" y="-200.043" font-family="Times Roman,serif" font-size="14.00">GuestsController</text>
<polyline fill="none" stroke="black" points="5.56982,-189.643 139.57,-189.643 "/>
<text text-anchor="start" x="13.5698" y="-173.043" font-family="Times Roman,serif" font-size="14.00">_callback_before_41</text>
<text text-anchor="start" x="13.5698" y="-154.043" font-family="Times Roman,serif" font-size="14.00">_callback_before_42</text>
<text text-anchor="start" x="13.5698" y="-135.043" font-family="Times Roman,serif" font-size="14.00">index</text>
<text text-anchor="start" x="13.5698" y="-116.043" font-family="Times Roman,serif" font-size="14.00">update</text>
<polyline fill="none" stroke="black" points="5.56982,-105.643 139.57,-105.643 "/>
<polyline fill="none" stroke="black" points="5.56982,-81.6428 139.57,-81.6428 "/>
<text text-anchor="start" x="13.5698" y="-65.0428" font-family="Times Roman,serif" font-size="14.00">_layout</text>
</g>
<!-- ProfilesController -->
<g id="node2" class="node"><title>ProfilesController</title>
<polyline fill="none" stroke="black" points="264.731,-1.5 374.731,-1.5 "/>
<path fill="none" stroke="black" d="M374.731,-1.5C380.731,-1.5 386.731,-7.5 386.731,-13.5"/>
<polyline fill="none" stroke="black" points="386.731,-13.5 386.731,-208.5 "/>
<path fill="none" stroke="black" d="M386.731,-208.5C386.731,-214.5 380.731,-220.5 374.731,-220.5"/>
<polyline fill="none" stroke="black" points="374.731,-220.5 264.731,-220.5 "/>
<path fill="none" stroke="black" d="M264.731,-220.5C258.731,-220.5 252.731,-214.5 252.731,-208.5"/>
<polyline fill="none" stroke="black" points="252.731,-208.5 252.731,-13.5 "/>
<path fill="none" stroke="black" d="M252.731,-13.5C252.731,-7.5 258.731,-1.5 264.731,-1.5"/>
<text text-anchor="middle" x="319.731" y="-203.9" font-family="Times Roman,serif" font-size="14.00">ProfilesController</text>
<polyline fill="none" stroke="black" points="252.731,-193.5 386.731,-193.5 "/>
<text text-anchor="start" x="260.731" y="-176.9" font-family="Times Roman,serif" font-size="14.00">_callback_before_43</text>
<text text-anchor="start" x="260.731" y="-157.9" font-family="Times Roman,serif" font-size="14.00">comment</text>
<text text-anchor="start" x="260.731" y="-138.9" font-family="Times Roman,serif" font-size="14.00">edit</text>
<text text-anchor="start" x="260.731" y="-119.9" font-family="Times Roman,serif" font-size="14.00">erase_avatar</text>
<text text-anchor="start" x="260.731" y="-100.9" font-family="Times Roman,serif" font-size="14.00">show</text>
<text text-anchor="start" x="260.731" y="-81.9" font-family="Times Roman,serif" font-size="14.00">update</text>
<polyline fill="none" stroke="black" points="252.731,-71.5 386.731,-71.5 "/>
<polyline fill="none" stroke="black" points="252.731,-47.5 386.731,-47.5 "/>
<text text-anchor="start" x="260.731" y="-30.9" font-family="Times Roman,serif" font-size="14.00">_layout</text>
<text text-anchor="start" x="260.731" y="-11.9" font-family="Times Roman,serif" font-size="14.00">profile_params</text>
</g>
<!-- ApplicationController -->
<g id="node3" class="node"><title>ApplicationController</title>
<polyline fill="none" stroke="black" points="175.16,-261.427 309.16,-261.427 "/>
<path fill="none" stroke="black" d="M309.16,-261.427C315.16,-261.427 321.16,-267.427 321.16,-273.427"/>
<polyline fill="none" stroke="black" points="321.16,-273.427 321.16,-389.427 "/>
<path fill="none" stroke="black" d="M321.16,-389.427C321.16,-395.427 315.16,-401.427 309.16,-401.427"/>
<polyline fill="none" stroke="black" points="309.16,-401.427 175.16,-401.427 "/>
<path fill="none" stroke="black" d="M175.16,-401.427C169.16,-401.427 163.16,-395.427 163.16,-389.427"/>
<polyline fill="none" stroke="black" points="163.16,-389.427 163.16,-273.427 "/>
<path fill="none" stroke="black" d="M163.16,-273.427C163.16,-267.427 169.16,-261.427 175.16,-261.427"/>
<text text-anchor="middle" x="242.16" y="-384.827" font-family="Times Roman,serif" font-size="14.00">ApplicationController</text>
<polyline fill="none" stroke="black" points="163.16,-374.427 321.16,-374.427 "/>
<polyline fill="none" stroke="black" points="163.16,-350.427 321.16,-350.427 "/>
<polyline fill="none" stroke="black" points="163.16,-326.427 321.16,-326.427 "/>
<text text-anchor="start" x="171.16" y="-309.827" font-family="Times Roman,serif" font-size="14.00">_layout</text>
<text text-anchor="start" x="171.16" y="-290.827" font-family="Times Roman,serif" font-size="14.00">set_padding_top</text>
<text text-anchor="start" x="171.16" y="-271.827" font-family="Times Roman,serif" font-size="14.00">update_sanitized_params</text>
</g>
<!-- ApplicationController&#45;&gt;GuestsController -->
<g id="edge2" class="edge"><title>ApplicationController&#45;&gt;GuestsController</title>
<path fill="none" stroke="black" d="M181.413,-261.297C167.917,-245.717 153.535,-229.113 139.796,-213.252"/>
</g>
<!-- ApplicationController&#45;&gt;ProfilesController -->
<g id="edge4" class="edge"><title>ApplicationController&#45;&gt;ProfilesController</title>
<path fill="none" stroke="black" d="M266.811,-261.379C271.38,-248.395 276.253,-234.549 281.122,-220.713"/>
</g>
<!-- PartiesController -->
<g id="node4" class="node"><title>PartiesController</title>
<polyline fill="none" stroke="black" points="13,-362.241 133,-362.241 "/>
<path fill="none" stroke="black" d="M133,-362.241C139,-362.241 145,-368.241 145,-374.241"/>
<polyline fill="none" stroke="black" points="145,-374.241 145,-683.241 "/>
<path fill="none" stroke="black" d="M145,-683.241C145,-689.241 139,-695.241 133,-695.241"/>
<polyline fill="none" stroke="black" points="133,-695.241 13,-695.241 "/>
<path fill="none" stroke="black" d="M13,-695.241C7,-695.241 1,-689.241 1,-683.241"/>
<polyline fill="none" stroke="black" points="1,-683.241 1,-374.241 "/>
<path fill="none" stroke="black" d="M1,-374.241C1,-368.241 7,-362.241 13,-362.241"/>
<text text-anchor="middle" x="73" y="-678.641" font-family="Times Roman,serif" font-size="14.00">PartiesController</text>
<polyline fill="none" stroke="black" points="1,-668.241 145,-668.241 "/>
<text text-anchor="start" x="9" y="-651.641" font-family="Times Roman,serif" font-size="14.00">_callback_before_44</text>
<text text-anchor="start" x="9" y="-632.641" font-family="Times Roman,serif" font-size="14.00">comment</text>
<text text-anchor="start" x="9" y="-613.641" font-family="Times Roman,serif" font-size="14.00">create</text>
<text text-anchor="start" x="9" y="-594.641" font-family="Times Roman,serif" font-size="14.00">destroy</text>
<text text-anchor="start" x="9" y="-575.641" font-family="Times Roman,serif" font-size="14.00">edit</text>
<text text-anchor="start" x="9" y="-556.641" font-family="Times Roman,serif" font-size="14.00">get_parties_in_zone</text>
<text text-anchor="start" x="9" y="-537.641" font-family="Times Roman,serif" font-size="14.00">index</text>
<text text-anchor="start" x="9" y="-518.641" font-family="Times Roman,serif" font-size="14.00">new</text>
<text text-anchor="start" x="9" y="-499.641" font-family="Times Roman,serif" font-size="14.00">participate</text>
<text text-anchor="start" x="9" y="-480.641" font-family="Times Roman,serif" font-size="14.00">show</text>
<text text-anchor="start" x="9" y="-461.641" font-family="Times Roman,serif" font-size="14.00">update</text>
<polyline fill="none" stroke="black" points="1,-451.241 145,-451.241 "/>
<polyline fill="none" stroke="black" points="1,-427.241 145,-427.241 "/>
<text text-anchor="start" x="9" y="-410.641" font-family="Times Roman,serif" font-size="14.00">_layout</text>
<text text-anchor="start" x="9" y="-391.641" font-family="Times Roman,serif" font-size="14.00">party_creation_params</text>
<text text-anchor="start" x="9" y="-372.641" font-family="Times Roman,serif" font-size="14.00">party_params</text>
</g>
<!-- ApplicationController&#45;&gt;PartiesController -->
<g id="edge6" class="edge"><title>ApplicationController&#45;&gt;PartiesController</title>
<path fill="none" stroke="black" d="M182.045,-401.548C170.079,-415.505 157.399,-430.295 145.08,-444.664"/>
</g>
<!-- WelcomeController -->
<g id="node6" class="node"><title>WelcomeController</title>
<polyline fill="none" stroke="black" points="266.504,-500.018 373.504,-500.018 "/>
<path fill="none" stroke="black" d="M373.504,-500.018C379.504,-500.018 385.504,-506.018 385.504,-512.018"/>
<polyline fill="none" stroke="black" points="385.504,-512.018 385.504,-593.018 "/>
<path fill="none" stroke="black" d="M385.504,-593.018C385.504,-599.018 379.504,-605.018 373.504,-605.018"/>
<polyline fill="none" stroke="black" points="373.504,-605.018 266.504,-605.018 "/>
<path fill="none" stroke="black" d="M266.504,-605.018C260.504,-605.018 254.504,-599.018 254.504,-593.018"/>
<polyline fill="none" stroke="black" points="254.504,-593.018 254.504,-512.018 "/>
<path fill="none" stroke="black" d="M254.504,-512.018C254.504,-506.018 260.504,-500.018 266.504,-500.018"/>
<text text-anchor="middle" x="320.004" y="-588.418" font-family="Times Roman,serif" font-size="14.00">WelcomeController</text>
<polyline fill="none" stroke="black" points="254.504,-578.018 385.504,-578.018 "/>
<text text-anchor="start" x="262.504" y="-561.418" font-family="Times Roman,serif" font-size="14.00">index</text>
<polyline fill="none" stroke="black" points="254.504,-551.018 385.504,-551.018 "/>
<polyline fill="none" stroke="black" points="254.504,-527.018 385.504,-527.018 "/>
<text text-anchor="start" x="262.504" y="-510.418" font-family="Times Roman,serif" font-size="14.00">_layout</text>
</g>
<!-- ApplicationController&#45;&gt;WelcomeController -->
<g id="edge10" class="edge"><title>ApplicationController&#45;&gt;WelcomeController</title>
<path fill="none" stroke="black" d="M266.898,-401.685C278.116,-433.549 291.157,-470.586 301.508,-499.984"/>
</g>
<!-- Users::OmniauthCallbacksController -->
<g id="node5" class="node"><title>Users::OmniauthCallbacksController</title>
<polyline fill="none" stroke="black" points="397,-289.5 599,-289.5 "/>
<path fill="none" stroke="black" d="M599,-289.5C605,-289.5 611,-295.5 611,-301.5"/>
<polyline fill="none" stroke="black" points="611,-301.5 611,-404.5 "/>
<path fill="none" stroke="black" d="M611,-404.5C611,-410.5 605,-416.5 599,-416.5"/>
<polyline fill="none" stroke="black" points="599,-416.5 397,-416.5 "/>
<path fill="none" stroke="black" d="M397,-416.5C391,-416.5 385,-410.5 385,-404.5"/>
<polyline fill="none" stroke="black" points="385,-404.5 385,-301.5 "/>
<path fill="none" stroke="black" d="M385,-301.5C385,-295.5 391,-289.5 397,-289.5"/>
<text text-anchor="middle" x="498" y="-399.9" font-family="Times Roman,serif" font-size="14.00">Users::OmniauthCallbacksController</text>
<polyline fill="none" stroke="black" points="385,-389.5 611,-389.5 "/>
<text text-anchor="start" x="393" y="-372.9" font-family="Times Roman,serif" font-size="14.00">facebook</text>
<text text-anchor="start" x="393" y="-353.9" font-family="Times Roman,serif" font-size="14.00">vkontakte</text>
<polyline fill="none" stroke="black" points="385,-343.5 611,-343.5 "/>
<text text-anchor="start" x="393" y="-326.9" font-family="Times Roman,serif" font-size="14.00">auth</text>
<polyline fill="none" stroke="black" points="385,-316.5 611,-316.5 "/>
<text text-anchor="start" x="393" y="-299.9" font-family="Times Roman,serif" font-size="14.00">_layout</text>
</g>
<!-- Devise::OmniauthCallbacksController -->
<g id="node10" class="node"><title>Devise::OmniauthCallbacksController</title>
<ellipse fill="none" stroke="black" cx="785.448" cy="-353" rx="164.756" ry="19.0919"/>
<text text-anchor="middle" x="785.448" y="-349.9" font-family="Times Roman,serif" font-size="14.00">Devise::OmniauthCallbacksController</text>
</g>
<!-- Devise::OmniauthCallbacksController&#45;&gt;Users::OmniauthCallbacksController -->
<g id="edge8" class="edge"><title>Devise::OmniauthCallbacksController&#45;&gt;Users::OmniauthCallbacksController</title>
<path fill="none" stroke="black" d="M620.321,-353C617.318,-353 614.328,-353 611.356,-353"/>
</g>
</g>
</svg>
