<?xml version="1.0" encoding="UTF-8" standalone="no"?>
<!DOCTYPE svg PUBLIC "-//W3C//DTD SVG 1.1//EN"
 "http://www.w3.org/Graphics/SVG/1.1/DTD/svg11.dtd">
<!-- Generated by graphviz version 2.36.0 (20140111.2315)
 -->
<!-- Title: models_diagram Pages: 1 -->
<svg width="558pt" height="308pt"
 viewBox="0.00 0.00 558.00 308.00" xmlns="http://www.w3.org/2000/svg" xmlns:xlink="http://www.w3.org/1999/xlink">
<g id="graph0" class="graph" transform="scale(1 1) rotate(0) translate(4 304)">
<title>models_diagram</title>
<polygon fill="white" stroke="none" points="-4,4 -4,-304 554,-304 554,4 -4,4"/>
<!-- _diagram_info -->
<g id="node1" class="node"><title>_diagram_info</title>
<text text-anchor="start" x="8" y="-285.6" font-family="Times,serif" font-size="13.00">Models diagram</text>
<text text-anchor="start" x="8" y="-271.6" font-family="Times,serif" font-size="13.00">Date: Oct 09 2014 &#45; 19:10</text>
<text text-anchor="start" x="8" y="-257.6" font-family="Times,serif" font-size="13.00">Migration version: 20141007173346</text>
<text text-anchor="start" x="8" y="-243.6" font-family="Times,serif" font-size="13.00">Generated by RailRoady 1.1.1</text>
<text text-anchor="start" x="8" y="-229.6" font-family="Times,serif" font-size="13.00">http://railroady.prestonlee.com</text>
</g>
<!-- AdminUser -->
<g id="node2" class="node"><title>AdminUser</title>
<ellipse fill="none" stroke="black" cx="147" cy="-166" rx="51.4931" ry="18"/>
<text text-anchor="middle" x="147" y="-162.3" font-family="Times,serif" font-size="14.00">AdminUser</text>
</g>
<!-- User -->
<g id="node3" class="node"><title>User</title>
<ellipse fill="none" stroke="black" cx="282" cy="-166" rx="26.949" ry="18"/>
<text text-anchor="middle" x="282" y="-162.3" font-family="Times,serif" font-size="14.00">User</text>
</g>
<!-- Profile -->
<g id="node5" class="node"><title>Profile</title>
<ellipse fill="none" stroke="black" cx="212" cy="-92" rx="34.1708" ry="18"/>
<text text-anchor="middle" x="212" y="-88.3" font-family="Times,serif" font-size="14.00">Profile</text>
</g>
<!-- User&#45;&gt;Profile -->
<g id="edge2" class="edge"><title>User&#45;&gt;Profile</title>
<path fill="none" stroke="#ac7c9a" d="M262.231,-144.666C252.931,-135.101 241.849,-123.702 232.463,-114.048"/>
<ellipse fill="none" stroke="#ac7c9a" cx="265.046" cy="-147.562" rx="4.00002" ry="4.00002"/>
<ellipse fill="#ac7c9a" stroke="#ac7c9a" cx="229.658" cy="-111.162" rx="4.00002" ry="4.00002"/>
</g>
<!-- Party -->
<g id="node7" class="node"><title>Party</title>
<ellipse fill="none" stroke="black" cx="403" cy="-92" rx="29.3722" ry="18"/>
<text text-anchor="middle" x="403" y="-88.3" font-family="Times,serif" font-size="14.00">Party</text>
</g>
<!-- User&#45;&gt;Party -->
<g id="edge3" class="edge"><title>User&#45;&gt;Party</title>
<path fill="none" stroke="#927e34" d="M308.355,-149.318C327.763,-137.769 354.14,-122.073 374.119,-110.185"/>
<ellipse fill="none" stroke="#927e34" cx="304.878" cy="-151.386" rx="4.00002" ry="4.00002"/>
<polygon fill="#927e34" stroke="#927e34" points="374.207,-110.133 385.102,-108.887 378.504,-107.576 382.801,-105.02 382.801,-105.02 382.801,-105.02 378.504,-107.576 380.499,-101.152 374.207,-110.133 374.207,-110.133"/>
</g>
<!-- Guest -->
<g id="node8" class="node"><title>Guest</title>
<ellipse fill="none" stroke="black" cx="403" cy="-18" rx="31.2965" ry="18"/>
<text text-anchor="middle" x="403" y="-14.3" font-family="Times,serif" font-size="14.00">Guest</text>
</g>
<!-- User&#45;&gt;Guest -->
<g id="edge4" class="edge"><title>User&#45;&gt;Guest</title>
<path fill="none" stroke="#d06f47" d="M278.251,-139.722C276.715,-120.092 277.758,-93.0901 291,-74 308.058,-49.4081 339.326,-35.3406 364.497,-27.6005"/>
<ellipse fill="none" stroke="#d06f47" cx="278.672" cy="-143.923" rx="4" ry="4"/>
<polygon fill="#d06f47" stroke="#d06f47" points="364.536,-27.5895 375.387,-29.1697 369.343,-26.2161 374.151,-24.8428 374.151,-24.8428 374.151,-24.8428 369.343,-26.2161 372.915,-20.5159 364.536,-27.5895 364.536,-27.5895"/>
<text text-anchor="middle" x="328" y="-88.3" font-family="Times,serif" font-size="14.00">participations</text>
</g>
<!-- Ability -->
<g id="node4" class="node"><title>Ability</title>
<polygon fill="none" stroke="black" points="543.25,-184 488.75,-184 488.75,-148 543.25,-148 543.25,-184"/>
<text text-anchor="middle" x="516" y="-162.3" font-family="Times,serif" font-size="14.00">Ability</text>
</g>
<!-- Type -->
<g id="node6" class="node"><title>Type</title>
<ellipse fill="none" stroke="black" cx="356" cy="-166" rx="28.3955" ry="18"/>
<text text-anchor="middle" x="356" y="-162.3" font-family="Times,serif" font-size="14.00">Type</text>
</g>
<!-- Type&#45;&gt;Party -->
<g id="edge8" class="edge"><title>Type&#45;&gt;Party</title>
<path fill="none" stroke="#40ec5f" d="M370.869,-142.222C376.004,-134.355 381.778,-125.51 387,-117.51"/>
<ellipse fill="none" stroke="#40ec5f" cx="368.617" cy="-145.671" rx="4.00002" ry="4.00002"/>
<polygon fill="#40ec5f" stroke="#40ec5f" points="387.132,-117.308 396.367,-111.394 389.865,-113.121 392.598,-108.934 392.598,-108.934 392.598,-108.934 389.865,-113.121 388.83,-106.475 387.132,-117.308 387.132,-117.308"/>
</g>
<!-- Party&#45;&gt;Guest -->
<g id="edge10" class="edge"><title>Party&#45;&gt;Guest</title>
<path fill="none" stroke="#c80991" d="M403,-65.7923C403,-59.5805 403,-52.8963 403,-46.5786"/>
<ellipse fill="none" stroke="#c80991" cx="403" cy="-69.937" rx="4" ry="4"/>
<polygon fill="#c80991" stroke="#c80991" points="403,-46.4407 407.5,-36.4406 403,-41.4407 403,-36.4407 403,-36.4407 403,-36.4407 403,-41.4407 398.5,-36.4407 403,-46.4407 403,-46.4407"/>
</g>
<!-- ActiveRecord::Base -->
<g id="node9" class="node"><title>ActiveRecord::Base</title>
<ellipse fill="none" stroke="black" cx="313" cy="-261" rx="81.3646" ry="18"/>
<text text-anchor="middle" x="313" y="-257.3" font-family="Times,serif" font-size="14.00">ActiveRecord::Base</text>
</g>
<!-- ActiveRecord::Base&#45;&gt;AdminUser -->
<g id="edge1" class="edge"><title>ActiveRecord::Base&#45;&gt;AdminUser</title>
<path fill="none" stroke="black" d="M284.549,-244.072C264.537,-232.867 237.129,-217.519 213,-204 199.821,-196.616 185.164,-188.399 173.016,-181.589"/>
</g>
<!-- ActiveRecord::Base&#45;&gt;User -->
<g id="edge5" class="edge"><title>ActiveRecord::Base&#45;&gt;User</title>
<path fill="none" stroke="black" d="M307.314,-242.942C301.686,-226.057 293.125,-200.374 287.546,-183.637"/>
</g>
<!-- ActiveRecord::Base&#45;&gt;Profile -->
<g id="edge7" class="edge"><title>ActiveRecord::Base&#45;&gt;Profile</title>
<path fill="none" stroke="black" d="M295.029,-243.34C280.237,-228.833 259.566,-206.629 246,-184 231.605,-159.988 221.582,-128.854 216.314,-109.93"/>
</g>
<!-- ActiveRecord::Base&#45;&gt;Type -->
<g id="edge9" class="edge"><title>ActiveRecord::Base&#45;&gt;Type</title>
<path fill="none" stroke="black" d="M320.887,-242.942C328.694,-226.057 340.569,-200.374 348.308,-183.637"/>
</g>
<!-- ActiveRecord::Base&#45;&gt;Party -->
<g id="edge11" class="edge"><title>ActiveRecord::Base&#45;&gt;Party</title>
<path fill="none" stroke="black" d="M337.737,-243.843C356.303,-230.255 380.577,-209.059 393,-184 404.719,-160.362 405.444,-129.116 404.506,-110.069"/>
</g>
<!-- ActiveRecord::Base&#45;&gt;Guest -->
<g id="edge12" class="edge"><title>ActiveRecord::Base&#45;&gt;Guest</title>
<path fill="none" stroke="black" d="M340.173,-244.026C356.812,-233.634 378.085,-219.221 395,-204 429.574,-172.888 432.364,-155.703 441,-110 443.971,-94.2782 445.763,-89.2745 441,-74 436.37,-59.1532 426.175,-44.7798 417.51,-34.4522"/>
</g>
<!-- Object -->
<g id="node10" class="node"><title>Object</title>
<ellipse fill="none" stroke="black" cx="516" cy="-261" rx="34.1708" ry="18"/>
<text text-anchor="middle" x="516" y="-257.3" font-family="Times,serif" font-size="14.00">Object</text>
</g>
<!-- Object&#45;&gt;Ability -->
<g id="edge6" class="edge"><title>Object&#45;&gt;Ability</title>
<path fill="none" stroke="black" d="M516,-242.942C516,-226.267 516,-201.01 516,-184.264"/>
</g>
</g>
</svg>
