<?xml version="1.0" encoding="UTF-8" standalone="no"?>
<!DOCTYPE svg PUBLIC "-//W3C//DTD SVG 1.1//EN"
 "http://www.w3.org/Graphics/SVG/1.1/DTD/svg11.dtd">
<!-- Generated by graphviz version 2.26.3 (20100126.1600)
 -->
<!-- Title: models_diagram Pages: 1 -->
<svg width="894pt" height="1124pt"
 viewBox="0.00 0.00 893.60 1124.00" xmlns="http://www.w3.org/2000/svg" xmlns:xlink="http://www.w3.org/1999/xlink">
<g id="graph1" class="graph" transform="scale(1 1) rotate(0) translate(4 1120)">
<title>models_diagram</title>
<polygon fill="white" stroke="white" points="-4,5 -4,-1120 890.599,-1120 890.599,5 -4,5"/>
<!-- Guest -->
<g id="node1" class="node"><title>Guest</title>
<polyline fill="none" stroke="black" points="54.099,-19.5 165.099,-19.5 "/>
<path fill="none" stroke="black" d="M165.099,-19.5C171.099,-19.5 177.099,-25.5 177.099,-31.5"/>
<polyline fill="none" stroke="black" points="177.099,-31.5 177.099,-156.5 "/>
<path fill="none" stroke="black" d="M177.099,-156.5C177.099,-162.5 171.099,-168.5 165.099,-168.5"/>
<polyline fill="none" stroke="black" points="165.099,-168.5 54.099,-168.5 "/>
<path fill="none" stroke="black" d="M54.099,-168.5C48.099,-168.5 42.099,-162.5 42.099,-156.5"/>
<polyline fill="none" stroke="black" points="42.099,-156.5 42.099,-31.5 "/>
<path fill="none" stroke="black" d="M42.099,-31.5C42.099,-25.5 48.099,-19.5 54.099,-19.5"/>
<text text-anchor="middle" x="109.599" y="-151.9" font-family="Times Roman,serif" font-size="14.00">Guest</text>
<polyline fill="none" stroke="black" points="42.099,-141.5 177.099,-141.5 "/>
<text text-anchor="start" x="50.099" y="-124.9" font-family="Times Roman,serif" font-size="14.00">id :integer</text>
<text text-anchor="start" x="50.099" y="-105.9" font-family="Times Roman,serif" font-size="14.00">party_id :integer</text>
<text text-anchor="start" x="50.099" y="-86.9" font-family="Times Roman,serif" font-size="14.00">user_id :integer</text>
<text text-anchor="start" x="50.099" y="-67.9" font-family="Times Roman,serif" font-size="14.00">accepted :boolean</text>
<text text-anchor="start" x="50.099" y="-48.9" font-family="Times Roman,serif" font-size="14.00">created_at :datetime</text>
<text text-anchor="start" x="50.099" y="-29.9" font-family="Times Roman,serif" font-size="14.00">updated_at :datetime</text>
</g>
<!-- Ability -->
<g id="node2" class="node"><title>Ability</title>
<polygon fill="none" stroke="black" points="818.599,-852 818.599,-906 874.599,-906 874.599,-852 818.599,-852"/>
<text text-anchor="middle" x="846.599" y="-889.4" font-family="Times Roman,serif" font-size="14.00">Ability</text>
<polyline fill="none" stroke="black" points="818.599,-879 874.599,-879 "/>
<text text-anchor="middle" x="846.599" y="-862.4" font-family="Times Roman,serif" font-size="14.00"> </text>
</g>
<!-- Comment -->
<g id="node3" class="node"><title>Comment</title>
<polyline fill="none" stroke="black" points="323.599,-0.5 463.599,-0.5 "/>
<path fill="none" stroke="black" d="M463.599,-0.5C469.599,-0.5 475.599,-6.5 475.599,-12.5"/>
<polyline fill="none" stroke="black" points="475.599,-12.5 475.599,-175.5 "/>
<path fill="none" stroke="black" d="M475.599,-175.5C475.599,-181.5 469.599,-187.5 463.599,-187.5"/>
<polyline fill="none" stroke="black" points="463.599,-187.5 323.599,-187.5 "/>
<path fill="none" stroke="black" d="M323.599,-187.5C317.599,-187.5 311.599,-181.5 311.599,-175.5"/>
<polyline fill="none" stroke="black" points="311.599,-175.5 311.599,-12.5 "/>
<path fill="none" stroke="black" d="M311.599,-12.5C311.599,-6.5 317.599,-0.5 323.599,-0.5"/>
<text text-anchor="middle" x="393.599" y="-170.9" font-family="Times Roman,serif" font-size="14.00">Comment</text>
<polyline fill="none" stroke="black" points="311.599,-160.5 475.599,-160.5 "/>
<text text-anchor="start" x="319.599" y="-143.9" font-family="Times Roman,serif" font-size="14.00">id :integer</text>
<text text-anchor="start" x="319.599" y="-124.9" font-family="Times Roman,serif" font-size="14.00">comment :text</text>
<text text-anchor="start" x="319.599" y="-105.9" font-family="Times Roman,serif" font-size="14.00">commentable_id :integer</text>
<text text-anchor="start" x="319.599" y="-86.9" font-family="Times Roman,serif" font-size="14.00">commentable_type :string</text>
<text text-anchor="start" x="319.599" y="-67.9" font-family="Times Roman,serif" font-size="14.00">user_id :integer</text>
<text text-anchor="start" x="319.599" y="-48.9" font-family="Times Roman,serif" font-size="14.00">role :string</text>
<text text-anchor="start" x="319.599" y="-29.9" font-family="Times Roman,serif" font-size="14.00">created_at :datetime</text>
<text text-anchor="start" x="319.599" y="-10.9" font-family="Times Roman,serif" font-size="14.00">updated_at :datetime</text>
</g>
<!-- User -->
<g id="node4" class="node"><title>User</title>
<polyline fill="none" stroke="black" points="237.599,-719 419.599,-719 "/>
<path fill="none" stroke="black" d="M419.599,-719C425.599,-719 431.599,-725 431.599,-731"/>
<polyline fill="none" stroke="black" points="431.599,-731 431.599,-1027 "/>
<path fill="none" stroke="black" d="M431.599,-1027C431.599,-1033 425.599,-1039 419.599,-1039"/>
<polyline fill="none" stroke="black" points="419.599,-1039 237.599,-1039 "/>
<path fill="none" stroke="black" d="M237.599,-1039C231.599,-1039 225.599,-1033 225.599,-1027"/>
<polyline fill="none" stroke="black" points="225.599,-1027 225.599,-731 "/>
<path fill="none" stroke="black" d="M225.599,-731C225.599,-725 231.599,-719 237.599,-719"/>
<text text-anchor="middle" x="328.599" y="-1022.4" font-family="Times Roman,serif" font-size="14.00">User</text>
<polyline fill="none" stroke="black" points="225.599,-1012 431.599,-1012 "/>
<text text-anchor="start" x="233.599" y="-995.4" font-family="Times Roman,serif" font-size="14.00">id :integer</text>
<text text-anchor="start" x="233.599" y="-976.4" font-family="Times Roman,serif" font-size="14.00">email :string</text>
<text text-anchor="start" x="233.599" y="-957.4" font-family="Times Roman,serif" font-size="14.00">encrypted_password :string</text>
<text text-anchor="start" x="233.599" y="-938.4" font-family="Times Roman,serif" font-size="14.00">reset_password_token :string</text>
<text text-anchor="start" x="233.599" y="-919.4" font-family="Times Roman,serif" font-size="14.00">reset_password_sent_at :datetime</text>
<text text-anchor="start" x="233.599" y="-900.4" font-family="Times Roman,serif" font-size="14.00">remember_created_at :datetime</text>
<text text-anchor="start" x="233.599" y="-881.4" font-family="Times Roman,serif" font-size="14.00">sign_in_count :integer</text>
<text text-anchor="start" x="233.599" y="-862.4" font-family="Times Roman,serif" font-size="14.00">current_sign_in_at :datetime</text>
<text text-anchor="start" x="233.599" y="-843.4" font-family="Times Roman,serif" font-size="14.00">last_sign_in_at :datetime</text>
<text text-anchor="start" x="233.599" y="-824.4" font-family="Times Roman,serif" font-size="14.00">current_sign_in_ip :string</text>
<text text-anchor="start" x="233.599" y="-805.4" font-family="Times Roman,serif" font-size="14.00">last_sign_in_ip :string</text>
<text text-anchor="start" x="233.599" y="-786.4" font-family="Times Roman,serif" font-size="14.00">created_at :datetime</text>
<text text-anchor="start" x="233.599" y="-767.4" font-family="Times Roman,serif" font-size="14.00">updated_at :datetime</text>
<text text-anchor="start" x="233.599" y="-748.4" font-family="Times Roman,serif" font-size="14.00">provider :string</text>
<text text-anchor="start" x="233.599" y="-729.4" font-family="Times Roman,serif" font-size="14.00">uid :string</text>
</g>
<!-- User&#45;&gt;Guest -->
<g id="edge12" class="edge"><title>User&#45;&gt;Guest</title>
<path fill="none" stroke="#96f56b" d="M253.524,-711.281C250.174,-700.806 247.154,-690.326 244.599,-680 195.956,-483.407 276.419,-415.735 205.599,-226 199.328,-209.201 190.292,-192.641 180.24,-177.229"/>
<ellipse fill="none" stroke="#96f56b" cx="254.776" cy="-715.103" rx="4.00001" ry="4.00001"/>
<polygon fill="#96f56b" stroke="#96f56b" points="180.145,-177.087 178.296,-166.278 177.354,-172.939 174.562,-168.79 174.562,-168.79 174.562,-168.79 177.354,-172.939 170.829,-171.302 180.145,-177.087 180.145,-177.087"/>
<text text-anchor="middle" x="282.599" y="-449.9" font-family="Times Roman,serif" font-size="14.00">participations</text>
</g>
<!-- User&#45;&gt;Comment -->
<g id="edge14" class="edge"><title>User&#45;&gt;Comment</title>
<path fill="none" stroke="#bbb71d" d="M324.575,-710.671C324.043,-578.139 329.128,-389.185 355.599,-226 357.101,-216.74 359.039,-207.21 361.243,-197.71"/>
<ellipse fill="none" stroke="#bbb71d" cx="324.595" cy="-714.921" rx="4" ry="4"/>
<polygon fill="#bbb71d" stroke="#bbb71d" points="361.28,-197.555 368.003,-188.891 362.454,-192.695 363.628,-187.835 363.628,-187.835 363.628,-187.835 362.454,-192.695 359.254,-186.778 361.28,-197.555 361.28,-197.555"/>
</g>
<!-- Party -->
<g id="node5" class="node"><title>Party</title>
<polyline fill="none" stroke="black" points="34.099,-264.5 185.099,-264.5 "/>
<path fill="none" stroke="black" d="M185.099,-264.5C191.099,-264.5 197.099,-270.5 197.099,-276.5"/>
<polyline fill="none" stroke="black" points="197.099,-276.5 197.099,-629.5 "/>
<path fill="none" stroke="black" d="M197.099,-629.5C197.099,-635.5 191.099,-641.5 185.099,-641.5"/>
<polyline fill="none" stroke="black" points="185.099,-641.5 34.099,-641.5 "/>
<path fill="none" stroke="black" d="M34.099,-641.5C28.099,-641.5 22.099,-635.5 22.099,-629.5"/>
<polyline fill="none" stroke="black" points="22.099,-629.5 22.099,-276.5 "/>
<path fill="none" stroke="black" d="M22.099,-276.5C22.099,-270.5 28.099,-264.5 34.099,-264.5"/>
<text text-anchor="middle" x="109.599" y="-624.9" font-family="Times Roman,serif" font-size="14.00">Party</text>
<polyline fill="none" stroke="black" points="22.099,-614.5 197.099,-614.5 "/>
<text text-anchor="start" x="30.099" y="-597.9" font-family="Times Roman,serif" font-size="14.00">id :integer</text>
<text text-anchor="start" x="30.099" y="-578.9" font-family="Times Roman,serif" font-size="14.00">title :string</text>
<text text-anchor="start" x="30.099" y="-559.9" font-family="Times Roman,serif" font-size="14.00">summary :text</text>
<text text-anchor="start" x="30.099" y="-540.9" font-family="Times Roman,serif" font-size="14.00">coord_longitude :float</text>
<text text-anchor="start" x="30.099" y="-521.9" font-family="Times Roman,serif" font-size="14.00">coord_latitude :float</text>
<text text-anchor="start" x="30.099" y="-502.9" font-family="Times Roman,serif" font-size="14.00">date :date</text>
<text text-anchor="start" x="30.099" y="-483.9" font-family="Times Roman,serif" font-size="14.00">host_id :integer</text>
<text text-anchor="start" x="30.099" y="-464.9" font-family="Times Roman,serif" font-size="14.00">type_id :integer</text>
<text text-anchor="start" x="30.099" y="-445.9" font-family="Times Roman,serif" font-size="14.00">created_at :datetime</text>
<text text-anchor="start" x="30.099" y="-426.9" font-family="Times Roman,serif" font-size="14.00">updated_at :datetime</text>
<text text-anchor="start" x="30.099" y="-407.9" font-family="Times Roman,serif" font-size="14.00">blocked :boolean</text>
<text text-anchor="start" x="30.099" y="-388.9" font-family="Times Roman,serif" font-size="14.00">block_message :text</text>
<text text-anchor="start" x="30.099" y="-369.9" font-family="Times Roman,serif" font-size="14.00">address :string</text>
<text text-anchor="start" x="30.099" y="-350.9" font-family="Times Roman,serif" font-size="14.00">address_hidden :boolean</text>
<text text-anchor="start" x="30.099" y="-331.9" font-family="Times Roman,serif" font-size="14.00">avatar_file_name :string</text>
<text text-anchor="start" x="30.099" y="-312.9" font-family="Times Roman,serif" font-size="14.00">avatar_content_type :string</text>
<text text-anchor="start" x="30.099" y="-293.9" font-family="Times Roman,serif" font-size="14.00">avatar_file_size :integer</text>
<text text-anchor="start" x="30.099" y="-274.9" font-family="Times Roman,serif" font-size="14.00">avatar_updated_at :datetime</text>
</g>
<!-- User&#45;&gt;Party -->
<g id="edge10" class="edge"><title>User&#45;&gt;Party</title>
<path fill="none" stroke="#599f6f" d="M224.621,-711.292C222.572,-707.507 220.562,-703.739 218.599,-700 210.329,-684.242 202.114,-667.725 194.12,-651.02"/>
<ellipse fill="none" stroke="#599f6f" cx="226.69" cy="-715.08" rx="4.00002" ry="4.00002"/>
<polygon fill="#599f6f" stroke="#599f6f" points="193.995,-650.756 193.767,-639.793 191.849,-646.24 189.703,-641.724 189.703,-641.724 189.703,-641.724 191.849,-646.24 185.638,-643.656 193.995,-650.756 193.995,-650.756"/>
</g>
<!-- Profile -->
<g id="node6" class="node"><title>Profile</title>
<polyline fill="none" stroke="black" points="376.099,-226.5 527.099,-226.5 "/>
<path fill="none" stroke="black" d="M527.099,-226.5C533.099,-226.5 539.099,-232.5 539.099,-238.5"/>
<polyline fill="none" stroke="black" points="539.099,-238.5 539.099,-667.5 "/>
<path fill="none" stroke="black" d="M539.099,-667.5C539.099,-673.5 533.099,-679.5 527.099,-679.5"/>
<polyline fill="none" stroke="black" points="527.099,-679.5 376.099,-679.5 "/>
<path fill="none" stroke="black" d="M376.099,-679.5C370.099,-679.5 364.099,-673.5 364.099,-667.5"/>
<polyline fill="none" stroke="black" points="364.099,-667.5 364.099,-238.5 "/>
<path fill="none" stroke="black" d="M364.099,-238.5C364.099,-232.5 370.099,-226.5 376.099,-226.5"/>
<text text-anchor="middle" x="451.599" y="-662.9" font-family="Times Roman,serif" font-size="14.00">Profile</text>
<polyline fill="none" stroke="black" points="364.099,-652.5 539.099,-652.5 "/>
<text text-anchor="start" x="372.099" y="-635.9" font-family="Times Roman,serif" font-size="14.00">id :integer</text>
<text text-anchor="start" x="372.099" y="-616.9" font-family="Times Roman,serif" font-size="14.00">name :string</text>
<text text-anchor="start" x="372.099" y="-597.9" font-family="Times Roman,serif" font-size="14.00">surname :string</text>
<text text-anchor="start" x="372.099" y="-578.9" font-family="Times Roman,serif" font-size="14.00">photo :string</text>
<text text-anchor="start" x="372.099" y="-559.9" font-family="Times Roman,serif" font-size="14.00">birthday :date</text>
<text text-anchor="start" x="372.099" y="-540.9" font-family="Times Roman,serif" font-size="14.00">contacts :text</text>
<text text-anchor="start" x="372.099" y="-521.9" font-family="Times Roman,serif" font-size="14.00">user_id :integer</text>
<text text-anchor="start" x="372.099" y="-502.9" font-family="Times Roman,serif" font-size="14.00">created_at :datetime</text>
<text text-anchor="start" x="372.099" y="-483.9" font-family="Times Roman,serif" font-size="14.00">updated_at :datetime</text>
<text text-anchor="start" x="372.099" y="-464.9" font-family="Times Roman,serif" font-size="14.00">birthday_hidden :boolean</text>
<text text-anchor="start" x="372.099" y="-445.9" font-family="Times Roman,serif" font-size="14.00">skype :string</text>
<text text-anchor="start" x="372.099" y="-426.9" font-family="Times Roman,serif" font-size="14.00">skype_hidden :boolean</text>
<text text-anchor="start" x="372.099" y="-407.9" font-family="Times Roman,serif" font-size="14.00">phone :string</text>
<text text-anchor="start" x="372.099" y="-388.9" font-family="Times Roman,serif" font-size="14.00">phone_hidden :boolean</text>
<text text-anchor="start" x="372.099" y="-369.9" font-family="Times Roman,serif" font-size="14.00">vk :string</text>
<text text-anchor="start" x="372.099" y="-350.9" font-family="Times Roman,serif" font-size="14.00">vk_hidden :boolean</text>
<text text-anchor="start" x="372.099" y="-331.9" font-family="Times Roman,serif" font-size="14.00">fb :string</text>
<text text-anchor="start" x="372.099" y="-312.9" font-family="Times Roman,serif" font-size="14.00">fb_hidden :boolean</text>
<text text-anchor="start" x="372.099" y="-293.9" font-family="Times Roman,serif" font-size="14.00">avatar_file_name :string</text>
<text text-anchor="start" x="372.099" y="-274.9" font-family="Times Roman,serif" font-size="14.00">avatar_content_type :string</text>
<text text-anchor="start" x="372.099" y="-255.9" font-family="Times Roman,serif" font-size="14.00">avatar_file_size :integer</text>
<text text-anchor="start" x="372.099" y="-236.9" font-family="Times Roman,serif" font-size="14.00">avatar_updated_at :datetime</text>
</g>
<!-- User&#45;&gt;Profile -->
<g id="edge8" class="edge"><title>User&#45;&gt;Profile</title>
<path fill="none" stroke="#a2d24e" d="M377.109,-710.989C379.346,-703.241 381.607,-695.41 383.88,-687.539"/>
<ellipse fill="none" stroke="#a2d24e" cx="375.947" cy="-715.015" rx="4.00001" ry="4.00001"/>
<ellipse fill="#a2d24e" stroke="#a2d24e" cx="385.046" cy="-683.5" rx="4.00001" ry="4.00001"/>
</g>
<!-- Party&#45;&gt;Guest -->
<g id="edge18" class="edge"><title>Party&#45;&gt;Guest</title>
<path fill="none" stroke="#2bcf6d" d="M109.599,-255.948C109.599,-228.852 109.599,-202.296 109.599,-178.779"/>
<ellipse fill="none" stroke="#2bcf6d" cx="109.599" cy="-260.301" rx="4" ry="4"/>
<polygon fill="#2bcf6d" stroke="#2bcf6d" points="109.599,-178.546 114.099,-168.546 109.599,-173.546 109.599,-168.546 109.599,-168.546 109.599,-168.546 109.599,-173.546 105.099,-168.546 109.599,-178.546 109.599,-178.546"/>
</g>
<!-- Party&#45;&gt;Comment -->
<g id="edge20" class="edge"><title>Party&#45;&gt;Comment</title>
<path fill="none" stroke="#154386" d="M188.114,-257.428C195.111,-246.417 202.603,-235.842 210.599,-226 235.995,-194.741 270.509,-167.299 302.72,-145.651"/>
<ellipse fill="none" stroke="#154386" cx="185.932" cy="-260.939" rx="4.00002" ry="4.00002"/>
<polygon fill="#154386" stroke="#154386" points="302.949,-145.5 313.773,-143.742 307.121,-142.743 311.292,-139.987 311.292,-139.987 311.292,-139.987 307.121,-142.743 308.812,-136.233 302.949,-145.5 302.949,-145.5"/>
</g>
<!-- Profile&#45;&gt;Comment -->
<g id="edge24" class="edge"><title>Profile&#45;&gt;Comment</title>
<path fill="none" stroke="#247766" d="M413.677,-218.275C412.557,-211.344 411.457,-204.535 410.384,-197.894"/>
<ellipse fill="none" stroke="#247766" cx="414.352" cy="-222.455" rx="4.00001" ry="4.00001"/>
<polygon fill="#247766" stroke="#247766" points="410.317,-197.477 413.164,-186.888 409.519,-192.541 408.722,-187.605 408.722,-187.605 408.722,-187.605 409.519,-192.541 404.279,-188.323 410.317,-197.477 410.317,-197.477"/>
</g>
<!-- Type -->
<g id="node7" class="node"><title>Type</title>
<polyline fill="none" stroke="black" points="111.599,-833 195.599,-833 "/>
<path fill="none" stroke="black" d="M195.599,-833C201.599,-833 207.599,-839 207.599,-845"/>
<polyline fill="none" stroke="black" points="207.599,-845 207.599,-913 "/>
<path fill="none" stroke="black" d="M207.599,-913C207.599,-919 201.599,-925 195.599,-925"/>
<polyline fill="none" stroke="black" points="195.599,-925 111.599,-925 "/>
<path fill="none" stroke="black" d="M111.599,-925C105.599,-925 99.599,-919 99.599,-913"/>
<polyline fill="none" stroke="black" points="99.599,-913 99.599,-845 "/>
<path fill="none" stroke="black" d="M99.599,-845C99.599,-839 105.599,-833 111.599,-833"/>
<text text-anchor="middle" x="153.599" y="-908.4" font-family="Times Roman,serif" font-size="14.00">Type</text>
<polyline fill="none" stroke="black" points="99.599,-898 207.599,-898 "/>
<text text-anchor="start" x="107.599" y="-881.4" font-family="Times Roman,serif" font-size="14.00">id :integer</text>
<text text-anchor="start" x="107.599" y="-862.4" font-family="Times Roman,serif" font-size="14.00">title :string</text>
<text text-anchor="start" x="107.599" y="-843.4" font-family="Times Roman,serif" font-size="14.00">description :text</text>
</g>
<!-- Type&#45;&gt;Party -->
<g id="edge28" class="edge"><title>Type&#45;&gt;Party</title>
<path fill="none" stroke="#9c80ac" d="M147.968,-824.477C143.407,-780.321 136.686,-715.248 130.138,-651.853"/>
<ellipse fill="none" stroke="#9c80ac" cx="148.395" cy="-828.621" rx="4" ry="4"/>
<polygon fill="#9c80ac" stroke="#9c80ac" points="130.116,-651.644 133.565,-641.234 129.603,-646.67 129.089,-641.697 129.089,-641.697 129.089,-641.697 129.603,-646.67 124.613,-642.159 130.116,-651.644 130.116,-651.644"/>
</g>
<!-- AdminUser -->
<g id="node8" class="node"><title>AdminUser</title>
<polyline fill="none" stroke="black" points="606.599,-738 788.599,-738 "/>
<path fill="none" stroke="black" d="M788.599,-738C794.599,-738 800.599,-744 800.599,-750"/>
<polyline fill="none" stroke="black" points="800.599,-750 800.599,-1008 "/>
<path fill="none" stroke="black" d="M800.599,-1008C800.599,-1014 794.599,-1020 788.599,-1020"/>
<polyline fill="none" stroke="black" points="788.599,-1020 606.599,-1020 "/>
<path fill="none" stroke="black" d="M606.599,-1020C600.599,-1020 594.599,-1014 594.599,-1008"/>
<polyline fill="none" stroke="black" points="594.599,-1008 594.599,-750 "/>
<path fill="none" stroke="black" d="M594.599,-750C594.599,-744 600.599,-738 606.599,-738"/>
<text text-anchor="middle" x="697.599" y="-1003.4" font-family="Times Roman,serif" font-size="14.00">AdminUser</text>
<polyline fill="none" stroke="black" points="594.599,-993 800.599,-993 "/>
<text text-anchor="start" x="602.599" y="-976.4" font-family="Times Roman,serif" font-size="14.00">id :integer</text>
<text text-anchor="start" x="602.599" y="-957.4" font-family="Times Roman,serif" font-size="14.00">email :string</text>
<text text-anchor="start" x="602.599" y="-938.4" font-family="Times Roman,serif" font-size="14.00">encrypted_password :string</text>
<text text-anchor="start" x="602.599" y="-919.4" font-family="Times Roman,serif" font-size="14.00">reset_password_token :string</text>
<text text-anchor="start" x="602.599" y="-900.4" font-family="Times Roman,serif" font-size="14.00">reset_password_sent_at :datetime</text>
<text text-anchor="start" x="602.599" y="-881.4" font-family="Times Roman,serif" font-size="14.00">remember_created_at :datetime</text>
<text text-anchor="start" x="602.599" y="-862.4" font-family="Times Roman,serif" font-size="14.00">sign_in_count :integer</text>
<text text-anchor="start" x="602.599" y="-843.4" font-family="Times Roman,serif" font-size="14.00">current_sign_in_at :datetime</text>
<text text-anchor="start" x="602.599" y="-824.4" font-family="Times Roman,serif" font-size="14.00">last_sign_in_at :datetime</text>
<text text-anchor="start" x="602.599" y="-805.4" font-family="Times Roman,serif" font-size="14.00">current_sign_in_ip :string</text>
<text text-anchor="start" x="602.599" y="-786.4" font-family="Times Roman,serif" font-size="14.00">last_sign_in_ip :string</text>
<text text-anchor="start" x="602.599" y="-767.4" font-family="Times Roman,serif" font-size="14.00">created_at :datetime</text>
<text text-anchor="start" x="602.599" y="-748.4" font-family="Times Roman,serif" font-size="14.00">updated_at :datetime</text>
</g>
<!-- ActiveRecord::Base -->
<g id="node9" class="node"><title>ActiveRecord::Base</title>
<ellipse fill="none" stroke="black" cx="328.599" cy="-1097" rx="92.1303" ry="19.0919"/>
<text text-anchor="middle" x="328.599" y="-1093.9" font-family="Times Roman,serif" font-size="14.00">ActiveRecord::Base</text>
</g>
<!-- ActiveRecord::Base&#45;&gt;Guest -->
<g id="edge2" class="edge"><title>ActiveRecord::Base&#45;&gt;Guest</title>
<path fill="none" stroke="black" d="M238.709,-1092.89C157.602,-1087.07 46.9433,-1073.13 19.599,-1040 -5.99492,-1008.99 -4.34591,-281.184 13.599,-226 20.1273,-205.924 30.9862,-186.354 43.1023,-168.695"/>
</g>
<!-- ActiveRecord::Base&#45;&gt;Comment -->
<g id="edge6" class="edge"><title>ActiveRecord::Base&#45;&gt;Comment</title>
<path fill="none" stroke="black" d="M388.637,-1082.49C428.102,-1071.69 474.739,-1056.09 487.599,-1040 588.862,-913.284 534.22,-841.654 547.599,-680 564.242,-478.91 631.913,-409.318 547.599,-226 532.296,-192.728 504.011,-164.705 475.817,-143.156"/>
</g>
<!-- ActiveRecord::Base&#45;&gt;User -->
<g id="edge16" class="edge"><title>ActiveRecord::Base&#45;&gt;User</title>
<path fill="none" stroke="black" d="M328.599,-1077.65C328.599,-1067.55 328.599,-1054.14 328.599,-1039.04"/>
</g>
<!-- ActiveRecord::Base&#45;&gt;Party -->
<g id="edge22" class="edge"><title>ActiveRecord::Base&#45;&gt;Party</title>
<path fill="none" stroke="black" d="M246.729,-1088.18C185.801,-1079.73 109.972,-1064.56 90.599,-1040 3.45641,-929.523 15.7856,-767.578 45.6662,-641.758"/>
</g>
<!-- ActiveRecord::Base&#45;&gt;Profile -->
<g id="edge26" class="edge"><title>ActiveRecord::Base&#45;&gt;Profile</title>
<path fill="none" stroke="black" d="M385.079,-1081.9C406.207,-1073.24 428.095,-1059.97 440.599,-1040 506.723,-934.386 512.202,-795.78 499.878,-679.776"/>
</g>
<!-- ActiveRecord::Base&#45;&gt;Type -->
<g id="edge30" class="edge"><title>ActiveRecord::Base&#45;&gt;Type</title>
<path fill="none" stroke="black" d="M279.152,-1080.97C257.554,-1071.86 233.379,-1058.51 216.599,-1040 187.264,-1007.65 170.924,-960.062 162.283,-925.011"/>
</g>
<!-- ActiveRecord::Base&#45;&gt;AdminUser -->
<g id="edge32" class="edge"><title>ActiveRecord::Base&#45;&gt;AdminUser</title>
<path fill="none" stroke="black" d="M417.007,-1091.73C478.49,-1086.64 554.004,-1077.1 580.599,-1060 597.123,-1049.38 611.79,-1035.5 624.667,-1020.15"/>
</g>
<!-- Object -->
<g id="node11" class="node"><title>Object</title>
<ellipse fill="none" stroke="black" cx="846.599" cy="-1097" rx="39.0967" ry="19.0919"/>
<text text-anchor="middle" x="846.599" y="-1093.9" font-family="Times Roman,serif" font-size="14.00">Object</text>
</g>
<!-- Object&#45;&gt;Ability -->
<g id="edge4" class="edge"><title>Object&#45;&gt;Ability</title>
<path fill="none" stroke="black" d="M846.599,-1077.65C846.599,-1038.68 846.599,-950.647 846.599,-906.022"/>
</g>
</g>
</svg>
