<?xml version="1.0" encoding="UTF-8" standalone="no"?>
<!DOCTYPE svg PUBLIC "-//W3C//DTD SVG 1.1//EN"
 "http://www.w3.org/Graphics/SVG/1.1/DTD/svg11.dtd">
<!-- Generated by graphviz version 2.36.0 (20140111.2315)
 -->
<!-- Title: models_diagram Pages: 1 -->
<svg width="742pt" height="720pt"
 viewBox="0.00 0.00 742.00 720.00" xmlns="http://www.w3.org/2000/svg" xmlns:xlink="http://www.w3.org/1999/xlink">
<g id="graph0" class="graph" transform="scale(1 1) rotate(0) translate(4 716)">
<title>models_diagram</title>
<polygon fill="white" stroke="none" points="-4,4 -4,-716 738,-716 738,4 -4,4"/>
<!-- AdminUser -->
<g id="node1" class="node"><title>AdminUser</title>
<path fill="none" stroke="black" d="M12,-396C12,-396 188,-396 188,-396 194,-396 200,-402 200,-408 200,-408 200,-610 200,-610 200,-616 194,-622 188,-622 188,-622 12,-622 12,-622 6,-622 0,-616 0,-610 0,-610 0,-408 0,-408 0,-402 6,-396 12,-396"/>
<text text-anchor="middle" x="100" y="-606.8" font-family="Times,serif" font-size="14.00">AdminUser</text>
<polyline fill="none" stroke="black" points="0,-599 200,-599 "/>
<text text-anchor="start" x="8" y="-583.8" font-family="Times,serif" font-size="14.00">id :integer</text>
<text text-anchor="start" x="8" y="-568.8" font-family="Times,serif" font-size="14.00">email :string</text>
<text text-anchor="start" x="8" y="-553.8" font-family="Times,serif" font-size="14.00">encrypted_password :string</text>
<text text-anchor="start" x="8" y="-538.8" font-family="Times,serif" font-size="14.00">reset_password_token :string</text>
<text text-anchor="start" x="8" y="-523.8" font-family="Times,serif" font-size="14.00">reset_password_sent_at :datetime</text>
<text text-anchor="start" x="8" y="-508.8" font-family="Times,serif" font-size="14.00">remember_created_at :datetime</text>
<text text-anchor="start" x="8" y="-493.8" font-family="Times,serif" font-size="14.00">sign_in_count :integer</text>
<text text-anchor="start" x="8" y="-478.8" font-family="Times,serif" font-size="14.00">current_sign_in_at :datetime</text>
<text text-anchor="start" x="8" y="-463.8" font-family="Times,serif" font-size="14.00">last_sign_in_at :datetime</text>
<text text-anchor="start" x="8" y="-448.8" font-family="Times,serif" font-size="14.00">current_sign_in_ip :string</text>
<text text-anchor="start" x="8" y="-433.8" font-family="Times,serif" font-size="14.00">last_sign_in_ip :string</text>
<text text-anchor="start" x="8" y="-418.8" font-family="Times,serif" font-size="14.00">created_at :datetime</text>
<text text-anchor="start" x="8" y="-403.8" font-family="Times,serif" font-size="14.00">updated_at :datetime</text>
</g>
<!-- User -->
<g id="node2" class="node"><title>User</title>
<path fill="none" stroke="black" d="M268,-381C268,-381 444,-381 444,-381 450,-381 456,-387 456,-393 456,-393 456,-625 456,-625 456,-631 450,-637 444,-637 444,-637 268,-637 268,-637 262,-637 256,-631 256,-625 256,-625 256,-393 256,-393 256,-387 262,-381 268,-381"/>
<text text-anchor="middle" x="356" y="-621.8" font-family="Times,serif" font-size="14.00">User</text>
<polyline fill="none" stroke="black" points="256,-614 456,-614 "/>
<text text-anchor="start" x="264" y="-598.8" font-family="Times,serif" font-size="14.00">id :integer</text>
<text text-anchor="start" x="264" y="-583.8" font-family="Times,serif" font-size="14.00">email :string</text>
<text text-anchor="start" x="264" y="-568.8" font-family="Times,serif" font-size="14.00">encrypted_password :string</text>
<text text-anchor="start" x="264" y="-553.8" font-family="Times,serif" font-size="14.00">reset_password_token :string</text>
<text text-anchor="start" x="264" y="-538.8" font-family="Times,serif" font-size="14.00">reset_password_sent_at :datetime</text>
<text text-anchor="start" x="264" y="-523.8" font-family="Times,serif" font-size="14.00">remember_created_at :datetime</text>
<text text-anchor="start" x="264" y="-508.8" font-family="Times,serif" font-size="14.00">sign_in_count :integer</text>
<text text-anchor="start" x="264" y="-493.8" font-family="Times,serif" font-size="14.00">current_sign_in_at :datetime</text>
<text text-anchor="start" x="264" y="-478.8" font-family="Times,serif" font-size="14.00">last_sign_in_at :datetime</text>
<text text-anchor="start" x="264" y="-463.8" font-family="Times,serif" font-size="14.00">current_sign_in_ip :string</text>
<text text-anchor="start" x="264" y="-448.8" font-family="Times,serif" font-size="14.00">last_sign_in_ip :string</text>
<text text-anchor="start" x="264" y="-433.8" font-family="Times,serif" font-size="14.00">created_at :datetime</text>
<text text-anchor="start" x="264" y="-418.8" font-family="Times,serif" font-size="14.00">updated_at :datetime</text>
<text text-anchor="start" x="264" y="-403.8" font-family="Times,serif" font-size="14.00">provider :string</text>
<text text-anchor="start" x="264" y="-388.8" font-family="Times,serif" font-size="14.00">uid :integer</text>
</g>
<!-- Profile -->
<g id="node4" class="node"><title>Profile</title>
<path fill="none" stroke="black" d="M188.5,-168C188.5,-168 295.5,-168 295.5,-168 301.5,-168 307.5,-174 307.5,-180 307.5,-180 307.5,-322 307.5,-322 307.5,-328 301.5,-334 295.5,-334 295.5,-334 188.5,-334 188.5,-334 182.5,-334 176.5,-328 176.5,-322 176.5,-322 176.5,-180 176.5,-180 176.5,-174 182.5,-168 188.5,-168"/>
<text text-anchor="middle" x="242" y="-318.8" font-family="Times,serif" font-size="14.00">Profile</text>
<polyline fill="none" stroke="black" points="176.5,-311 307.5,-311 "/>
<text text-anchor="start" x="184.5" y="-295.8" font-family="Times,serif" font-size="14.00">id :integer</text>
<text text-anchor="start" x="184.5" y="-280.8" font-family="Times,serif" font-size="14.00">name :string</text>
<text text-anchor="start" x="184.5" y="-265.8" font-family="Times,serif" font-size="14.00">surname :string</text>
<text text-anchor="start" x="184.5" y="-250.8" font-family="Times,serif" font-size="14.00">photo :string</text>
<text text-anchor="start" x="184.5" y="-235.8" font-family="Times,serif" font-size="14.00">birthday :date</text>
<text text-anchor="start" x="184.5" y="-220.8" font-family="Times,serif" font-size="14.00">contacts :text</text>
<text text-anchor="start" x="184.5" y="-205.8" font-family="Times,serif" font-size="14.00">user_id :integer</text>
<text text-anchor="start" x="184.5" y="-190.8" font-family="Times,serif" font-size="14.00">created_at :datetime</text>
<text text-anchor="start" x="184.5" y="-175.8" font-family="Times,serif" font-size="14.00">updated_at :datetime</text>
</g>
<!-- User&#45;&gt;Profile -->
<g id="edge2" class="edge"><title>User&#45;&gt;Profile</title>
<path fill="none" stroke="#89daa9" d="M296.035,-373.341C291.26,-362.619 286.513,-351.959 281.928,-341.663"/>
<ellipse fill="none" stroke="#89daa9" cx="297.707" cy="-377.096" rx="4.00002" ry="4.00002"/>
<ellipse fill="#89daa9" stroke="#89daa9" cx="280.248" cy="-337.89" rx="4.00002" ry="4.00002"/>
</g>
<!-- Party -->
<g id="node6" class="node"><title>Party</title>
<path fill="none" stroke="black" d="M469.5,-160.5C469.5,-160.5 582.5,-160.5 582.5,-160.5 588.5,-160.5 594.5,-166.5 594.5,-172.5 594.5,-172.5 594.5,-329.5 594.5,-329.5 594.5,-335.5 588.5,-341.5 582.5,-341.5 582.5,-341.5 469.5,-341.5 469.5,-341.5 463.5,-341.5 457.5,-335.5 457.5,-329.5 457.5,-329.5 457.5,-172.5 457.5,-172.5 457.5,-166.5 463.5,-160.5 469.5,-160.5"/>
<text text-anchor="middle" x="526" y="-326.3" font-family="Times,serif" font-size="14.00">Party</text>
<polyline fill="none" stroke="black" points="457.5,-318.5 594.5,-318.5 "/>
<text text-anchor="start" x="465.5" y="-303.3" font-family="Times,serif" font-size="14.00">id :integer</text>
<text text-anchor="start" x="465.5" y="-288.3" font-family="Times,serif" font-size="14.00">title :string</text>
<text text-anchor="start" x="465.5" y="-273.3" font-family="Times,serif" font-size="14.00">summary :text</text>
<text text-anchor="start" x="465.5" y="-258.3" font-family="Times,serif" font-size="14.00">coord_longitude :float</text>
<text text-anchor="start" x="465.5" y="-243.3" font-family="Times,serif" font-size="14.00">coord_latitude :float</text>
<text text-anchor="start" x="465.5" y="-228.3" font-family="Times,serif" font-size="14.00">date :date</text>
<text text-anchor="start" x="465.5" y="-213.3" font-family="Times,serif" font-size="14.00">host_id :integer</text>
<text text-anchor="start" x="465.5" y="-198.3" font-family="Times,serif" font-size="14.00">type_id :integer</text>
<text text-anchor="start" x="465.5" y="-183.3" font-family="Times,serif" font-size="14.00">created_at :datetime</text>
<text text-anchor="start" x="465.5" y="-168.3" font-family="Times,serif" font-size="14.00">updated_at :datetime</text>
</g>
<!-- User&#45;&gt;Party -->
<g id="edge3" class="edge"><title>User&#45;&gt;Party</title>
<path fill="none" stroke="#c89ba4" d="M445.012,-373.958C450.328,-365.953 455.623,-357.979 460.814,-350.163"/>
<ellipse fill="none" stroke="#c89ba4" cx="442.715" cy="-377.418" rx="4.00002" ry="4.00002"/>
<polygon fill="#c89ba4" stroke="#c89ba4" points="460.869,-350.079 470.15,-344.238 463.635,-345.914 466.401,-341.748 466.401,-341.748 466.401,-341.748 463.635,-345.914 462.653,-339.259 460.869,-350.079 460.869,-350.079"/>
</g>
<!-- Guest -->
<g id="node7" class="node"><title>Guest</title>
<path fill="none" stroke="black" d="M472.5,-0.5C472.5,-0.5 579.5,-0.5 579.5,-0.5 585.5,-0.5 591.5,-6.5 591.5,-12.5 591.5,-12.5 591.5,-109.5 591.5,-109.5 591.5,-115.5 585.5,-121.5 579.5,-121.5 579.5,-121.5 472.5,-121.5 472.5,-121.5 466.5,-121.5 460.5,-115.5 460.5,-109.5 460.5,-109.5 460.5,-12.5 460.5,-12.5 460.5,-6.5 466.5,-0.5 472.5,-0.5"/>
<text text-anchor="middle" x="526" y="-106.3" font-family="Times,serif" font-size="14.00">Guest</text>
<polyline fill="none" stroke="black" points="460.5,-98.5 591.5,-98.5 "/>
<text text-anchor="start" x="468.5" y="-83.3" font-family="Times,serif" font-size="14.00">id :integer</text>
<text text-anchor="start" x="468.5" y="-68.3" font-family="Times,serif" font-size="14.00">party_id :integer</text>
<text text-anchor="start" x="468.5" y="-53.3" font-family="Times,serif" font-size="14.00">user_id :integer</text>
<text text-anchor="start" x="468.5" y="-38.3" font-family="Times,serif" font-size="14.00">accepted :boolean</text>
<text text-anchor="start" x="468.5" y="-23.3" font-family="Times,serif" font-size="14.00">created_at :datetime</text>
<text text-anchor="start" x="468.5" y="-8.3" font-family="Times,serif" font-size="14.00">updated_at :datetime</text>
</g>
<!-- User&#45;&gt;Guest -->
<g id="edge4" class="edge"><title>User&#45;&gt;Guest</title>
<path fill="none" stroke="#1af498" d="M335.141,-372.721C331.281,-304.661 337.293,-223.388 374,-160 391.397,-129.959 422.118,-107.587 451.41,-91.8633"/>
<ellipse fill="none" stroke="#1af498" cx="335.408" cy="-376.962" rx="4" ry="4"/>
<polygon fill="#1af498" stroke="#1af498" points="451.556,-91.7882 462.505,-91.1932 455.997,-89.492 460.439,-87.1958 460.439,-87.1958 460.439,-87.1958 455.997,-89.492 458.372,-83.1984 451.556,-91.7882 451.556,-91.7882"/>
<text text-anchor="middle" x="411" y="-247.3" font-family="Times,serif" font-size="14.00">participations</text>
</g>
<!-- Ability -->
<g id="node3" class="node"><title>Ability</title>
<polygon fill="none" stroke="black" points="672.5,-486 672.5,-532 727.5,-532 727.5,-486 672.5,-486"/>
<text text-anchor="middle" x="700" y="-516.8" font-family="Times,serif" font-size="14.00">Ability</text>
<polyline fill="none" stroke="black" points="672.5,-509 727.5,-509 "/>
<text text-anchor="middle" x="700" y="-493.8" font-family="Times,serif" font-size="14.00"> </text>
</g>
<!-- Type -->
<g id="node5" class="node"><title>Type</title>
<path fill="none" stroke="black" d="M486,-471C486,-471 566,-471 566,-471 572,-471 578,-477 578,-483 578,-483 578,-535 578,-535 578,-541 572,-547 566,-547 566,-547 486,-547 486,-547 480,-547 474,-541 474,-535 474,-535 474,-483 474,-483 474,-477 480,-471 486,-471"/>
<text text-anchor="middle" x="526" y="-531.8" font-family="Times,serif" font-size="14.00">Type</text>
<polyline fill="none" stroke="black" points="474,-524 578,-524 "/>
<text text-anchor="start" x="482" y="-508.8" font-family="Times,serif" font-size="14.00">id :integer</text>
<text text-anchor="start" x="482" y="-493.8" font-family="Times,serif" font-size="14.00">title :string</text>
<text text-anchor="start" x="482" y="-478.8" font-family="Times,serif" font-size="14.00">description :text</text>
</g>
<!-- Type&#45;&gt;Party -->
<g id="edge8" class="edge"><title>Type&#45;&gt;Party</title>
<path fill="none" stroke="#ad04ef" d="M526,-462.555C526,-431.808 526,-389.977 526,-351.7"/>
<ellipse fill="none" stroke="#ad04ef" cx="526" cy="-466.775" rx="4" ry="4"/>
<polygon fill="#ad04ef" stroke="#ad04ef" points="526,-351.534 530.5,-341.534 526,-346.534 526,-341.534 526,-341.534 526,-341.534 526,-346.534 521.5,-341.534 526,-351.534 526,-351.534"/>
</g>
<!-- Party&#45;&gt;Guest -->
<g id="edge10" class="edge"><title>Party&#45;&gt;Guest</title>
<path fill="none" stroke="#a4561b" d="M526,-152.389C526,-145.512 526,-138.661 526,-131.983"/>
<ellipse fill="none" stroke="#a4561b" cx="526" cy="-156.405" rx="4" ry="4"/>
<polygon fill="#a4561b" stroke="#a4561b" points="526,-131.654 530.5,-121.654 526,-126.654 526,-121.654 526,-121.654 526,-121.654 526,-126.654 521.5,-121.654 526,-131.654 526,-131.654"/>
</g>
<!-- ActiveRecord::Base -->
<g id="node8" class="node"><title>ActiveRecord::Base</title>
<ellipse fill="none" stroke="black" cx="423" cy="-694" rx="81.3646" ry="18"/>
<text text-anchor="middle" x="423" y="-690.3" font-family="Times,serif" font-size="14.00">ActiveRecord::Base</text>
</g>
<!-- ActiveRecord::Base&#45;&gt;AdminUser -->
<g id="edge1" class="edge"><title>ActiveRecord::Base&#45;&gt;AdminUser</title>
<path fill="none" stroke="black" d="M349.438,-686.411C298.692,-680.799 236.48,-671.481 214,-658 198.145,-648.492 183.699,-635.881 170.821,-622.02"/>
</g>
<!-- ActiveRecord::Base&#45;&gt;User -->
<g id="edge5" class="edge"><title>ActiveRecord::Base&#45;&gt;User</title>
<path fill="none" stroke="black" d="M416.697,-675.784C413.048,-665.819 408.092,-652.28 402.574,-637.209"/>
</g>
<!-- ActiveRecord::Base&#45;&gt;Profile -->
<g id="edge7" class="edge"><title>ActiveRecord::Base&#45;&gt;Profile</title>
<path fill="none" stroke="black" d="M344.839,-688.769C309.061,-682.46 269.668,-668.418 247,-638 212.51,-591.717 222.169,-432.964 232.181,-334.046"/>
</g>
<!-- ActiveRecord::Base&#45;&gt;Type -->
<g id="edge9" class="edge"><title>ActiveRecord::Base&#45;&gt;Type</title>
<path fill="none" stroke="black" d="M437.59,-675.83C446.154,-665.303 456.857,-651.328 465,-638 482.904,-608.696 499.409,-573.321 510.723,-547.192"/>
</g>
<!-- ActiveRecord::Base&#45;&gt;Party -->
<g id="edge11" class="edge"><title>ActiveRecord::Base&#45;&gt;Party</title>
<path fill="none" stroke="black" d="M498.245,-687.016C531.077,-680.223 566.657,-666.279 587,-638 649.203,-551.532 612.167,-425.942 574.22,-341.738"/>
</g>
<!-- ActiveRecord::Base&#45;&gt;Guest -->
<g id="edge12" class="edge"><title>ActiveRecord::Base&#45;&gt;Guest</title>
<path fill="none" stroke="black" d="M490.601,-683.957C541.588,-675.428 604.913,-660.551 618,-638 671.342,-546.082 641.135,-259.197 603,-160 597.837,-146.569 590.16,-133.504 581.624,-121.519"/>
</g>
<!-- Object -->
<g id="node9" class="node"><title>Object</title>
<ellipse fill="none" stroke="black" cx="700" cy="-694" rx="34.1708" ry="18"/>
<text text-anchor="middle" x="700" y="-690.3" font-family="Times,serif" font-size="14.00">Object</text>
</g>
<!-- Object&#45;&gt;Ability -->
<g id="edge6" class="edge"><title>Object&#45;&gt;Ability</title>
<path fill="none" stroke="black" d="M700,-675.784C700,-642.418 700,-568.995 700,-532.09"/>
</g>
</g>
</svg>
