<?xml version="1.0" encoding="UTF-8" standalone="no"?>
<!DOCTYPE svg PUBLIC "-//W3C//DTD SVG 1.1//EN"
 "http://www.w3.org/Graphics/SVG/1.1/DTD/svg11.dtd">
<!-- Generated by graphviz version 2.26.3 (20100126.1600)
 -->
<!-- Title: models_diagram Pages: 1 -->
<svg width="691pt" height="1048pt"
 viewBox="0.00 0.00 691.00 1048.00" xmlns="http://www.w3.org/2000/svg" xmlns:xlink="http://www.w3.org/1999/xlink">
<g id="graph1" class="graph" transform="scale(1 1) rotate(0) translate(4 1044)">
<title>models_diagram</title>
<polygon fill="white" stroke="white" points="-4,5 -4,-1044 688,-1044 688,5 -4,5"/>
<!-- Guest -->
<g id="node1" class="node"><title>Guest</title>
<polyline fill="none" stroke="black" points="69.5,-19.5 180.5,-19.5 "/>
<path fill="none" stroke="black" d="M180.5,-19.5C186.5,-19.5 192.5,-25.5 192.5,-31.5"/>
<polyline fill="none" stroke="black" points="192.5,-31.5 192.5,-156.5 "/>
<path fill="none" stroke="black" d="M192.5,-156.5C192.5,-162.5 186.5,-168.5 180.5,-168.5"/>
<polyline fill="none" stroke="black" points="180.5,-168.5 69.5,-168.5 "/>
<path fill="none" stroke="black" d="M69.5,-168.5C63.5,-168.5 57.5,-162.5 57.5,-156.5"/>
<polyline fill="none" stroke="black" points="57.5,-156.5 57.5,-31.5 "/>
<path fill="none" stroke="black" d="M57.5,-31.5C57.5,-25.5 63.5,-19.5 69.5,-19.5"/>
<text text-anchor="middle" x="125" y="-151.9" font-family="Times Roman,serif" font-size="14.00">Guest</text>
<polyline fill="none" stroke="black" points="57.5,-141.5 192.5,-141.5 "/>
<text text-anchor="start" x="65.5" y="-124.9" font-family="Times Roman,serif" font-size="14.00">id :integer</text>
<text text-anchor="start" x="65.5" y="-105.9" font-family="Times Roman,serif" font-size="14.00">party_id :integer</text>
<text text-anchor="start" x="65.5" y="-86.9" font-family="Times Roman,serif" font-size="14.00">user_id :integer</text>
<text text-anchor="start" x="65.5" y="-67.9" font-family="Times Roman,serif" font-size="14.00">accepted :boolean</text>
<text text-anchor="start" x="65.5" y="-48.9" font-family="Times Roman,serif" font-size="14.00">created_at :datetime</text>
<text text-anchor="start" x="65.5" y="-29.9" font-family="Times Roman,serif" font-size="14.00">updated_at :datetime</text>
</g>
<!-- Comment -->
<g id="node2" class="node"><title>Comment</title>
<polyline fill="none" stroke="black" points="382,-0.5 522,-0.5 "/>
<path fill="none" stroke="black" d="M522,-0.5C528,-0.5 534,-6.5 534,-12.5"/>
<polyline fill="none" stroke="black" points="534,-12.5 534,-175.5 "/>
<path fill="none" stroke="black" d="M534,-175.5C534,-181.5 528,-187.5 522,-187.5"/>
<polyline fill="none" stroke="black" points="522,-187.5 382,-187.5 "/>
<path fill="none" stroke="black" d="M382,-187.5C376,-187.5 370,-181.5 370,-175.5"/>
<polyline fill="none" stroke="black" points="370,-175.5 370,-12.5 "/>
<path fill="none" stroke="black" d="M370,-12.5C370,-6.5 376,-0.5 382,-0.5"/>
<text text-anchor="middle" x="452" y="-170.9" font-family="Times Roman,serif" font-size="14.00">Comment</text>
<polyline fill="none" stroke="black" points="370,-160.5 534,-160.5 "/>
<text text-anchor="start" x="378" y="-143.9" font-family="Times Roman,serif" font-size="14.00">id :integer</text>
<text text-anchor="start" x="378" y="-124.9" font-family="Times Roman,serif" font-size="14.00">comment :text</text>
<text text-anchor="start" x="378" y="-105.9" font-family="Times Roman,serif" font-size="14.00">commentable_id :integer</text>
<text text-anchor="start" x="378" y="-86.9" font-family="Times Roman,serif" font-size="14.00">commentable_type :string</text>
<text text-anchor="start" x="378" y="-67.9" font-family="Times Roman,serif" font-size="14.00">user_id :integer</text>
<text text-anchor="start" x="378" y="-48.9" font-family="Times Roman,serif" font-size="14.00">role :string</text>
<text text-anchor="start" x="378" y="-29.9" font-family="Times Roman,serif" font-size="14.00">created_at :datetime</text>
<text text-anchor="start" x="378" y="-10.9" font-family="Times Roman,serif" font-size="14.00">updated_at :datetime</text>
</g>
<!-- User -->
<g id="node3" class="node"><title>User</title>
<polyline fill="none" stroke="black" points="265,-719 447,-719 "/>
<path fill="none" stroke="black" d="M447,-719C453,-719 459,-725 459,-731"/>
<polyline fill="none" stroke="black" points="459,-731 459,-1027 "/>
<path fill="none" stroke="black" d="M459,-1027C459,-1033 453,-1039 447,-1039"/>
<polyline fill="none" stroke="black" points="447,-1039 265,-1039 "/>
<path fill="none" stroke="black" d="M265,-1039C259,-1039 253,-1033 253,-1027"/>
<polyline fill="none" stroke="black" points="253,-1027 253,-731 "/>
<path fill="none" stroke="black" d="M253,-731C253,-725 259,-719 265,-719"/>
<text text-anchor="middle" x="356" y="-1022.4" font-family="Times Roman,serif" font-size="14.00">User</text>
<polyline fill="none" stroke="black" points="253,-1012 459,-1012 "/>
<text text-anchor="start" x="261" y="-995.4" font-family="Times Roman,serif" font-size="14.00">id :integer</text>
<text text-anchor="start" x="261" y="-976.4" font-family="Times Roman,serif" font-size="14.00">email :string</text>
<text text-anchor="start" x="261" y="-957.4" font-family="Times Roman,serif" font-size="14.00">encrypted_password :string</text>
<text text-anchor="start" x="261" y="-938.4" font-family="Times Roman,serif" font-size="14.00">reset_password_token :string</text>
<text text-anchor="start" x="261" y="-919.4" font-family="Times Roman,serif" font-size="14.00">reset_password_sent_at :datetime</text>
<text text-anchor="start" x="261" y="-900.4" font-family="Times Roman,serif" font-size="14.00">remember_created_at :datetime</text>
<text text-anchor="start" x="261" y="-881.4" font-family="Times Roman,serif" font-size="14.00">sign_in_count :integer</text>
<text text-anchor="start" x="261" y="-862.4" font-family="Times Roman,serif" font-size="14.00">current_sign_in_at :datetime</text>
<text text-anchor="start" x="261" y="-843.4" font-family="Times Roman,serif" font-size="14.00">last_sign_in_at :datetime</text>
<text text-anchor="start" x="261" y="-824.4" font-family="Times Roman,serif" font-size="14.00">current_sign_in_ip :string</text>
<text text-anchor="start" x="261" y="-805.4" font-family="Times Roman,serif" font-size="14.00">last_sign_in_ip :string</text>
<text text-anchor="start" x="261" y="-786.4" font-family="Times Roman,serif" font-size="14.00">created_at :datetime</text>
<text text-anchor="start" x="261" y="-767.4" font-family="Times Roman,serif" font-size="14.00">updated_at :datetime</text>
<text text-anchor="start" x="261" y="-748.4" font-family="Times Roman,serif" font-size="14.00">provider :string</text>
<text text-anchor="start" x="261" y="-729.4" font-family="Times Roman,serif" font-size="14.00">uid :string</text>
</g>
<!-- User&#45;&gt;Guest -->
<g id="edge6" class="edge"><title>User&#45;&gt;Guest</title>
<path fill="none" stroke="#bef65e" d="M245.979,-811.866C180.057,-769.037 105.686,-715.162 88,-680 6.35437,-517.682 56.3359,-297.322 94.2331,-178.428"/>
<ellipse fill="none" stroke="#bef65e" cx="249.379" cy="-814.066" rx="4.00002" ry="4.00002"/>
<polygon fill="#bef65e" stroke="#bef65e" points="94.3199,-178.159 101.679,-170.03 95.8586,-173.402 97.3974,-168.645 97.3974,-168.645 97.3974,-168.645 95.8586,-173.402 93.1158,-167.26 94.3199,-178.159 94.3199,-178.159"/>
<text text-anchor="middle" x="126" y="-449.9" font-family="Times Roman,serif" font-size="14.00">participations</text>
</g>
<!-- User&#45;&gt;Comment -->
<g id="edge8" class="edge"><title>User&#45;&gt;Comment</title>
<path fill="none" stroke="#e1e725" d="M465.212,-720.402C466.137,-719.592 467.067,-718.791 468,-718 498.025,-692.545 526.969,-713.273 548,-680 655.809,-509.438 610.399,-417.887 548,-226 544.779,-216.096 540.505,-206.315 535.545,-196.825"/>
<ellipse fill="none" stroke="#e1e725" cx="462.134" cy="-723.19" rx="4.00002" ry="4.00002"/>
<polygon fill="#e1e725" stroke="#e1e725" points="535.412,-196.584 534.535,-185.653 533.002,-192.203 530.592,-187.822 530.592,-187.822 530.592,-187.822 533.002,-192.203 526.649,-189.991 535.412,-196.584 535.412,-196.584"/>
</g>
<!-- Party -->
<g id="node4" class="node"><title>Party</title>
<polyline fill="none" stroke="black" points="184.5,-264.5 335.5,-264.5 "/>
<path fill="none" stroke="black" d="M335.5,-264.5C341.5,-264.5 347.5,-270.5 347.5,-276.5"/>
<polyline fill="none" stroke="black" points="347.5,-276.5 347.5,-629.5 "/>
<path fill="none" stroke="black" d="M347.5,-629.5C347.5,-635.5 341.5,-641.5 335.5,-641.5"/>
<polyline fill="none" stroke="black" points="335.5,-641.5 184.5,-641.5 "/>
<path fill="none" stroke="black" d="M184.5,-641.5C178.5,-641.5 172.5,-635.5 172.5,-629.5"/>
<polyline fill="none" stroke="black" points="172.5,-629.5 172.5,-276.5 "/>
<path fill="none" stroke="black" d="M172.5,-276.5C172.5,-270.5 178.5,-264.5 184.5,-264.5"/>
<text text-anchor="middle" x="260" y="-624.9" font-family="Times Roman,serif" font-size="14.00">Party</text>
<polyline fill="none" stroke="black" points="172.5,-614.5 347.5,-614.5 "/>
<text text-anchor="start" x="180.5" y="-597.9" font-family="Times Roman,serif" font-size="14.00">id :integer</text>
<text text-anchor="start" x="180.5" y="-578.9" font-family="Times Roman,serif" font-size="14.00">title :string</text>
<text text-anchor="start" x="180.5" y="-559.9" font-family="Times Roman,serif" font-size="14.00">summary :text</text>
<text text-anchor="start" x="180.5" y="-540.9" font-family="Times Roman,serif" font-size="14.00">coord_longitude :float</text>
<text text-anchor="start" x="180.5" y="-521.9" font-family="Times Roman,serif" font-size="14.00">coord_latitude :float</text>
<text text-anchor="start" x="180.5" y="-502.9" font-family="Times Roman,serif" font-size="14.00">date :date</text>
<text text-anchor="start" x="180.5" y="-483.9" font-family="Times Roman,serif" font-size="14.00">host_id :integer</text>
<text text-anchor="start" x="180.5" y="-464.9" font-family="Times Roman,serif" font-size="14.00">type_id :integer</text>
<text text-anchor="start" x="180.5" y="-445.9" font-family="Times Roman,serif" font-size="14.00">created_at :datetime</text>
<text text-anchor="start" x="180.5" y="-426.9" font-family="Times Roman,serif" font-size="14.00">updated_at :datetime</text>
<text text-anchor="start" x="180.5" y="-407.9" font-family="Times Roman,serif" font-size="14.00">blocked :boolean</text>
<text text-anchor="start" x="180.5" y="-388.9" font-family="Times Roman,serif" font-size="14.00">block_message :text</text>
<text text-anchor="start" x="180.5" y="-369.9" font-family="Times Roman,serif" font-size="14.00">address :string</text>
<text text-anchor="start" x="180.5" y="-350.9" font-family="Times Roman,serif" font-size="14.00">address_hidden :boolean</text>
<text text-anchor="start" x="180.5" y="-331.9" font-family="Times Roman,serif" font-size="14.00">avatar_file_name :string</text>
<text text-anchor="start" x="180.5" y="-312.9" font-family="Times Roman,serif" font-size="14.00">avatar_content_type :string</text>
<text text-anchor="start" x="180.5" y="-293.9" font-family="Times Roman,serif" font-size="14.00">avatar_file_size :integer</text>
<text text-anchor="start" x="180.5" y="-274.9" font-family="Times Roman,serif" font-size="14.00">avatar_updated_at :datetime</text>
</g>
<!-- User&#45;&gt;Party -->
<g id="edge4" class="edge"><title>User&#45;&gt;Party</title>
<path fill="none" stroke="#d9d896" d="M318.112,-710.873C313.743,-691.485 309.257,-671.578 304.808,-651.834"/>
<ellipse fill="none" stroke="#d9d896" cx="319.032" cy="-714.956" rx="4.00001" ry="4.00001"/>
<polygon fill="#d9d896" stroke="#d9d896" points="304.755,-651.599 306.946,-640.854 303.656,-646.721 302.556,-641.844 302.556,-641.844 302.556,-641.844 303.656,-646.721 298.166,-642.833 304.755,-651.599 304.755,-651.599"/>
</g>
<!-- Profile -->
<g id="node5" class="node"><title>Profile</title>
<polyline fill="none" stroke="black" points="376.5,-226.5 527.5,-226.5 "/>
<path fill="none" stroke="black" d="M527.5,-226.5C533.5,-226.5 539.5,-232.5 539.5,-238.5"/>
<polyline fill="none" stroke="black" points="539.5,-238.5 539.5,-667.5 "/>
<path fill="none" stroke="black" d="M539.5,-667.5C539.5,-673.5 533.5,-679.5 527.5,-679.5"/>
<polyline fill="none" stroke="black" points="527.5,-679.5 376.5,-679.5 "/>
<path fill="none" stroke="black" d="M376.5,-679.5C370.5,-679.5 364.5,-673.5 364.5,-667.5"/>
<polyline fill="none" stroke="black" points="364.5,-667.5 364.5,-238.5 "/>
<path fill="none" stroke="black" d="M364.5,-238.5C364.5,-232.5 370.5,-226.5 376.5,-226.5"/>
<text text-anchor="middle" x="452" y="-662.9" font-family="Times Roman,serif" font-size="14.00">Profile</text>
<polyline fill="none" stroke="black" points="364.5,-652.5 539.5,-652.5 "/>
<text text-anchor="start" x="372.5" y="-635.9" font-family="Times Roman,serif" font-size="14.00">id :integer</text>
<text text-anchor="start" x="372.5" y="-616.9" font-family="Times Roman,serif" font-size="14.00">name :string</text>
<text text-anchor="start" x="372.5" y="-597.9" font-family="Times Roman,serif" font-size="14.00">surname :string</text>
<text text-anchor="start" x="372.5" y="-578.9" font-family="Times Roman,serif" font-size="14.00">photo :string</text>
<text text-anchor="start" x="372.5" y="-559.9" font-family="Times Roman,serif" font-size="14.00">birthday :date</text>
<text text-anchor="start" x="372.5" y="-540.9" font-family="Times Roman,serif" font-size="14.00">contacts :text</text>
<text text-anchor="start" x="372.5" y="-521.9" font-family="Times Roman,serif" font-size="14.00">user_id :integer</text>
<text text-anchor="start" x="372.5" y="-502.9" font-family="Times Roman,serif" font-size="14.00">created_at :datetime</text>
<text text-anchor="start" x="372.5" y="-483.9" font-family="Times Roman,serif" font-size="14.00">updated_at :datetime</text>
<text text-anchor="start" x="372.5" y="-464.9" font-family="Times Roman,serif" font-size="14.00">birthday_hidden :boolean</text>
<text text-anchor="start" x="372.5" y="-445.9" font-family="Times Roman,serif" font-size="14.00">skype :string</text>
<text text-anchor="start" x="372.5" y="-426.9" font-family="Times Roman,serif" font-size="14.00">skype_hidden :boolean</text>
<text text-anchor="start" x="372.5" y="-407.9" font-family="Times Roman,serif" font-size="14.00">phone :string</text>
<text text-anchor="start" x="372.5" y="-388.9" font-family="Times Roman,serif" font-size="14.00">phone_hidden :boolean</text>
<text text-anchor="start" x="372.5" y="-369.9" font-family="Times Roman,serif" font-size="14.00">vk :string</text>
<text text-anchor="start" x="372.5" y="-350.9" font-family="Times Roman,serif" font-size="14.00">vk_hidden :boolean</text>
<text text-anchor="start" x="372.5" y="-331.9" font-family="Times Roman,serif" font-size="14.00">fb :string</text>
<text text-anchor="start" x="372.5" y="-312.9" font-family="Times Roman,serif" font-size="14.00">fb_hidden :boolean</text>
<text text-anchor="start" x="372.5" y="-293.9" font-family="Times Roman,serif" font-size="14.00">avatar_file_name :string</text>
<text text-anchor="start" x="372.5" y="-274.9" font-family="Times Roman,serif" font-size="14.00">avatar_content_type :string</text>
<text text-anchor="start" x="372.5" y="-255.9" font-family="Times Roman,serif" font-size="14.00">avatar_file_size :integer</text>
<text text-anchor="start" x="372.5" y="-236.9" font-family="Times Roman,serif" font-size="14.00">avatar_updated_at :datetime</text>
</g>
<!-- User&#45;&gt;Profile -->
<g id="edge2" class="edge"><title>User&#45;&gt;Profile</title>
<path fill="none" stroke="#a879d4" d="M393.862,-710.989C395.608,-703.241 397.372,-695.41 399.146,-687.539"/>
<ellipse fill="none" stroke="#a879d4" cx="392.968" cy="-714.956" rx="4.00001" ry="4.00001"/>
<ellipse fill="#a879d4" stroke="#a879d4" cx="400.043" cy="-683.559" rx="4.00001" ry="4.00001"/>
</g>
<!-- Party&#45;&gt;Guest -->
<g id="edge10" class="edge"><title>Party&#45;&gt;Guest</title>
<path fill="none" stroke="#d3ccfc" d="M186.198,-256.742C175.78,-229.038 165.564,-201.871 156.555,-177.912"/>
<ellipse fill="none" stroke="#d3ccfc" cx="187.633" cy="-260.557" rx="4.00001" ry="4.00001"/>
<polygon fill="#d3ccfc" stroke="#d3ccfc" points="156.553,-177.906 157.245,-166.962 154.793,-173.226 153.033,-168.546 153.033,-168.546 153.033,-168.546 154.793,-173.226 148.821,-170.13 156.553,-177.906 156.553,-177.906"/>
</g>
<!-- Party&#45;&gt;Comment -->
<g id="edge12" class="edge"><title>Party&#45;&gt;Comment</title>
<path fill="none" stroke="#4c744e" d="M339.487,-256.964C344.839,-246.374 350.355,-235.988 356,-226 361.554,-216.174 367.703,-206.21 374.129,-196.389"/>
<ellipse fill="none" stroke="#4c744e" cx="337.597" cy="-260.749" rx="4.00002" ry="4.00002"/>
<polygon fill="#4c744e" stroke="#4c744e" points="374.302,-196.129 383.586,-190.294 377.07,-191.966 379.839,-187.802 379.839,-187.802 379.839,-187.802 377.07,-191.966 376.092,-185.31 374.302,-196.129 374.302,-196.129"/>
</g>
<!-- Profile&#45;&gt;Comment -->
<g id="edge14" class="edge"><title>Profile&#45;&gt;Comment</title>
<path fill="none" stroke="#9ea296" d="M452,-218.275C452,-211.344 452,-204.535 452,-197.894"/>
<ellipse fill="none" stroke="#9ea296" cx="452" cy="-222.404" rx="4" ry="4"/>
<polygon fill="#9ea296" stroke="#9ea296" points="452,-197.605 456.5,-187.605 452,-192.605 452,-187.605 452,-187.605 452,-187.605 452,-192.605 447.5,-187.605 452,-197.605 452,-197.605"/>
</g>
<!-- Type -->
<g id="node6" class="node"><title>Type</title>
<polyline fill="none" stroke="black" points="12,-833 96,-833 "/>
<path fill="none" stroke="black" d="M96,-833C102,-833 108,-839 108,-845"/>
<polyline fill="none" stroke="black" points="108,-845 108,-913 "/>
<path fill="none" stroke="black" d="M108,-913C108,-919 102,-925 96,-925"/>
<polyline fill="none" stroke="black" points="96,-925 12,-925 "/>
<path fill="none" stroke="black" d="M12,-925C6,-925 0,-919 0,-913"/>
<polyline fill="none" stroke="black" points="0,-913 0,-845 "/>
<path fill="none" stroke="black" d="M0,-845C0,-839 6,-833 12,-833"/>
<text text-anchor="middle" x="54" y="-908.4" font-family="Times Roman,serif" font-size="14.00">Type</text>
<polyline fill="none" stroke="black" points="0,-898 108,-898 "/>
<text text-anchor="start" x="8" y="-881.4" font-family="Times Roman,serif" font-size="14.00">id :integer</text>
<text text-anchor="start" x="8" y="-862.4" font-family="Times Roman,serif" font-size="14.00">title :string</text>
<text text-anchor="start" x="8" y="-843.4" font-family="Times Roman,serif" font-size="14.00">description :text</text>
</g>
<!-- Type&#45;&gt;Party -->
<g id="edge16" class="edge"><title>Type&#45;&gt;Party</title>
<path fill="none" stroke="#8af049" d="M83.4365,-825.571C105.05,-785.787 134.743,-729.951 159,-680 163.616,-670.494 168.274,-660.728 172.923,-650.839"/>
<ellipse fill="none" stroke="#8af049" cx="81.4101" cy="-829.295" rx="4.00002" ry="4.00002"/>
<polygon fill="#8af049" stroke="#8af049" points="172.949,-650.784 181.265,-643.635 175.069,-646.255 177.189,-641.727 177.189,-641.727 177.189,-641.727 175.069,-646.255 173.114,-639.819 172.949,-650.784 172.949,-650.784"/>
</g>
<!-- AdminUser -->
<g id="node7" class="node"><title>AdminUser</title>
<polyline fill="none" stroke="black" points="489,-738 671,-738 "/>
<path fill="none" stroke="black" d="M671,-738C677,-738 683,-744 683,-750"/>
<polyline fill="none" stroke="black" points="683,-750 683,-1008 "/>
<path fill="none" stroke="black" d="M683,-1008C683,-1014 677,-1020 671,-1020"/>
<polyline fill="none" stroke="black" points="671,-1020 489,-1020 "/>
<path fill="none" stroke="black" d="M489,-1020C483,-1020 477,-1014 477,-1008"/>
<polyline fill="none" stroke="black" points="477,-1008 477,-750 "/>
<path fill="none" stroke="black" d="M477,-750C477,-744 483,-738 489,-738"/>
<text text-anchor="middle" x="580" y="-1003.4" font-family="Times Roman,serif" font-size="14.00">AdminUser</text>
<polyline fill="none" stroke="black" points="477,-993 683,-993 "/>
<text text-anchor="start" x="485" y="-976.4" font-family="Times Roman,serif" font-size="14.00">id :integer</text>
<text text-anchor="start" x="485" y="-957.4" font-family="Times Roman,serif" font-size="14.00">email :string</text>
<text text-anchor="start" x="485" y="-938.4" font-family="Times Roman,serif" font-size="14.00">encrypted_password :string</text>
<text text-anchor="start" x="485" y="-919.4" font-family="Times Roman,serif" font-size="14.00">reset_password_token :string</text>
<text text-anchor="start" x="485" y="-900.4" font-family="Times Roman,serif" font-size="14.00">reset_password_sent_at :datetime</text>
<text text-anchor="start" x="485" y="-881.4" font-family="Times Roman,serif" font-size="14.00">remember_created_at :datetime</text>
<text text-anchor="start" x="485" y="-862.4" font-family="Times Roman,serif" font-size="14.00">sign_in_count :integer</text>
<text text-anchor="start" x="485" y="-843.4" font-family="Times Roman,serif" font-size="14.00">current_sign_in_at :datetime</text>
<text text-anchor="start" x="485" y="-824.4" font-family="Times Roman,serif" font-size="14.00">last_sign_in_at :datetime</text>
<text text-anchor="start" x="485" y="-805.4" font-family="Times Roman,serif" font-size="14.00">current_sign_in_ip :string</text>
<text text-anchor="start" x="485" y="-786.4" font-family="Times Roman,serif" font-size="14.00">last_sign_in_ip :string</text>
<text text-anchor="start" x="485" y="-767.4" font-family="Times Roman,serif" font-size="14.00">created_at :datetime</text>
<text text-anchor="start" x="485" y="-748.4" font-family="Times Roman,serif" font-size="14.00">updated_at :datetime</text>
</g>
</g>
</svg>
