<?xml version="1.0" encoding="UTF-8" standalone="no"?>
<!DOCTYPE svg PUBLIC "-//W3C//DTD SVG 1.1//EN"
 "http://www.w3.org/Graphics/SVG/1.1/DTD/svg11.dtd">
<!-- Generated by graphviz version 2.26.3 (20100126.1600)
 -->
<!-- Title: models_diagram Pages: 1 -->
<svg width="1108pt" height="1256pt"
 viewBox="0.00 0.00 1108.00 1256.00" xmlns="http://www.w3.org/2000/svg" xmlns:xlink="http://www.w3.org/1999/xlink">
<g id="graph1" class="graph" transform="scale(1 1) rotate(0) translate(4 1252)">
<title>models_diagram</title>
<polygon fill="white" stroke="white" points="-4,5 -4,-1252 1105,-1252 1105,5 -4,5"/>
<!-- Guest -->
<g id="node1" class="node"><title>Guest</title>
<polyline fill="none" stroke="black" points="927.5,-19.5 1038.5,-19.5 "/>
<path fill="none" stroke="black" d="M1038.5,-19.5C1044.5,-19.5 1050.5,-25.5 1050.5,-31.5"/>
<polyline fill="none" stroke="black" points="1050.5,-31.5 1050.5,-156.5 "/>
<path fill="none" stroke="black" d="M1050.5,-156.5C1050.5,-162.5 1044.5,-168.5 1038.5,-168.5"/>
<polyline fill="none" stroke="black" points="1038.5,-168.5 927.5,-168.5 "/>
<path fill="none" stroke="black" d="M927.5,-168.5C921.5,-168.5 915.5,-162.5 915.5,-156.5"/>
<polyline fill="none" stroke="black" points="915.5,-156.5 915.5,-31.5 "/>
<path fill="none" stroke="black" d="M915.5,-31.5C915.5,-25.5 921.5,-19.5 927.5,-19.5"/>
<text text-anchor="middle" x="983" y="-151.9" font-family="Times Roman,serif" font-size="14.00">Guest</text>
<polyline fill="none" stroke="black" points="915.5,-141.5 1050.5,-141.5 "/>
<text text-anchor="start" x="923.5" y="-124.9" font-family="Times Roman,serif" font-size="14.00">id :integer</text>
<text text-anchor="start" x="923.5" y="-105.9" font-family="Times Roman,serif" font-size="14.00">party_id :integer</text>
<text text-anchor="start" x="923.5" y="-86.9" font-family="Times Roman,serif" font-size="14.00">user_id :integer</text>
<text text-anchor="start" x="923.5" y="-67.9" font-family="Times Roman,serif" font-size="14.00">accepted :boolean</text>
<text text-anchor="start" x="923.5" y="-48.9" font-family="Times Roman,serif" font-size="14.00">created_at :datetime</text>
<text text-anchor="start" x="923.5" y="-29.9" font-family="Times Roman,serif" font-size="14.00">updated_at :datetime</text>
</g>
<!-- Ability -->
<g id="node2" class="node"><title>Ability</title>
<polygon fill="none" stroke="black" points="1033,-984 1033,-1038 1089,-1038 1089,-984 1033,-984"/>
<text text-anchor="middle" x="1061" y="-1021.4" font-family="Times Roman,serif" font-size="14.00">Ability</text>
<polyline fill="none" stroke="black" points="1033,-1011 1089,-1011 "/>
<text text-anchor="middle" x="1061" y="-994.4" font-family="Times Roman,serif" font-size="14.00"> </text>
</g>
<!-- Comment -->
<g id="node3" class="node"><title>Comment</title>
<polyline fill="none" stroke="black" points="12,-0.5 152,-0.5 "/>
<path fill="none" stroke="black" d="M152,-0.5C158,-0.5 164,-6.5 164,-12.5"/>
<polyline fill="none" stroke="black" points="164,-12.5 164,-175.5 "/>
<path fill="none" stroke="black" d="M164,-175.5C164,-181.5 158,-187.5 152,-187.5"/>
<polyline fill="none" stroke="black" points="152,-187.5 12,-187.5 "/>
<path fill="none" stroke="black" d="M12,-187.5C6,-187.5 0,-181.5 0,-175.5"/>
<polyline fill="none" stroke="black" points="0,-175.5 0,-12.5 "/>
<path fill="none" stroke="black" d="M0,-12.5C0,-6.5 6,-0.5 12,-0.5"/>
<text text-anchor="middle" x="82" y="-170.9" font-family="Times Roman,serif" font-size="14.00">Comment</text>
<polyline fill="none" stroke="black" points="0,-160.5 164,-160.5 "/>
<text text-anchor="start" x="8" y="-143.9" font-family="Times Roman,serif" font-size="14.00">id :integer</text>
<text text-anchor="start" x="8" y="-124.9" font-family="Times Roman,serif" font-size="14.00">comment :text</text>
<text text-anchor="start" x="8" y="-105.9" font-family="Times Roman,serif" font-size="14.00">commentable_id :integer</text>
<text text-anchor="start" x="8" y="-86.9" font-family="Times Roman,serif" font-size="14.00">commentable_type :string</text>
<text text-anchor="start" x="8" y="-67.9" font-family="Times Roman,serif" font-size="14.00">user_id :integer</text>
<text text-anchor="start" x="8" y="-48.9" font-family="Times Roman,serif" font-size="14.00">role :string</text>
<text text-anchor="start" x="8" y="-29.9" font-family="Times Roman,serif" font-size="14.00">created_at :datetime</text>
<text text-anchor="start" x="8" y="-10.9" font-family="Times Roman,serif" font-size="14.00">updated_at :datetime</text>
</g>
<!-- User -->
<g id="node4" class="node"><title>User</title>
<polyline fill="none" stroke="black" points="333,-851 515,-851 "/>
<path fill="none" stroke="black" d="M515,-851C521,-851 527,-857 527,-863"/>
<polyline fill="none" stroke="black" points="527,-863 527,-1159 "/>
<path fill="none" stroke="black" d="M527,-1159C527,-1165 521,-1171 515,-1171"/>
<polyline fill="none" stroke="black" points="515,-1171 333,-1171 "/>
<path fill="none" stroke="black" d="M333,-1171C327,-1171 321,-1165 321,-1159"/>
<polyline fill="none" stroke="black" points="321,-1159 321,-863 "/>
<path fill="none" stroke="black" d="M321,-863C321,-857 327,-851 333,-851"/>
<text text-anchor="middle" x="424" y="-1154.4" font-family="Times Roman,serif" font-size="14.00">User</text>
<polyline fill="none" stroke="black" points="321,-1144 527,-1144 "/>
<text text-anchor="start" x="329" y="-1127.4" font-family="Times Roman,serif" font-size="14.00">id :integer</text>
<text text-anchor="start" x="329" y="-1108.4" font-family="Times Roman,serif" font-size="14.00">email :string</text>
<text text-anchor="start" x="329" y="-1089.4" font-family="Times Roman,serif" font-size="14.00">encrypted_password :string</text>
<text text-anchor="start" x="329" y="-1070.4" font-family="Times Roman,serif" font-size="14.00">reset_password_token :string</text>
<text text-anchor="start" x="329" y="-1051.4" font-family="Times Roman,serif" font-size="14.00">reset_password_sent_at :datetime</text>
<text text-anchor="start" x="329" y="-1032.4" font-family="Times Roman,serif" font-size="14.00">remember_created_at :datetime</text>
<text text-anchor="start" x="329" y="-1013.4" font-family="Times Roman,serif" font-size="14.00">sign_in_count :integer</text>
<text text-anchor="start" x="329" y="-994.4" font-family="Times Roman,serif" font-size="14.00">current_sign_in_at :datetime</text>
<text text-anchor="start" x="329" y="-975.4" font-family="Times Roman,serif" font-size="14.00">last_sign_in_at :datetime</text>
<text text-anchor="start" x="329" y="-956.4" font-family="Times Roman,serif" font-size="14.00">current_sign_in_ip :string</text>
<text text-anchor="start" x="329" y="-937.4" font-family="Times Roman,serif" font-size="14.00">last_sign_in_ip :string</text>
<text text-anchor="start" x="329" y="-918.4" font-family="Times Roman,serif" font-size="14.00">created_at :datetime</text>
<text text-anchor="start" x="329" y="-899.4" font-family="Times Roman,serif" font-size="14.00">updated_at :datetime</text>
<text text-anchor="start" x="329" y="-880.4" font-family="Times Roman,serif" font-size="14.00">provider :string</text>
<text text-anchor="start" x="329" y="-861.4" font-family="Times Roman,serif" font-size="14.00">uid :string</text>
</g>
<!-- User&#45;&gt;Guest -->
<g id="edge12" class="edge"><title>User&#45;&gt;Guest</title>
<path fill="none" stroke="#00891c" d="M533.484,-935.527C572.863,-902.399 613.362,-860.063 637,-812 692.956,-698.224 618.74,-348.185 691,-244 701.422,-228.973 711.641,-234.173 728,-226 745.426,-217.294 748.395,-211.773 767,-206 826.916,-187.409 852.23,-218.591 907,-188 913.298,-184.482 919.275,-180.214 924.904,-175.461"/>
<ellipse fill="none" stroke="#00891c" cx="530.254" cy="-938.209" rx="4.00002" ry="4.00002"/>
<polygon fill="#00891c" stroke="#00891c" points="924.951,-175.419 935.383,-172.038 928.656,-172.061 932.361,-168.704 932.361,-168.704 932.361,-168.704 928.656,-172.061 929.339,-165.369 924.951,-175.419 924.951,-175.419"/>
<text text-anchor="middle" x="729" y="-524.9" font-family="Times Roman,serif" font-size="14.00">participations</text>
</g>
<!-- User&#45;&gt;Comment -->
<g id="edge14" class="edge"><title>User&#45;&gt;Comment</title>
<path fill="none" stroke="#a124f5" d="M313.953,-947.176C265.896,-913.345 213.799,-867.291 184,-812 55.4412,-573.463 172.559,-471.218 117,-206 116.413,-203.196 115.784,-200.362 115.121,-197.51"/>
<ellipse fill="none" stroke="#a124f5" cx="317.42" cy="-949.585" rx="4.00002" ry="4.00002"/>
<polygon fill="#a124f5" stroke="#a124f5" points="115.112,-197.475 117.113,-186.693 113.927,-192.618 112.741,-187.761 112.741,-187.761 112.741,-187.761 113.927,-192.618 108.369,-188.828 115.112,-197.475 115.112,-197.475"/>
</g>
<!-- Party -->
<g id="node5" class="node"><title>Party</title>
<polyline fill="none" stroke="black" points="465.5,-320.5 616.5,-320.5 "/>
<path fill="none" stroke="black" d="M616.5,-320.5C622.5,-320.5 628.5,-326.5 628.5,-332.5"/>
<polyline fill="none" stroke="black" points="628.5,-332.5 628.5,-723.5 "/>
<path fill="none" stroke="black" d="M628.5,-723.5C628.5,-729.5 622.5,-735.5 616.5,-735.5"/>
<polyline fill="none" stroke="black" points="616.5,-735.5 465.5,-735.5 "/>
<path fill="none" stroke="black" d="M465.5,-735.5C459.5,-735.5 453.5,-729.5 453.5,-723.5"/>
<polyline fill="none" stroke="black" points="453.5,-723.5 453.5,-332.5 "/>
<path fill="none" stroke="black" d="M453.5,-332.5C453.5,-326.5 459.5,-320.5 465.5,-320.5"/>
<text text-anchor="middle" x="541" y="-718.9" font-family="Times Roman,serif" font-size="14.00">Party</text>
<polyline fill="none" stroke="black" points="453.5,-708.5 628.5,-708.5 "/>
<text text-anchor="start" x="461.5" y="-691.9" font-family="Times Roman,serif" font-size="14.00">id :integer</text>
<text text-anchor="start" x="461.5" y="-672.9" font-family="Times Roman,serif" font-size="14.00">title :string</text>
<text text-anchor="start" x="461.5" y="-653.9" font-family="Times Roman,serif" font-size="14.00">summary :text</text>
<text text-anchor="start" x="461.5" y="-634.9" font-family="Times Roman,serif" font-size="14.00">coord_longitude :float</text>
<text text-anchor="start" x="461.5" y="-615.9" font-family="Times Roman,serif" font-size="14.00">coord_latitude :float</text>
<text text-anchor="start" x="461.5" y="-596.9" font-family="Times Roman,serif" font-size="14.00">date :date</text>
<text text-anchor="start" x="461.5" y="-577.9" font-family="Times Roman,serif" font-size="14.00">host_id :integer</text>
<text text-anchor="start" x="461.5" y="-558.9" font-family="Times Roman,serif" font-size="14.00">type_id :integer</text>
<text text-anchor="start" x="461.5" y="-539.9" font-family="Times Roman,serif" font-size="14.00">created_at :datetime</text>
<text text-anchor="start" x="461.5" y="-520.9" font-family="Times Roman,serif" font-size="14.00">updated_at :datetime</text>
<text text-anchor="start" x="461.5" y="-501.9" font-family="Times Roman,serif" font-size="14.00">blocked :boolean</text>
<text text-anchor="start" x="461.5" y="-482.9" font-family="Times Roman,serif" font-size="14.00">block_message :text</text>
<text text-anchor="start" x="461.5" y="-463.9" font-family="Times Roman,serif" font-size="14.00">address :string</text>
<text text-anchor="start" x="461.5" y="-444.9" font-family="Times Roman,serif" font-size="14.00">address_hidden :boolean</text>
<text text-anchor="start" x="461.5" y="-425.9" font-family="Times Roman,serif" font-size="14.00">avatar_file_name :string</text>
<text text-anchor="start" x="461.5" y="-406.9" font-family="Times Roman,serif" font-size="14.00">avatar_content_type :string</text>
<text text-anchor="start" x="461.5" y="-387.9" font-family="Times Roman,serif" font-size="14.00">avatar_file_size :integer</text>
<text text-anchor="start" x="461.5" y="-368.9" font-family="Times Roman,serif" font-size="14.00">avatar_updated_at :datetime</text>
<text text-anchor="start" x="461.5" y="-349.9" font-family="Times Roman,serif" font-size="14.00">party_rating_sum :integer</text>
<text text-anchor="start" x="461.5" y="-330.9" font-family="Times Roman,serif" font-size="14.00">party_rating_num :integer</text>
</g>
<!-- User&#45;&gt;Party -->
<g id="edge10" class="edge"><title>User&#45;&gt;Party</title>
<path fill="none" stroke="#712a02" d="M464.687,-843.036C472.275,-811.712 480.304,-778.564 488.195,-745.992"/>
<ellipse fill="none" stroke="#712a02" cx="463.739" cy="-846.951" rx="4.00001" ry="4.00001"/>
<polygon fill="#712a02" stroke="#712a02" points="488.284,-745.623 495.012,-736.964 489.461,-740.764 490.638,-735.904 490.638,-735.904 490.638,-735.904 489.461,-740.764 486.265,-734.845 488.284,-745.623 488.284,-745.623"/>
</g>
<!-- Profile -->
<g id="node6" class="node"><title>Profile</title>
<polyline fill="none" stroke="black" points="205,-244.5 363,-244.5 "/>
<path fill="none" stroke="black" d="M363,-244.5C369,-244.5 375,-250.5 375,-256.5"/>
<polyline fill="none" stroke="black" points="375,-256.5 375,-799.5 "/>
<path fill="none" stroke="black" d="M375,-799.5C375,-805.5 369,-811.5 363,-811.5"/>
<polyline fill="none" stroke="black" points="363,-811.5 205,-811.5 "/>
<path fill="none" stroke="black" d="M205,-811.5C199,-811.5 193,-805.5 193,-799.5"/>
<polyline fill="none" stroke="black" points="193,-799.5 193,-256.5 "/>
<path fill="none" stroke="black" d="M193,-256.5C193,-250.5 199,-244.5 205,-244.5"/>
<text text-anchor="middle" x="284" y="-794.9" font-family="Times Roman,serif" font-size="14.00">Profile</text>
<polyline fill="none" stroke="black" points="193,-784.5 375,-784.5 "/>
<text text-anchor="start" x="201" y="-767.9" font-family="Times Roman,serif" font-size="14.00">id :integer</text>
<text text-anchor="start" x="201" y="-748.9" font-family="Times Roman,serif" font-size="14.00">name :string</text>
<text text-anchor="start" x="201" y="-729.9" font-family="Times Roman,serif" font-size="14.00">surname :string</text>
<text text-anchor="start" x="201" y="-710.9" font-family="Times Roman,serif" font-size="14.00">photo :string</text>
<text text-anchor="start" x="201" y="-691.9" font-family="Times Roman,serif" font-size="14.00">birthday :date</text>
<text text-anchor="start" x="201" y="-672.9" font-family="Times Roman,serif" font-size="14.00">contacts :text</text>
<text text-anchor="start" x="201" y="-653.9" font-family="Times Roman,serif" font-size="14.00">user_id :integer</text>
<text text-anchor="start" x="201" y="-634.9" font-family="Times Roman,serif" font-size="14.00">created_at :datetime</text>
<text text-anchor="start" x="201" y="-615.9" font-family="Times Roman,serif" font-size="14.00">updated_at :datetime</text>
<text text-anchor="start" x="201" y="-596.9" font-family="Times Roman,serif" font-size="14.00">birthday_hidden :boolean</text>
<text text-anchor="start" x="201" y="-577.9" font-family="Times Roman,serif" font-size="14.00">skype :string</text>
<text text-anchor="start" x="201" y="-558.9" font-family="Times Roman,serif" font-size="14.00">skype_hidden :boolean</text>
<text text-anchor="start" x="201" y="-539.9" font-family="Times Roman,serif" font-size="14.00">phone :string</text>
<text text-anchor="start" x="201" y="-520.9" font-family="Times Roman,serif" font-size="14.00">phone_hidden :boolean</text>
<text text-anchor="start" x="201" y="-501.9" font-family="Times Roman,serif" font-size="14.00">vk :string</text>
<text text-anchor="start" x="201" y="-482.9" font-family="Times Roman,serif" font-size="14.00">vk_hidden :boolean</text>
<text text-anchor="start" x="201" y="-463.9" font-family="Times Roman,serif" font-size="14.00">fb :string</text>
<text text-anchor="start" x="201" y="-444.9" font-family="Times Roman,serif" font-size="14.00">fb_hidden :boolean</text>
<text text-anchor="start" x="201" y="-425.9" font-family="Times Roman,serif" font-size="14.00">avatar_file_name :string</text>
<text text-anchor="start" x="201" y="-406.9" font-family="Times Roman,serif" font-size="14.00">avatar_content_type :string</text>
<text text-anchor="start" x="201" y="-387.9" font-family="Times Roman,serif" font-size="14.00">avatar_file_size :integer</text>
<text text-anchor="start" x="201" y="-368.9" font-family="Times Roman,serif" font-size="14.00">avatar_updated_at :datetime</text>
<text text-anchor="start" x="201" y="-349.9" font-family="Times Roman,serif" font-size="14.00">host_rating_sum :integer</text>
<text text-anchor="start" x="201" y="-330.9" font-family="Times Roman,serif" font-size="14.00">host_rating_num :integer</text>
<text text-anchor="start" x="201" y="-311.9" font-family="Times Roman,serif" font-size="14.00">profile_rating_sum :integer</text>
<text text-anchor="start" x="201" y="-292.9" font-family="Times Roman,serif" font-size="14.00">profile_rating_num :integer</text>
<text text-anchor="start" x="201" y="-273.9" font-family="Times Roman,serif" font-size="14.00">thumb_social_avatar :string</text>
<text text-anchor="start" x="201" y="-254.9" font-family="Times Roman,serif" font-size="14.00">medium_social_avatar :string</text>
</g>
<!-- User&#45;&gt;Profile -->
<g id="edge8" class="edge"><title>User&#45;&gt;Profile</title>
<path fill="none" stroke="#229af1" d="M375.309,-843.017C373.074,-835.306 370.807,-827.485 368.518,-819.589"/>
<ellipse fill="none" stroke="#229af1" cx="376.463" cy="-846.997" rx="4.00001" ry="4.00001"/>
<ellipse fill="#229af1" stroke="#229af1" cx="367.336" cy="-815.511" rx="4.00001" ry="4.00001"/>
</g>
<!-- Party&#45;&gt;Guest -->
<g id="edge18" class="edge"><title>Party&#45;&gt;Guest</title>
<path fill="none" stroke="#8c5a3a" d="M604.185,-312.954C618.022,-287.605 634.769,-263.772 655,-244 671.295,-228.075 682.892,-236.713 703,-226 716.497,-218.809 716.693,-211.403 731,-206 804.56,-178.221 837.86,-225.449 907,-188 913.343,-184.564 919.353,-180.356 925.005,-175.646"/>
<ellipse fill="none" stroke="#8c5a3a" cx="602.238" cy="-316.61" rx="4.00002" ry="4.00002"/>
<polygon fill="#8c5a3a" stroke="#8c5a3a" points="925.043,-175.612 935.493,-172.286 928.766,-172.273 932.488,-168.935 932.488,-168.935 932.488,-168.935 928.766,-172.273 929.484,-165.585 925.043,-175.612 925.043,-175.612"/>
</g>
<!-- Party&#45;&gt;Comment -->
<g id="edge20" class="edge"><title>Party&#45;&gt;Comment</title>
<path fill="none" stroke="#4c100c" d="M451.342,-313.474C432.489,-286.84 410.186,-262.516 384,-244 344.267,-215.905 323.035,-238.477 276,-226 228.837,-213.489 213.88,-214.639 173,-188 172.816,-187.88 172.631,-187.759 172.447,-187.638"/>
<ellipse fill="none" stroke="#4c100c" cx="453.785" cy="-317.004" rx="4.00002" ry="4.00002"/>
<polygon fill="#4c100c" stroke="#4c100c" points="172.437,-187.631 166.8,-178.225 168.334,-184.775 164.23,-181.919 164.23,-181.919 164.23,-181.919 168.334,-184.775 161.659,-185.612 172.437,-187.631 172.437,-187.631"/>
</g>
<!-- ActsAsTaggableOn::Tagging -->
<g id="node22" class="node"><title>ActsAsTaggableOn::Tagging</title>
<ellipse fill="none" stroke="black" cx="767" cy="-94" rx="130.815" ry="19.0919"/>
<text text-anchor="middle" x="767" y="-90.9" font-family="Times Roman,serif" font-size="14.00">ActsAsTaggableOn::Tagging</text>
</g>
<!-- Party&#45;&gt;ActsAsTaggableOn::Tagging -->
<g id="edge22" class="edge"><title>Party&#45;&gt;ActsAsTaggableOn::Tagging</title>
<path fill="none" stroke="#f3c324" d="M601.405,-312.296C615.949,-275.466 633.387,-238.611 654,-206 675.573,-171.869 709.354,-140.198 734.366,-119.307"/>
<ellipse fill="none" stroke="#f3c324" cx="599.797" cy="-316.426" rx="4.00001" ry="4.00001"/>
<polygon fill="#f3c324" stroke="#f3c324" points="734.424,-119.259 745.008,-116.391 738.288,-116.086 742.153,-112.913 742.153,-112.913 742.153,-112.913 738.288,-116.086 739.297,-109.435 734.424,-119.259 734.424,-119.259"/>
<text text-anchor="middle" x="678.5" y="-212.9" font-family="Times Roman,serif" font-size="14.00">taggings</text>
</g>
<!-- Party&#45;&gt;ActsAsTaggableOn::Tagging -->
<g id="edge26" class="edge"><title>Party&#45;&gt;ActsAsTaggableOn::Tagging</title>
<path fill="none" stroke="#a2e46f" d="M524.228,-311.923C530.484,-273.487 543.655,-236.156 568,-206 585.221,-184.668 602.239,-199.769 627,-188 666.777,-169.093 708.151,-139.947 735.508,-119.124"/>
<ellipse fill="none" stroke="#a2e46f" cx="523.59" cy="-316.184" rx="4.00001" ry="4.00001"/>
<polygon fill="#a2e46f" stroke="#a2e46f" points="735.606,-119.049 746.275,-116.516 739.568,-115.999 743.531,-112.95 743.531,-112.95 743.531,-112.95 739.568,-115.999 740.786,-109.383 735.606,-119.049 735.606,-119.049"/>
<text text-anchor="middle" x="604.5" y="-212.9" font-family="Times Roman,serif" font-size="14.00">tag_taggings</text>
</g>
<!-- ActsAsTaggableOn::Tag -->
<g id="node24" class="node"><title>ActsAsTaggableOn::Tag</title>
<ellipse fill="none" stroke="black" cx="506" cy="-94" rx="111.93" ry="19.0919"/>
<text text-anchor="middle" x="506" y="-90.9" font-family="Times Roman,serif" font-size="14.00">ActsAsTaggableOn::Tag</text>
</g>
<!-- Party&#45;&gt;ActsAsTaggableOn::Tag -->
<g id="edge24" class="edge"><title>Party&#45;&gt;ActsAsTaggableOn::Tag</title>
<path fill="none" stroke="#cb0722" d="M454.179,-310.576C445.879,-282.497 438.784,-253.829 434,-226 427.106,-185.899 455.301,-145.693 478.41,-120.378"/>
<polygon fill="#cb0722" stroke="#cb0722" points="454.278,-310.906 452.854,-321.779 455.721,-315.694 457.163,-320.481 457.163,-320.481 457.163,-320.481 455.721,-315.694 461.472,-319.183 454.278,-310.906 454.278,-310.906"/>
<polygon fill="#cb0722" stroke="#cb0722" points="478.502,-120.281 488.643,-116.109 481.938,-116.649 485.374,-113.017 485.374,-113.017 485.374,-113.017 481.938,-116.649 482.105,-109.924 478.502,-120.281 478.502,-120.281"/>
<text text-anchor="middle" x="461.5" y="-212.9" font-family="Times Roman,serif" font-size="14.00">base_tags</text>
</g>
<!-- Party&#45;&gt;ActsAsTaggableOn::Tag -->
<g id="edge28" class="edge"><title>Party&#45;&gt;ActsAsTaggableOn::Tag</title>
<path fill="none" stroke="#1728dc" d="M518.766,-310.175C516.264,-281.874 513.927,-253.26 512,-226 509.512,-190.804 507.848,-150.251 506.915,-123.484"/>
<polygon fill="#1728dc" stroke="#1728dc" points="518.769,-310.209 515.175,-320.569 519.213,-315.189 519.657,-320.17 519.657,-320.17 519.657,-320.17 519.213,-315.189 524.14,-319.77 518.769,-310.209 518.769,-310.209"/>
<polygon fill="#1728dc" stroke="#1728dc" points="506.908,-123.249 511.069,-113.104 506.74,-118.252 506.572,-113.255 506.572,-113.255 506.572,-113.255 506.74,-118.252 502.074,-113.406 506.908,-123.249 506.908,-123.249"/>
<text text-anchor="middle" x="523.5" y="-212.9" font-family="Times Roman,serif" font-size="14.00">tags</text>
</g>
<!-- ActsAsVotable::Vote -->
<g id="node28" class="node"><title>ActsAsVotable::Vote</title>
<ellipse fill="none" stroke="black" cx="279" cy="-94" rx="97.0803" ry="19.0919"/>
<text text-anchor="middle" x="279" y="-90.9" font-family="Times Roman,serif" font-size="14.00">ActsAsVotable::Vote</text>
</g>
<!-- Party&#45;&gt;ActsAsVotable::Vote -->
<g id="edge30" class="edge"><title>Party&#45;&gt;ActsAsVotable::Vote</title>
<path fill="none" stroke="#84c2f1" d="M449.288,-355.196C428.537,-318.086 406.088,-279.399 384,-244 356.431,-199.818 321.146,-150.754 299.312,-121.15"/>
<ellipse fill="none" stroke="#84c2f1" cx="451.467" cy="-359.102" rx="4.00002" ry="4.00002"/>
<polygon fill="#84c2f1" stroke="#84c2f1" points="299.21,-121.013 296.876,-110.298 296.234,-116.994 293.259,-112.976 293.259,-112.976 293.259,-112.976 296.234,-116.994 289.642,-115.654 299.21,-121.013 299.21,-121.013"/>
<text text-anchor="middle" x="398" y="-212.9" font-family="Times Roman,serif" font-size="14.00">votes_for</text>
</g>
<!-- Profile&#45;&gt;Comment -->
<g id="edge34" class="edge"><title>Profile&#45;&gt;Comment</title>
<path fill="none" stroke="#ae877b" d="M193.181,-236.958C188.022,-226.369 182.629,-216.013 177,-206 174.761,-202.017 172.369,-198.042 169.858,-194.095"/>
<ellipse fill="none" stroke="#ae877b" cx="194.985" cy="-240.718" rx="4.00002" ry="4.00002"/>
<polygon fill="#ae877b" stroke="#ae877b" points="169.695,-193.847 167.937,-183.023 166.938,-189.675 164.182,-185.504 164.182,-185.504 164.182,-185.504 166.938,-189.675 160.427,-187.984 169.695,-193.847 169.695,-193.847"/>
</g>
<!-- Profile&#45;&gt;ActsAsVotable::Vote -->
<g id="edge36" class="edge"><title>Profile&#45;&gt;ActsAsVotable::Vote</title>
<path fill="none" stroke="#443348" d="M280.108,-236.236C280.071,-232.805 280.035,-229.392 280,-226 279.633,-190.753 279.346,-150.211 279.175,-123.46"/>
<ellipse fill="none" stroke="#443348" cx="280.152" cy="-240.274" rx="4" ry="4"/>
<polygon fill="#443348" stroke="#443348" points="279.174,-123.237 283.612,-113.209 279.143,-118.238 279.112,-113.238 279.112,-113.238 279.112,-113.238 279.143,-118.238 274.612,-113.266 279.174,-123.237 279.174,-123.237"/>
<text text-anchor="middle" x="307" y="-212.9" font-family="Times Roman,serif" font-size="14.00">votes_for</text>
</g>
<!-- Type -->
<g id="node7" class="node"><title>Type</title>
<polyline fill="none" stroke="black" points="644,-965 728,-965 "/>
<path fill="none" stroke="black" d="M728,-965C734,-965 740,-971 740,-977"/>
<polyline fill="none" stroke="black" points="740,-977 740,-1045 "/>
<path fill="none" stroke="black" d="M740,-1045C740,-1051 734,-1057 728,-1057"/>
<polyline fill="none" stroke="black" points="728,-1057 644,-1057 "/>
<path fill="none" stroke="black" d="M644,-1057C638,-1057 632,-1051 632,-1045"/>
<polyline fill="none" stroke="black" points="632,-1045 632,-977 "/>
<path fill="none" stroke="black" d="M632,-977C632,-971 638,-965 644,-965"/>
<text text-anchor="middle" x="686" y="-1040.4" font-family="Times Roman,serif" font-size="14.00">Type</text>
<polyline fill="none" stroke="black" points="632,-1030 740,-1030 "/>
<text text-anchor="start" x="640" y="-1013.4" font-family="Times Roman,serif" font-size="14.00">id :integer</text>
<text text-anchor="start" x="640" y="-994.4" font-family="Times Roman,serif" font-size="14.00">title :string</text>
<text text-anchor="start" x="640" y="-975.4" font-family="Times Roman,serif" font-size="14.00">description :text</text>
</g>
<!-- Type&#45;&gt;Party -->
<g id="edge40" class="edge"><title>Type&#45;&gt;Party</title>
<path fill="none" stroke="#bdf24e" d="M669.781,-956.973C654.261,-905.276 629.81,-823.83 606.365,-745.732"/>
<ellipse fill="none" stroke="#bdf24e" cx="670.947" cy="-960.857" rx="4.00001" ry="4.00001"/>
<polygon fill="#bdf24e" stroke="#bdf24e" points="606.238,-745.309 607.672,-734.438 604.8,-740.521 603.363,-735.732 603.363,-735.732 603.363,-735.732 604.8,-740.521 599.053,-737.026 606.238,-745.309 606.238,-745.309"/>
</g>
<!-- AdminUser -->
<g id="node8" class="node"><title>AdminUser</title>
<polyline fill="none" stroke="black" points="821,-870 1003,-870 "/>
<path fill="none" stroke="black" d="M1003,-870C1009,-870 1015,-876 1015,-882"/>
<polyline fill="none" stroke="black" points="1015,-882 1015,-1140 "/>
<path fill="none" stroke="black" d="M1015,-1140C1015,-1146 1009,-1152 1003,-1152"/>
<polyline fill="none" stroke="black" points="1003,-1152 821,-1152 "/>
<path fill="none" stroke="black" d="M821,-1152C815,-1152 809,-1146 809,-1140"/>
<polyline fill="none" stroke="black" points="809,-1140 809,-882 "/>
<path fill="none" stroke="black" d="M809,-882C809,-876 815,-870 821,-870"/>
<text text-anchor="middle" x="912" y="-1135.4" font-family="Times Roman,serif" font-size="14.00">AdminUser</text>
<polyline fill="none" stroke="black" points="809,-1125 1015,-1125 "/>
<text text-anchor="start" x="817" y="-1108.4" font-family="Times Roman,serif" font-size="14.00">id :integer</text>
<text text-anchor="start" x="817" y="-1089.4" font-family="Times Roman,serif" font-size="14.00">email :string</text>
<text text-anchor="start" x="817" y="-1070.4" font-family="Times Roman,serif" font-size="14.00">encrypted_password :string</text>
<text text-anchor="start" x="817" y="-1051.4" font-family="Times Roman,serif" font-size="14.00">reset_password_token :string</text>
<text text-anchor="start" x="817" y="-1032.4" font-family="Times Roman,serif" font-size="14.00">reset_password_sent_at :datetime</text>
<text text-anchor="start" x="817" y="-1013.4" font-family="Times Roman,serif" font-size="14.00">remember_created_at :datetime</text>
<text text-anchor="start" x="817" y="-994.4" font-family="Times Roman,serif" font-size="14.00">sign_in_count :integer</text>
<text text-anchor="start" x="817" y="-975.4" font-family="Times Roman,serif" font-size="14.00">current_sign_in_at :datetime</text>
<text text-anchor="start" x="817" y="-956.4" font-family="Times Roman,serif" font-size="14.00">last_sign_in_at :datetime</text>
<text text-anchor="start" x="817" y="-937.4" font-family="Times Roman,serif" font-size="14.00">current_sign_in_ip :string</text>
<text text-anchor="start" x="817" y="-918.4" font-family="Times Roman,serif" font-size="14.00">last_sign_in_ip :string</text>
<text text-anchor="start" x="817" y="-899.4" font-family="Times Roman,serif" font-size="14.00">created_at :datetime</text>
<text text-anchor="start" x="817" y="-880.4" font-family="Times Roman,serif" font-size="14.00">updated_at :datetime</text>
</g>
<!-- ActiveRecord::Base -->
<g id="node9" class="node"><title>ActiveRecord::Base</title>
<ellipse fill="none" stroke="black" cx="555" cy="-1229" rx="92.1303" ry="19.0919"/>
<text text-anchor="middle" x="555" y="-1225.9" font-family="Times Roman,serif" font-size="14.00">ActiveRecord::Base</text>
</g>
<!-- ActiveRecord::Base&#45;&gt;Guest -->
<g id="edge2" class="edge"><title>ActiveRecord::Base&#45;&gt;Guest</title>
<path fill="none" stroke="black" d="M624.833,-1216.61C673.428,-1206.54 732.372,-1190.92 749,-1172 796.828,-1117.58 785.8,-921.042 800,-850 850.292,-598.4 926.736,-303.832 962.81,-168.669"/>
</g>
<!-- ActiveRecord::Base&#45;&gt;Comment -->
<g id="edge6" class="edge"><title>ActiveRecord::Base&#45;&gt;Comment</title>
<path fill="none" stroke="black" d="M465.579,-1224.45C378.59,-1218.2 254.504,-1203.86 219,-1172 -62.8742,-919.049 13.0852,-399.913 59.0016,-187.615"/>
</g>
<!-- ActiveRecord::Base&#45;&gt;User -->
<g id="edge16" class="edge"><title>ActiveRecord::Base&#45;&gt;User</title>
<path fill="none" stroke="black" d="M543.604,-1210.04C537.503,-1199.88 529.356,-1186.33 520.17,-1171.04"/>
</g>
<!-- ActiveRecord::Base&#45;&gt;Party -->
<g id="edge32" class="edge"><title>ActiveRecord::Base&#45;&gt;Party</title>
<path fill="none" stroke="black" d="M554.618,-1209.89C553.272,-1142.47 548.637,-910.404 545.146,-735.582"/>
</g>
<!-- ActiveRecord::Base&#45;&gt;Profile -->
<g id="edge38" class="edge"><title>ActiveRecord::Base&#45;&gt;Profile</title>
<path fill="none" stroke="black" d="M472.983,-1220.35C410.743,-1211.94 332.493,-1196.73 312,-1172 230.513,-1073.65 216.115,-935.006 225.185,-811.534"/>
</g>
<!-- ActiveRecord::Base&#45;&gt;Type -->
<g id="edge42" class="edge"><title>ActiveRecord::Base&#45;&gt;Type</title>
<path fill="none" stroke="black" d="M566.396,-1210.04C586.689,-1176.26 629.629,-1104.81 658.149,-1057.35"/>
</g>
<!-- ActiveRecord::Base&#45;&gt;AdminUser -->
<g id="edge44" class="edge"><title>ActiveRecord::Base&#45;&gt;AdminUser</title>
<path fill="none" stroke="black" d="M642.609,-1223.01C700.53,-1217.64 770.189,-1208.08 795,-1192 811.486,-1181.32 826.13,-1167.4 838.995,-1152.03"/>
</g>
<!-- Object -->
<g id="node11" class="node"><title>Object</title>
<ellipse fill="none" stroke="black" cx="1061" cy="-1229" rx="39.0967" ry="19.0919"/>
<text text-anchor="middle" x="1061" y="-1225.9" font-family="Times Roman,serif" font-size="14.00">Object</text>
</g>
<!-- Object&#45;&gt;Ability -->
<g id="edge4" class="edge"><title>Object&#45;&gt;Ability</title>
<path fill="none" stroke="black" d="M1061,-1209.65C1061,-1170.68 1061,-1082.65 1061,-1038.02"/>
</g>
</g>
</svg>
