<?xml version="1.0" encoding="UTF-8" standalone="no"?>
<!DOCTYPE svg PUBLIC "-//W3C//DTD SVG 1.1//EN"
 "http://www.w3.org/Graphics/SVG/1.1/DTD/svg11.dtd">
<!-- Generated by graphviz version 2.26.3 (20100126.1600)
 -->
<!-- Title: models_diagram Pages: 1 -->
<svg width="701pt" height="330pt"
 viewBox="0.00 0.00 701.00 330.00" xmlns="http://www.w3.org/2000/svg" xmlns:xlink="http://www.w3.org/1999/xlink">
<g id="graph1" class="graph" transform="scale(1 1) rotate(0) translate(4 326)">
<title>models_diagram</title>
<polygon fill="white" stroke="white" points="-4,5 -4,-326 698,-326 698,5 -4,5"/>
<!-- _diagram_info -->
<g id="node1" class="node"><title>_diagram_info</title>
<text text-anchor="start" x="8" y="-305.8" font-family="Times Roman,serif" font-size="13.00">Models diagram</text>
<text text-anchor="start" x="8" y="-288.8" font-family="Times Roman,serif" font-size="13.00">Date: Dec 19 2014 &#45; 17:08</text>
<text text-anchor="start" x="8" y="-271.8" font-family="Times Roman,serif" font-size="13.00">Migration version: 20141211084050</text>
<text text-anchor="start" x="8" y="-254.8" font-family="Times Roman,serif" font-size="13.00">Generated by RailRoady 1.1.1</text>
<text text-anchor="start" x="8" y="-237.8" font-family="Times Roman,serif" font-size="13.00">http://railroady.prestonlee.com</text>
</g>
<!-- Guest -->
<g id="node2" class="node"><title>Guest</title>
<ellipse fill="none" stroke="black" cx="157" cy="-19" rx="34.8574" ry="19.0919"/>
<text text-anchor="middle" x="157" y="-15.9" font-family="Times Roman,serif" font-size="14.00">Guest</text>
</g>
<!-- Ability -->
<g id="node3" class="node"><title>Ability</title>
<polygon fill="none" stroke="black" points="682,-189 626,-189 626,-153 682,-153 682,-189"/>
<text text-anchor="middle" x="654" y="-167.9" font-family="Times Roman,serif" font-size="14.00">Ability</text>
</g>
<!-- Comment -->
<g id="node4" class="node"><title>Comment</title>
<ellipse fill="none" stroke="black" cx="363" cy="-19" rx="51.8276" ry="19.0919"/>
<text text-anchor="middle" x="363" y="-15.9" font-family="Times Roman,serif" font-size="14.00">Comment</text>
</g>
<!-- User -->
<g id="node5" class="node"><title>User</title>
<ellipse fill="none" stroke="black" cx="324" cy="-171" rx="31.1127" ry="19.0919"/>
<text text-anchor="middle" x="324" y="-167.9" font-family="Times Roman,serif" font-size="14.00">User</text>
</g>
<!-- User&#45;&gt;Guest -->
<g id="edge12" class="edge"><title>User&#45;&gt;Guest</title>
<path fill="none" stroke="#5f4b44" d="M299.792,-150.075C287.497,-139.371 272.37,-126.084 259,-114 232.414,-89.9723 202.456,-61.9551 181.923,-42.6035"/>
<ellipse fill="none" stroke="#5f4b44" cx="302.92" cy="-152.794" rx="4.00002" ry="4.00002"/>
<polygon fill="#5f4b44" stroke="#5f4b44" points="181.814,-42.5009 177.63,-32.3647 178.178,-39.0692 174.541,-35.6375 174.541,-35.6375 174.541,-35.6375 178.178,-39.0692 171.453,-38.9102 181.814,-42.5009 181.814,-42.5009"/>
<text text-anchor="middle" x="297" y="-91.9" font-family="Times Roman,serif" font-size="14.00">participations</text>
</g>
<!-- User&#45;&gt;Comment -->
<g id="edge14" class="edge"><title>User&#45;&gt;Comment</title>
<path fill="none" stroke="#73230c" d="M330.928,-143.997C337.847,-117.032 348.445,-75.7256 355.544,-48.0594"/>
<ellipse fill="none" stroke="#73230c" cx="329.855" cy="-148.182" rx="4.00001" ry="4.00001"/>
<polygon fill="#73230c" stroke="#73230c" points="355.593,-47.8686 362.437,-39.3007 356.836,-43.0254 358.078,-38.1823 358.078,-38.1823 358.078,-38.1823 356.836,-43.0254 353.719,-37.0639 355.593,-47.8686 355.593,-47.8686"/>
</g>
<!-- Party -->
<g id="node6" class="node"><title>Party</title>
<ellipse fill="none" stroke="black" cx="157" cy="-95" rx="33.234" ry="19.0919"/>
<text text-anchor="middle" x="157" y="-91.9" font-family="Times Roman,serif" font-size="14.00">Party</text>
</g>
<!-- User&#45;&gt;Party -->
<g id="edge10" class="edge"><title>User&#45;&gt;Party</title>
<path fill="none" stroke="#c73513" d="M288.728,-159.276C258.232,-149.099 218.494,-135.729 215,-134 204.863,-128.983 194.419,-122.449 185.235,-116.168"/>
<ellipse fill="none" stroke="#c73513" cx="292.855" cy="-160.651" rx="4.00001" ry="4.00001"/>
<polygon fill="#c73513" stroke="#c73513" points="185.046,-116.035 179.456,-106.6 180.957,-113.158 176.867,-110.281 176.867,-110.281 176.867,-110.281 180.957,-113.158 174.278,-113.961 185.046,-116.035 185.046,-116.035"/>
</g>
<!-- Profile -->
<g id="node7" class="node"><title>Profile</title>
<ellipse fill="none" stroke="black" cx="397" cy="-95" rx="39.0967" ry="19.0919"/>
<text text-anchor="middle" x="397" y="-91.9" font-family="Times Roman,serif" font-size="14.00">Profile</text>
</g>
<!-- User&#45;&gt;Profile -->
<g id="edge8" class="edge"><title>User&#45;&gt;Profile</title>
<path fill="none" stroke="#7d4cb0" d="M345.445,-148.673C354.697,-139.042 365.512,-127.782 374.841,-118.069"/>
<ellipse fill="none" stroke="#7d4cb0" cx="342.611" cy="-151.624" rx="4.00002" ry="4.00002"/>
<ellipse fill="#7d4cb0" stroke="#7d4cb0" cx="377.66" cy="-115.135" rx="4.00002" ry="4.00002"/>
</g>
<!-- Party&#45;&gt;Guest -->
<g id="edge18" class="edge"><title>Party&#45;&gt;Guest</title>
<path fill="none" stroke="#2f47b8" d="M157,-67.5876C157,-61.3429 157,-54.6836 157,-48.3613"/>
<ellipse fill="none" stroke="#2f47b8" cx="157" cy="-71.822" rx="4" ry="4"/>
<polygon fill="#2f47b8" stroke="#2f47b8" points="157,-48.1719 161.5,-38.1718 157,-43.1719 157,-38.1719 157,-38.1719 157,-38.1719 157,-43.1719 152.5,-38.1719 157,-48.1719 157,-48.1719"/>
</g>
<!-- Party&#45;&gt;Comment -->
<g id="edge20" class="edge"><title>Party&#45;&gt;Comment</title>
<path fill="none" stroke="#c01eee" d="M191.964,-80.6861C196.013,-79.0818 200.091,-77.4901 204,-76 241.248,-61.801 283.771,-46.6094 315.464,-35.483"/>
<ellipse fill="none" stroke="#c01eee" cx="187.98" cy="-82.2787" rx="4.00001" ry="4.00001"/>
<polygon fill="#c01eee" stroke="#c01eee" points="315.497,-35.4717 326.422,-36.4131 320.216,-33.8189 324.935,-32.166 324.935,-32.166 324.935,-32.166 320.216,-33.8189 323.447,-27.919 315.497,-35.4717 315.497,-35.4717"/>
</g>
<!-- Profile&#45;&gt;Comment -->
<g id="edge24" class="edge"><title>Profile&#45;&gt;Comment</title>
<path fill="none" stroke="#8fd17e" d="M385.25,-68.7359C382.123,-61.7458 378.733,-54.1683 375.564,-47.085"/>
<ellipse fill="none" stroke="#8fd17e" cx="386.962" cy="-72.5622" rx="4.00002" ry="4.00002"/>
<polygon fill="#8fd17e" stroke="#8fd17e" points="375.509,-46.962 375.533,-35.9961 373.468,-42.3979 371.426,-37.8338 371.426,-37.8338 371.426,-37.8338 373.468,-42.3979 367.318,-39.6715 375.509,-46.962 375.509,-46.962"/>
</g>
<!-- Type -->
<g id="node8" class="node"><title>Type</title>
<ellipse fill="none" stroke="black" cx="224" cy="-171" rx="33.234" ry="19.0919"/>
<text text-anchor="middle" x="224" y="-167.9" font-family="Times Roman,serif" font-size="14.00">Type</text>
</g>
<!-- Type&#45;&gt;Party -->
<g id="edge28" class="edge"><title>Type&#45;&gt;Party</title>
<path fill="none" stroke="#7c4ca0" d="M202.655,-148.065C198.427,-143.439 194.046,-138.588 190,-134 186.016,-129.483 181.824,-124.618 177.814,-119.908"/>
<ellipse fill="none" stroke="#7c4ca0" cx="205.574" cy="-151.241" rx="4.00002" ry="4.00002"/>
<polygon fill="#7c4ca0" stroke="#7c4ca0" points="177.766,-119.85 174.743,-109.309 174.536,-116.033 171.307,-112.215 171.307,-112.215 171.307,-112.215 174.536,-116.033 167.872,-115.121 177.766,-119.85 177.766,-119.85"/>
</g>
<!-- AdminUser -->
<g id="node9" class="node"><title>AdminUser</title>
<ellipse fill="none" stroke="black" cx="550" cy="-171" rx="58.1882" ry="19.0919"/>
<text text-anchor="middle" x="550" y="-167.9" font-family="Times Roman,serif" font-size="14.00">AdminUser</text>
</g>
<!-- ActiveRecord::Base -->
<g id="node10" class="node"><title>ActiveRecord::Base</title>
<ellipse fill="none" stroke="black" cx="324" cy="-275" rx="92.1303" ry="19.0919"/>
<text text-anchor="middle" x="324" y="-271.9" font-family="Times Roman,serif" font-size="14.00">ActiveRecord::Base</text>
</g>
<!-- ActiveRecord::Base&#45;&gt;Guest -->
<g id="edge2" class="edge"><title>ActiveRecord::Base&#45;&gt;Guest</title>
<path fill="none" stroke="black" d="M285.266,-257.763C243.498,-238.668 180.375,-208.181 161,-190 121.158,-152.614 97.9424,-127.905 115,-76 119.989,-60.819 130.742,-46.3574 140.118,-35.7994"/>
</g>
<!-- ActiveRecord::Base&#45;&gt;Comment -->
<g id="edge6" class="edge"><title>ActiveRecord::Base&#45;&gt;Comment</title>
<path fill="none" stroke="black" d="M344.875,-256.178C373.918,-228.427 425.178,-173.366 445,-114 450.349,-97.9804 452.824,-90.9673 445,-76 434.96,-56.7938 415.174,-42.7538 397.554,-33.414"/>
</g>
<!-- ActiveRecord::Base&#45;&gt;User -->
<g id="edge16" class="edge"><title>ActiveRecord::Base&#45;&gt;User</title>
<path fill="none" stroke="black" d="M324,-255.925C324,-237.277 324,-209.033 324,-190.306"/>
</g>
<!-- ActiveRecord::Base&#45;&gt;Party -->
<g id="edge22" class="edge"><title>ActiveRecord::Base&#45;&gt;Party</title>
<path fill="none" stroke="black" d="M287.986,-257.427C250.78,-238.603 196.196,-208.893 182,-190 165.199,-167.639 159.664,-134.94 157.856,-114.325"/>
</g>
<!-- ActiveRecord::Base&#45;&gt;Profile -->
<g id="edge26" class="edge"><title>ActiveRecord::Base&#45;&gt;Profile</title>
<path fill="none" stroke="black" d="M333.641,-256.015C342.132,-238.955 354.58,-213.107 364,-190 374.611,-163.97 384.928,-133.106 391.123,-113.784"/>
</g>
<!-- ActiveRecord::Base&#45;&gt;Type -->
<g id="edge30" class="edge"><title>ActiveRecord::Base&#45;&gt;Type</title>
<path fill="none" stroke="black" d="M305.658,-255.925C286.939,-236.456 258.161,-206.527 240.241,-187.89"/>
</g>
<!-- ActiveRecord::Base&#45;&gt;AdminUser -->
<g id="edge32" class="edge"><title>ActiveRecord::Base&#45;&gt;AdminUser</title>
<path fill="none" stroke="black" d="M366.982,-258.162C398.146,-245.64 441.118,-227.721 478,-210 492.351,-203.105 507.926,-194.778 520.908,-187.592"/>
</g>
<!-- Object -->
<g id="node12" class="node"><title>Object</title>
<ellipse fill="none" stroke="black" cx="654" cy="-275" rx="39.0967" ry="19.0919"/>
<text text-anchor="middle" x="654" y="-271.9" font-family="Times Roman,serif" font-size="14.00">Object</text>
</g>
<!-- Object&#45;&gt;Ability -->
<g id="edge4" class="edge"><title>Object&#45;&gt;Ability</title>
<path fill="none" stroke="black" d="M654,-255.925C654,-236.925 654,-207.964 654,-189.257"/>
</g>
</g>
</svg>
