<?xml version="1.0" encoding="UTF-8" standalone="no"?>
<!DOCTYPE svg PUBLIC "-//W3C//DTD SVG 1.1//EN"
 "http://www.w3.org/Graphics/SVG/1.1/DTD/svg11.dtd">
<!-- Generated by graphviz version 2.36.0 (20140111.2315)
 -->
<!-- Title: models_diagram Pages: 1 -->
<svg width="560pt" height="646pt"
 viewBox="0.00 0.00 560.00 646.00" xmlns="http://www.w3.org/2000/svg" xmlns:xlink="http://www.w3.org/1999/xlink">
<g id="graph0" class="graph" transform="scale(1 1) rotate(0) translate(4 642)">
<title>models_diagram</title>
<polygon fill="white" stroke="none" points="-4,4 -4,-642 556,-642 556,4 -4,4"/>
<!-- AdminUser -->
<g id="node1" class="node"><title>AdminUser</title>
<path fill="none" stroke="black" d="M12,-396C12,-396 188,-396 188,-396 194,-396 200,-402 200,-408 200,-408 200,-610 200,-610 200,-616 194,-622 188,-622 188,-622 12,-622 12,-622 6,-622 0,-616 0,-610 0,-610 0,-408 0,-408 0,-402 6,-396 12,-396"/>
<text text-anchor="middle" x="100" y="-606.8" font-family="Times,serif" font-size="14.00">AdminUser</text>
<polyline fill="none" stroke="black" points="0,-599 200,-599 "/>
<text text-anchor="start" x="8" y="-583.8" font-family="Times,serif" font-size="14.00">id :integer</text>
<text text-anchor="start" x="8" y="-568.8" font-family="Times,serif" font-size="14.00">email :string</text>
<text text-anchor="start" x="8" y="-553.8" font-family="Times,serif" font-size="14.00">encrypted_password :string</text>
<text text-anchor="start" x="8" y="-538.8" font-family="Times,serif" font-size="14.00">reset_password_token :string</text>
<text text-anchor="start" x="8" y="-523.8" font-family="Times,serif" font-size="14.00">reset_password_sent_at :datetime</text>
<text text-anchor="start" x="8" y="-508.8" font-family="Times,serif" font-size="14.00">remember_created_at :datetime</text>
<text text-anchor="start" x="8" y="-493.8" font-family="Times,serif" font-size="14.00">sign_in_count :integer</text>
<text text-anchor="start" x="8" y="-478.8" font-family="Times,serif" font-size="14.00">current_sign_in_at :datetime</text>
<text text-anchor="start" x="8" y="-463.8" font-family="Times,serif" font-size="14.00">last_sign_in_at :datetime</text>
<text text-anchor="start" x="8" y="-448.8" font-family="Times,serif" font-size="14.00">current_sign_in_ip :string</text>
<text text-anchor="start" x="8" y="-433.8" font-family="Times,serif" font-size="14.00">last_sign_in_ip :string</text>
<text text-anchor="start" x="8" y="-418.8" font-family="Times,serif" font-size="14.00">created_at :datetime</text>
<text text-anchor="start" x="8" y="-403.8" font-family="Times,serif" font-size="14.00">updated_at :datetime</text>
</g>
<!-- User -->
<g id="node2" class="node"><title>User</title>
<path fill="none" stroke="black" d="M230,-381C230,-381 406,-381 406,-381 412,-381 418,-387 418,-393 418,-393 418,-625 418,-625 418,-631 412,-637 406,-637 406,-637 230,-637 230,-637 224,-637 218,-631 218,-625 218,-625 218,-393 218,-393 218,-387 224,-381 230,-381"/>
<text text-anchor="middle" x="318" y="-621.8" font-family="Times,serif" font-size="14.00">User</text>
<polyline fill="none" stroke="black" points="218,-614 418,-614 "/>
<text text-anchor="start" x="226" y="-598.8" font-family="Times,serif" font-size="14.00">id :integer</text>
<text text-anchor="start" x="226" y="-583.8" font-family="Times,serif" font-size="14.00">email :string</text>
<text text-anchor="start" x="226" y="-568.8" font-family="Times,serif" font-size="14.00">encrypted_password :string</text>
<text text-anchor="start" x="226" y="-553.8" font-family="Times,serif" font-size="14.00">reset_password_token :string</text>
<text text-anchor="start" x="226" y="-538.8" font-family="Times,serif" font-size="14.00">reset_password_sent_at :datetime</text>
<text text-anchor="start" x="226" y="-523.8" font-family="Times,serif" font-size="14.00">remember_created_at :datetime</text>
<text text-anchor="start" x="226" y="-508.8" font-family="Times,serif" font-size="14.00">sign_in_count :integer</text>
<text text-anchor="start" x="226" y="-493.8" font-family="Times,serif" font-size="14.00">current_sign_in_at :datetime</text>
<text text-anchor="start" x="226" y="-478.8" font-family="Times,serif" font-size="14.00">last_sign_in_at :datetime</text>
<text text-anchor="start" x="226" y="-463.8" font-family="Times,serif" font-size="14.00">current_sign_in_ip :string</text>
<text text-anchor="start" x="226" y="-448.8" font-family="Times,serif" font-size="14.00">last_sign_in_ip :string</text>
<text text-anchor="start" x="226" y="-433.8" font-family="Times,serif" font-size="14.00">created_at :datetime</text>
<text text-anchor="start" x="226" y="-418.8" font-family="Times,serif" font-size="14.00">updated_at :datetime</text>
<text text-anchor="start" x="226" y="-403.8" font-family="Times,serif" font-size="14.00">provider :string</text>
<text text-anchor="start" x="226" y="-388.8" font-family="Times,serif" font-size="14.00">uid :integer</text>
</g>
<!-- Profile -->
<g id="node3" class="node"><title>Profile</title>
<path fill="none" stroke="black" d="M167.5,-168C167.5,-168 274.5,-168 274.5,-168 280.5,-168 286.5,-174 286.5,-180 286.5,-180 286.5,-322 286.5,-322 286.5,-328 280.5,-334 274.5,-334 274.5,-334 167.5,-334 167.5,-334 161.5,-334 155.5,-328 155.5,-322 155.5,-322 155.5,-180 155.5,-180 155.5,-174 161.5,-168 167.5,-168"/>
<text text-anchor="middle" x="221" y="-318.8" font-family="Times,serif" font-size="14.00">Profile</text>
<polyline fill="none" stroke="black" points="155.5,-311 286.5,-311 "/>
<text text-anchor="start" x="163.5" y="-295.8" font-family="Times,serif" font-size="14.00">id :integer</text>
<text text-anchor="start" x="163.5" y="-280.8" font-family="Times,serif" font-size="14.00">name :string</text>
<text text-anchor="start" x="163.5" y="-265.8" font-family="Times,serif" font-size="14.00">surname :string</text>
<text text-anchor="start" x="163.5" y="-250.8" font-family="Times,serif" font-size="14.00">photo :string</text>
<text text-anchor="start" x="163.5" y="-235.8" font-family="Times,serif" font-size="14.00">birthday :date</text>
<text text-anchor="start" x="163.5" y="-220.8" font-family="Times,serif" font-size="14.00">contacts :text</text>
<text text-anchor="start" x="163.5" y="-205.8" font-family="Times,serif" font-size="14.00">user_id :integer</text>
<text text-anchor="start" x="163.5" y="-190.8" font-family="Times,serif" font-size="14.00">created_at :datetime</text>
<text text-anchor="start" x="163.5" y="-175.8" font-family="Times,serif" font-size="14.00">updated_at :datetime</text>
</g>
<!-- User&#45;&gt;Profile -->
<g id="edge1" class="edge"><title>User&#45;&gt;Profile</title>
<path fill="none" stroke="#79144f" d="M266.837,-372.971C262.851,-362.452 258.89,-351.997 255.06,-341.891"/>
<ellipse fill="none" stroke="#79144f" cx="268.367" cy="-377.01" rx="4.00001" ry="4.00001"/>
<ellipse fill="#79144f" stroke="#79144f" cx="253.577" cy="-337.976" rx="4.00001" ry="4.00001"/>
</g>
<!-- Party -->
<g id="node5" class="node"><title>Party</title>
<path fill="none" stroke="black" d="M427.5,-160.5C427.5,-160.5 540.5,-160.5 540.5,-160.5 546.5,-160.5 552.5,-166.5 552.5,-172.5 552.5,-172.5 552.5,-329.5 552.5,-329.5 552.5,-335.5 546.5,-341.5 540.5,-341.5 540.5,-341.5 427.5,-341.5 427.5,-341.5 421.5,-341.5 415.5,-335.5 415.5,-329.5 415.5,-329.5 415.5,-172.5 415.5,-172.5 415.5,-166.5 421.5,-160.5 427.5,-160.5"/>
<text text-anchor="middle" x="484" y="-326.3" font-family="Times,serif" font-size="14.00">Party</text>
<polyline fill="none" stroke="black" points="415.5,-318.5 552.5,-318.5 "/>
<text text-anchor="start" x="423.5" y="-303.3" font-family="Times,serif" font-size="14.00">id :integer</text>
<text text-anchor="start" x="423.5" y="-288.3" font-family="Times,serif" font-size="14.00">title :string</text>
<text text-anchor="start" x="423.5" y="-273.3" font-family="Times,serif" font-size="14.00">summary :text</text>
<text text-anchor="start" x="423.5" y="-258.3" font-family="Times,serif" font-size="14.00">coord_longitude :float</text>
<text text-anchor="start" x="423.5" y="-243.3" font-family="Times,serif" font-size="14.00">coord_latitude :float</text>
<text text-anchor="start" x="423.5" y="-228.3" font-family="Times,serif" font-size="14.00">date :date</text>
<text text-anchor="start" x="423.5" y="-213.3" font-family="Times,serif" font-size="14.00">host_id :integer</text>
<text text-anchor="start" x="423.5" y="-198.3" font-family="Times,serif" font-size="14.00">type_id :integer</text>
<text text-anchor="start" x="423.5" y="-183.3" font-family="Times,serif" font-size="14.00">created_at :datetime</text>
<text text-anchor="start" x="423.5" y="-168.3" font-family="Times,serif" font-size="14.00">updated_at :datetime</text>
</g>
<!-- User&#45;&gt;Party -->
<g id="edge2" class="edge"><title>User&#45;&gt;Party</title>
<path fill="none" stroke="#2750d7" d="M404.918,-373.958C410.109,-365.953 415.279,-357.979 420.348,-350.163"/>
<ellipse fill="none" stroke="#2750d7" cx="402.69" cy="-377.394" rx="4.00002" ry="4.00002"/>
<polygon fill="#2750d7" stroke="#2750d7" points="420.363,-350.139 429.579,-344.197 423.083,-345.944 425.804,-341.748 425.804,-341.748 425.804,-341.748 423.083,-345.944 422.028,-339.3 420.363,-350.139 420.363,-350.139"/>
</g>
<!-- Guest -->
<g id="node6" class="node"><title>Guest</title>
<path fill="none" stroke="black" d="M315.5,-0.5C315.5,-0.5 422.5,-0.5 422.5,-0.5 428.5,-0.5 434.5,-6.5 434.5,-12.5 434.5,-12.5 434.5,-109.5 434.5,-109.5 434.5,-115.5 428.5,-121.5 422.5,-121.5 422.5,-121.5 315.5,-121.5 315.5,-121.5 309.5,-121.5 303.5,-115.5 303.5,-109.5 303.5,-109.5 303.5,-12.5 303.5,-12.5 303.5,-6.5 309.5,-0.5 315.5,-0.5"/>
<text text-anchor="middle" x="369" y="-106.3" font-family="Times,serif" font-size="14.00">Guest</text>
<polyline fill="none" stroke="black" points="303.5,-98.5 434.5,-98.5 "/>
<text text-anchor="start" x="311.5" y="-83.3" font-family="Times,serif" font-size="14.00">id :integer</text>
<text text-anchor="start" x="311.5" y="-68.3" font-family="Times,serif" font-size="14.00">party_id :integer</text>
<text text-anchor="start" x="311.5" y="-53.3" font-family="Times,serif" font-size="14.00">user_id :integer</text>
<text text-anchor="start" x="311.5" y="-38.3" font-family="Times,serif" font-size="14.00">accepted :boolean</text>
<text text-anchor="start" x="311.5" y="-23.3" font-family="Times,serif" font-size="14.00">created_at :datetime</text>
<text text-anchor="start" x="311.5" y="-8.3" font-family="Times,serif" font-size="14.00">updated_at :datetime</text>
</g>
<!-- User&#45;&gt;Guest -->
<g id="edge3" class="edge"><title>User&#45;&gt;Guest</title>
<path fill="none" stroke="#ba3749" d="M314.186,-372.58C314.804,-307.701 319.142,-229.232 333,-160 334.908,-150.469 337.596,-140.631 340.654,-131.033"/>
<ellipse fill="none" stroke="#ba3749" cx="314.155" cy="-376.828" rx="4" ry="4"/>
<polygon fill="#ba3749" stroke="#ba3749" points="340.658,-131.022 348.089,-122.958 342.239,-126.278 343.82,-121.535 343.82,-121.535 343.82,-121.535 342.239,-126.278 339.551,-120.112 340.658,-131.022 340.658,-131.022"/>
<text text-anchor="middle" x="370" y="-247.3" font-family="Times,serif" font-size="14.00">participations</text>
</g>
<!-- Type -->
<g id="node4" class="node"><title>Type</title>
<path fill="none" stroke="black" d="M448,-471C448,-471 528,-471 528,-471 534,-471 540,-477 540,-483 540,-483 540,-535 540,-535 540,-541 534,-547 528,-547 528,-547 448,-547 448,-547 442,-547 436,-541 436,-535 436,-535 436,-483 436,-483 436,-477 442,-471 448,-471"/>
<text text-anchor="middle" x="488" y="-531.8" font-family="Times,serif" font-size="14.00">Type</text>
<polyline fill="none" stroke="black" points="436,-524 540,-524 "/>
<text text-anchor="start" x="444" y="-508.8" font-family="Times,serif" font-size="14.00">id :integer</text>
<text text-anchor="start" x="444" y="-493.8" font-family="Times,serif" font-size="14.00">title :string</text>
<text text-anchor="start" x="444" y="-478.8" font-family="Times,serif" font-size="14.00">description :text</text>
</g>
<!-- Type&#45;&gt;Party -->
<g id="edge4" class="edge"><title>Type&#45;&gt;Party</title>
<path fill="none" stroke="#3ce98b" d="M487.29,-462.555C486.81,-431.808 486.156,-389.977 485.558,-351.7"/>
<ellipse fill="none" stroke="#3ce98b" cx="487.356" cy="-466.776" rx="4" ry="4"/>
<polygon fill="#3ce98b" stroke="#3ce98b" points="485.555,-351.533 489.898,-341.464 485.477,-346.534 485.399,-341.534 485.399,-341.534 485.399,-341.534 485.477,-346.534 480.9,-341.605 485.555,-351.533 485.555,-351.533"/>
</g>
<!-- Party&#45;&gt;Guest -->
<g id="edge5" class="edge"><title>Party&#45;&gt;Guest</title>
<path fill="none" stroke="#237fa4" d="M424.857,-153.313C420.113,-145.558 415.383,-137.827 410.799,-130.332"/>
<ellipse fill="none" stroke="#237fa4" cx="427.107" cy="-156.993" rx="4.00002" ry="4.00002"/>
<polygon fill="#237fa4" stroke="#237fa4" points="410.709,-130.184 409.329,-119.306 408.1,-125.919 405.49,-121.654 405.49,-121.654 405.49,-121.654 408.1,-125.919 401.652,-124.002 410.709,-130.184 410.709,-130.184"/>
</g>
</g>
</svg>
