<svg version="1.1" xmlns="http://www.w3.org/2000/svg" xmlns:xlink="http://www.w3.org/1999/xlink" width="2940" height="549"><defs/><g transform="translate(0,0)"><g><rect fill="#ffffff" stroke="none" x="0" y="0" width="2940" height="549"/></g><g transform="translate(0,0) matrix(1,0,0,1,1117.5,80)"><g><g transform="translate(0,0) scale(1.8,0.3)"><g><path fill="#ffffff" stroke="none" d="M 0 0 L 100 0 Q 100 0 100 0 L 100 100 Q 100 100 100 100 L 0 100 Q 0 100 0 100 L 0 0 Q 0 0 0 0 Z"/><g transform="scale(0.5555555555555556,3.3333333333333335)"><path fill="none" stroke="none" d="M 0 0 L 180 0 Q 180 0 180 0 L 180 30 Q 180 30 180 30 L 0 30 Q 0 30 0 30 L 0 0 Q 0 0 0 0 Z"/><path fill="none" stroke="#999999" d="M 0 0 M 0 0 L 180 0 Q 180 0 180 0 L 180 30 Q 180 30 180 30 L 0 30 Q 0 30 0 30 L 0 0 Q 0 0 0 0 Z" stroke-miterlimit="10" stroke-width="2"/></g></g></g></g></g><g transform="scale(1,1) matrix(1,0,0,1,1117.5,80) translate(2,2)"><text fill="#000000" stroke="none" font-family="Arial" font-size="18px" font-style="normal" font-weight="normal" text-decoration="none" x="83" y="15">7</text></g><g transform="translate(0,0) matrix(1,0,0,1,1117.5,110)"><g><g transform="translate(0,0) scale(1.8,4.19)"><g><path fill="rgb(255,255,255)" stroke="none" d="M 0 0 L 100 0 Q 100 0 100 0 L 100 100 Q 100 100 100 100 L 0 100 Q 0 100 0 100 L 0 0 Q 0 0 0 0 Z" fill-opacity="0.008"/><g transform="scale(0.5555555555555556,0.2386634844868735)"><path fill="none" stroke="none" d="M 0 0 L 180 0 Q 180 0 180 0 L 180 419.00000000000006 Q 180 419.00000000000006 180 419.00000000000006 L 0 419.00000000000006 Q 0 419.00000000000006 0 419.00000000000006 L 0 0 Q 0 0 0 0 Z"/><path fill="none" stroke="#999999" d="M 0 0 M 0 0 L 180 0 Q 180 0 180 0 L 180 419.00000000000006 Q 180 419.00000000000006 180 419.00000000000006 L 0 419.00000000000006 Q 0 419.00000000000006 0 419.00000000000006 L 0 0 Q 0 0 0 0 Z" stroke-miterlimit="10" stroke-width="2"/></g></g></g></g></g><g transform="scale(1,1) matrix(1,0,0,1,1117.5,110) translate(2,2)"><text fill="#000000" stroke="none" font-family="Arial" font-size="18px" font-style="normal" font-weight="normal" text-decoration="none" x="85.5" y="15">&#160;</text></g><g transform="translate(0,0) matrix(1,0,0,1,1297.5,80)"><g><g transform="translate(0,0) scale(1.8,0.3)"><g><path fill="#ffffff" stroke="none" d="M 0 0 L 100 0 Q 100 0 100 0 L 100 100 Q 100 100 100 100 L 0 100 Q 0 100 0 100 L 0 0 Q 0 0 0 0 Z"/><g transform="scale(0.5555555555555556,3.3333333333333335)"><path fill="none" stroke="none" d="M 0 0 L 180 0 Q 180 0 180 0 L 180 30 Q 180 30 180 30 L 0 30 Q 0 30 0 30 L 0 0 Q 0 0 0 0 Z"/><path fill="none" stroke="#999999" d="M 0 0 M 0 0 L 180 0 Q 180 0 180 0 L 180 30 Q 180 30 180 30 L 0 30 Q 0 30 0 30 L 0 0 Q 0 0 0 0 Z" stroke-miterlimit="10" stroke-width="2"/></g></g></g></g></g><g transform="scale(1,1) matrix(1,0,0,1,1297.5,80) translate(2,2)"><text fill="#000000" stroke="none" font-family="Arial" font-size="18px" font-style="normal" font-weight="normal" text-decoration="none" x="83" y="15">8</text></g><g transform="translate(0,0) matrix(1,0,0,1,1297.5,110)"><g><g transform="translate(0,0) scale(1.8,4.19)"><g><path fill="rgb(255,255,255)" stroke="none" d="M 0 0 L 100 0 Q 100 0 100 0 L 100 100 Q 100 100 100 100 L 0 100 Q 0 100 0 100 L 0 0 Q 0 0 0 0 Z" fill-opacity="0.008"/><g transform="scale(0.5555555555555556,0.2386634844868735)"><path fill="none" stroke="none" d="M 0 0 L 180 0 Q 180 0 180 0 L 180 419.00000000000006 Q 180 419.00000000000006 180 419.00000000000006 L 0 419.00000000000006 Q 0 419.00000000000006 0 419.00000000000006 L 0 0 Q 0 0 0 0 Z"/><path fill="none" stroke="#999999" d="M 0 0 M 0 0 L 180 0 Q 180 0 180 0 L 180 419.00000000000006 Q 180 419.00000000000006 180 419.00000000000006 L 0 419.00000000000006 Q 0 419.00000000000006 0 419.00000000000006 L 0 0 Q 0 0 0 0 Z" stroke-miterlimit="10" stroke-width="2"/></g></g></g></g></g><g transform="scale(1,1) matrix(1,0,0,1,1297.5,110) translate(2,2)"><text fill="#000000" stroke="none" font-family="Arial" font-size="18px" font-style="normal" font-weight="normal" text-decoration="none" x="85.5" y="15">&#160;</text></g><g transform="translate(0,0) matrix(1,0,0,1,1477.5,80)"><g><g transform="translate(0,0) scale(1.8,0.3)"><g><path fill="#ffffff" stroke="none" d="M 0 0 L 100 0 Q 100 0 100 0 L 100 100 Q 100 100 100 100 L 0 100 Q 0 100 0 100 L 0 0 Q 0 0 0 0 Z"/><g transform="scale(0.5555555555555556,3.3333333333333335)"><path fill="none" stroke="none" d="M 0 0 L 180 0 Q 180 0 180 0 L 180 30 Q 180 30 180 30 L 0 30 Q 0 30 0 30 L 0 0 Q 0 0 0 0 Z"/><path fill="none" stroke="#999999" d="M 0 0 M 0 0 L 180 0 Q 180 0 180 0 L 180 30 Q 180 30 180 30 L 0 30 Q 0 30 0 30 L 0 0 Q 0 0 0 0 Z" stroke-miterlimit="10" stroke-width="2"/></g></g></g></g></g><g transform="scale(1,1) matrix(1,0,0,1,1477.5,80) translate(2,2)"><text fill="#000000" stroke="none" font-family="Arial" font-size="18px" font-style="normal" font-weight="normal" text-decoration="none" x="83" y="15">9</text></g><g transform="translate(0,0) matrix(1,0,0,1,1477.5,110)"><g><g transform="translate(0,0) scale(1.8,4.19)"><g><path fill="rgb(255,255,255)" stroke="none" d="M 0 0 L 100 0 Q 100 0 100 0 L 100 100 Q 100 100 100 100 L 0 100 Q 0 100 0 100 L 0 0 Q 0 0 0 0 Z" fill-opacity="0.008"/><g transform="scale(0.5555555555555556,0.2386634844868735)"><path fill="none" stroke="none" d="M 0 0 L 180 0 Q 180 0 180 0 L 180 419.00000000000006 Q 180 419.00000000000006 180 419.00000000000006 L 0 419.00000000000006 Q 0 419.00000000000006 0 419.00000000000006 L 0 0 Q 0 0 0 0 Z"/><path fill="none" stroke="#999999" d="M 0 0 M 0 0 L 180 0 Q 180 0 180 0 L 180 419.00000000000006 Q 180 419.00000000000006 180 419.00000000000006 L 0 419.00000000000006 Q 0 419.00000000000006 0 419.00000000000006 L 0 0 Q 0 0 0 0 Z" stroke-miterlimit="10" stroke-width="2"/></g></g></g></g></g><g transform="scale(1,1) matrix(1,0,0,1,1477.5,110) translate(2,2)"><text fill="#000000" stroke="none" font-family="Arial" font-size="18px" font-style="normal" font-weight="normal" text-decoration="none" x="85.5" y="15">&#160;</text></g><g transform="translate(0,0) matrix(1,0,0,1,1657.5,80)"><g><g transform="translate(0,0) scale(1.8,0.3)"><g><path fill="#ffffff" stroke="none" d="M 0 0 L 100 0 Q 100 0 100 0 L 100 100 Q 100 100 100 100 L 0 100 Q 0 100 0 100 L 0 0 Q 0 0 0 0 Z"/><g transform="scale(0.5555555555555556,3.3333333333333335)"><path fill="none" stroke="none" d="M 0 0 L 180 0 Q 180 0 180 0 L 180 30 Q 180 30 180 30 L 0 30 Q 0 30 0 30 L 0 0 Q 0 0 0 0 Z"/><path fill="none" stroke="#999999" d="M 0 0 M 0 0 L 180 0 Q 180 0 180 0 L 180 30 Q 180 30 180 30 L 0 30 Q 0 30 0 30 L 0 0 Q 0 0 0 0 Z" stroke-miterlimit="10" stroke-width="2"/></g></g></g></g></g><g transform="scale(1,1) matrix(1,0,0,1,1657.5,80) translate(2,2)"><text fill="#000000" stroke="none" font-family="Arial" font-size="18px" font-style="normal" font-weight="normal" text-decoration="none" x="78" y="15">10</text></g><g transform="translate(0,0) matrix(1,0,0,1,1657.5,110)"><g><g transform="translate(0,0) scale(1.8,4.19)"><g><path fill="rgb(255,255,255)" stroke="none" d="M 0 0 L 100 0 Q 100 0 100 0 L 100 100 Q 100 100 100 100 L 0 100 Q 0 100 0 100 L 0 0 Q 0 0 0 0 Z" fill-opacity="0.008"/><g transform="scale(0.5555555555555556,0.2386634844868735)"><path fill="none" stroke="none" d="M 0 0 L 180 0 Q 180 0 180 0 L 180 419.00000000000006 Q 180 419.00000000000006 180 419.00000000000006 L 0 419.00000000000006 Q 0 419.00000000000006 0 419.00000000000006 L 0 0 Q 0 0 0 0 Z"/><path fill="none" stroke="#999999" d="M 0 0 M 0 0 L 180 0 Q 180 0 180 0 L 180 419.00000000000006 Q 180 419.00000000000006 180 419.00000000000006 L 0 419.00000000000006 Q 0 419.00000000000006 0 419.00000000000006 L 0 0 Q 0 0 0 0 Z" stroke-miterlimit="10" stroke-width="2"/></g></g></g></g></g><g transform="scale(1,1) matrix(1,0,0,1,1657.5,110) translate(2,2)"><text fill="#000000" stroke="none" font-family="Arial" font-size="18px" font-style="normal" font-weight="normal" text-decoration="none" x="85.5" y="15">&#160;</text></g><g transform="translate(0,0) matrix(1,0,0,1,1837.5,80)"><g><g transform="translate(0,0) scale(1.8,0.3)"><g><path fill="#ffffff" stroke="none" d="M 0 0 L 100 0 Q 100 0 100 0 L 100 100 Q 100 100 100 100 L 0 100 Q 0 100 0 100 L 0 0 Q 0 0 0 0 Z"/><g transform="scale(0.5555555555555556,3.3333333333333335)"><path fill="none" stroke="none" d="M 0 0 L 180 0 Q 180 0 180 0 L 180 30 Q 180 30 180 30 L 0 30 Q 0 30 0 30 L 0 0 Q 0 0 0 0 Z"/><path fill="none" stroke="#999999" d="M 0 0 M 0 0 L 180 0 Q 180 0 180 0 L 180 30 Q 180 30 180 30 L 0 30 Q 0 30 0 30 L 0 0 Q 0 0 0 0 Z" stroke-miterlimit="10" stroke-width="2"/></g></g></g></g></g><g transform="scale(1,1) matrix(1,0,0,1,1837.5,80) translate(2,2)"><text fill="#000000" stroke="none" font-family="Arial" font-size="18px" font-style="normal" font-weight="normal" text-decoration="none" x="78" y="15">11</text></g><g transform="translate(0,0) matrix(1,0,0,1,1837.5,110)"><g><g transform="translate(0,0) scale(1.8,4.19)"><g><path fill="rgb(255,255,255)" stroke="none" d="M 0 0 L 100 0 Q 100 0 100 0 L 100 100 Q 100 100 100 100 L 0 100 Q 0 100 0 100 L 0 0 Q 0 0 0 0 Z" fill-opacity="0.008"/><g transform="scale(0.5555555555555556,0.2386634844868735)"><path fill="none" stroke="none" d="M 0 0 L 180 0 Q 180 0 180 0 L 180 419.00000000000006 Q 180 419.00000000000006 180 419.00000000000006 L 0 419.00000000000006 Q 0 419.00000000000006 0 419.00000000000006 L 0 0 Q 0 0 0 0 Z"/><path fill="none" stroke="#999999" d="M 0 0 M 0 0 L 180 0 Q 180 0 180 0 L 180 419.00000000000006 Q 180 419.00000000000006 180 419.00000000000006 L 0 419.00000000000006 Q 0 419.00000000000006 0 419.00000000000006 L 0 0 Q 0 0 0 0 Z" stroke-miterlimit="10" stroke-width="2"/></g></g></g></g></g><g transform="scale(1,1) matrix(1,0,0,1,1837.5,110) translate(2,2)"><text fill="#000000" stroke="none" font-family="Arial" font-size="18px" font-style="normal" font-weight="normal" text-decoration="none" x="85.5" y="15">&#160;</text></g><g transform="translate(0,0) matrix(1,0,0,1,2017.5,80)"><g><g transform="translate(0,0) scale(1.8,0.3)"><g><path fill="#ffffff" stroke="none" d="M 0 0 L 100 0 Q 100 0 100 0 L 100 100 Q 100 100 100 100 L 0 100 Q 0 100 0 100 L 0 0 Q 0 0 0 0 Z"/><g transform="scale(0.5555555555555556,3.3333333333333335)"><path fill="none" stroke="none" d="M 0 0 L 180 0 Q 180 0 180 0 L 180 30 Q 180 30 180 30 L 0 30 Q 0 30 0 30 L 0 0 Q 0 0 0 0 Z"/><path fill="none" stroke="#999999" d="M 0 0 M 0 0 L 180 0 Q 180 0 180 0 L 180 30 Q 180 30 180 30 L 0 30 Q 0 30 0 30 L 0 0 Q 0 0 0 0 Z" stroke-miterlimit="10" stroke-width="2"/></g></g></g></g></g><g transform="scale(1,1) matrix(1,0,0,1,2017.5,80) translate(2,2)"><text fill="#000000" stroke="none" font-family="Arial" font-size="18px" font-style="normal" font-weight="normal" text-decoration="none" x="78" y="15">12</text></g><g transform="translate(0,0) matrix(1,0,0,1,2017.5,110)"><g><g transform="translate(0,0) scale(1.8,4.19)"><g><path fill="rgb(255,255,255)" stroke="none" d="M 0 0 L 100 0 Q 100 0 100 0 L 100 100 Q 100 100 100 100 L 0 100 Q 0 100 0 100 L 0 0 Q 0 0 0 0 Z" fill-opacity="0.008"/><g transform="scale(0.5555555555555556,0.2386634844868735)"><path fill="none" stroke="none" d="M 0 0 L 180 0 Q 180 0 180 0 L 180 419.00000000000006 Q 180 419.00000000000006 180 419.00000000000006 L 0 419.00000000000006 Q 0 419.00000000000006 0 419.00000000000006 L 0 0 Q 0 0 0 0 Z"/><path fill="none" stroke="#999999" d="M 0 0 M 0 0 L 180 0 Q 180 0 180 0 L 180 419.00000000000006 Q 180 419.00000000000006 180 419.00000000000006 L 0 419.00000000000006 Q 0 419.00000000000006 0 419.00000000000006 L 0 0 Q 0 0 0 0 Z" stroke-miterlimit="10" stroke-width="2"/></g></g></g></g></g><g transform="scale(1,1) matrix(1,0,0,1,2017.5,110) translate(2,2)"><text fill="#000000" stroke="none" font-family="Arial" font-size="18px" font-style="normal" font-weight="normal" text-decoration="none" x="85.5" y="15">&#160;</text></g><g transform="translate(0,0) matrix(1,0,0,1,37.5,80)"><g><g transform="translate(0,0) scale(1.8,0.3)"><g><path fill="#ffffff" stroke="none" d="M 0 0 L 100 0 Q 100 0 100 0 L 100 100 Q 100 100 100 100 L 0 100 Q 0 100 0 100 L 0 0 Q 0 0 0 0 Z"/><g transform="scale(0.5555555555555556,3.3333333333333335)"><path fill="none" stroke="none" d="M 0 0 L 180 0 Q 180 0 180 0 L 180 30 Q 180 30 180 30 L 0 30 Q 0 30 0 30 L 0 0 Q 0 0 0 0 Z"/><path fill="none" stroke="#999999" d="M 0 0 M 0 0 L 180 0 Q 180 0 180 0 L 180 30 Q 180 30 180 30 L 0 30 Q 0 30 0 30 L 0 0 Q 0 0 0 0 Z" stroke-miterlimit="10" stroke-width="2"/></g></g></g></g></g><g transform="scale(1,1) matrix(1,0,0,1,37.5,80) translate(2,2)"><text fill="#000000" stroke="none" font-family="Arial" font-size="18px" font-style="normal" font-weight="normal" text-decoration="none" x="83" y="15">1</text></g><g transform="translate(0,0) matrix(1,0,0,1,37.5,110)"><g><g transform="translate(0,0) scale(1.8,4.19)"><g><path fill="rgb(255,255,255)" stroke="none" d="M 0 0 L 100 0 Q 100 0 100 0 L 100 100 Q 100 100 100 100 L 0 100 Q 0 100 0 100 L 0 0 Q 0 0 0 0 Z" fill-opacity="0.008"/><g transform="scale(0.5555555555555556,0.2386634844868735)"><path fill="none" stroke="none" d="M 0 0 L 180 0 Q 180 0 180 0 L 180 419.00000000000006 Q 180 419.00000000000006 180 419.00000000000006 L 0 419.00000000000006 Q 0 419.00000000000006 0 419.00000000000006 L 0 0 Q 0 0 0 0 Z"/><path fill="none" stroke="#999999" d="M 0 0 M 0 0 L 180 0 Q 180 0 180 0 L 180 419.00000000000006 Q 180 419.00000000000006 180 419.00000000000006 L 0 419.00000000000006 Q 0 419.00000000000006 0 419.00000000000006 L 0 0 Q 0 0 0 0 Z" stroke-miterlimit="10" stroke-width="2"/></g></g></g></g></g><g transform="scale(1,1) matrix(1,0,0,1,37.5,110) translate(2,2)"><text fill="#000000" stroke="none" font-family="Arial" font-size="18px" font-style="normal" font-weight="normal" text-decoration="none" x="85.5" y="15">&#160;</text></g><g transform="translate(0,0) matrix(1,0,0,1,217.5,80)"><g><g transform="translate(0,0) scale(1.8,0.3)"><g><path fill="#ffffff" stroke="none" d="M 0 0 L 100 0 Q 100 0 100 0 L 100 100 Q 100 100 100 100 L 0 100 Q 0 100 0 100 L 0 0 Q 0 0 0 0 Z"/><g transform="scale(0.5555555555555556,3.3333333333333335)"><path fill="none" stroke="none" d="M 0 0 L 180 0 Q 180 0 180 0 L 180 30 Q 180 30 180 30 L 0 30 Q 0 30 0 30 L 0 0 Q 0 0 0 0 Z"/><path fill="none" stroke="#999999" d="M 0 0 M 0 0 L 180 0 Q 180 0 180 0 L 180 30 Q 180 30 180 30 L 0 30 Q 0 30 0 30 L 0 0 Q 0 0 0 0 Z" stroke-miterlimit="10" stroke-width="2"/></g></g></g></g></g><g transform="scale(1,1) matrix(1,0,0,1,217.5,80) translate(2,2)"><text fill="#000000" stroke="none" font-family="Arial" font-size="18px" font-style="normal" font-weight="normal" text-decoration="none" x="83" y="15">2</text></g><g transform="translate(0,0) matrix(1,0,0,1,217.5,110)"><g><g transform="translate(0,0) scale(1.8,4.19)"><g><path fill="rgb(255,255,255)" stroke="none" d="M 0 0 L 100 0 Q 100 0 100 0 L 100 100 Q 100 100 100 100 L 0 100 Q 0 100 0 100 L 0 0 Q 0 0 0 0 Z" fill-opacity="0.008"/><g transform="scale(0.5555555555555556,0.2386634844868735)"><path fill="none" stroke="none" d="M 0 0 L 180 0 Q 180 0 180 0 L 180 419.00000000000006 Q 180 419.00000000000006 180 419.00000000000006 L 0 419.00000000000006 Q 0 419.00000000000006 0 419.00000000000006 L 0 0 Q 0 0 0 0 Z"/><path fill="none" stroke="#999999" d="M 0 0 M 0 0 L 180 0 Q 180 0 180 0 L 180 419.00000000000006 Q 180 419.00000000000006 180 419.00000000000006 L 0 419.00000000000006 Q 0 419.00000000000006 0 419.00000000000006 L 0 0 Q 0 0 0 0 Z" stroke-miterlimit="10" stroke-width="2"/></g></g></g></g></g><g transform="scale(1,1) matrix(1,0,0,1,217.5,110) translate(2,2)"><text fill="#000000" stroke="none" font-family="Arial" font-size="12px" font-style="normal" font-weight="normal" text-decoration="none" x="86.5" y="11">&#160;</text></g><g transform="translate(0,0) matrix(1,0,0,1,397.5,80)"><g><g transform="translate(0,0) scale(1.8,0.3)"><g><path fill="#ffffff" stroke="none" d="M 0 0 L 100 0 Q 100 0 100 0 L 100 100 Q 100 100 100 100 L 0 100 Q 0 100 0 100 L 0 0 Q 0 0 0 0 Z"/><g transform="scale(0.5555555555555556,3.3333333333333335)"><path fill="none" stroke="none" d="M 0 0 L 180 0 Q 180 0 180 0 L 180 30 Q 180 30 180 30 L 0 30 Q 0 30 0 30 L 0 0 Q 0 0 0 0 Z"/><path fill="none" stroke="#999999" d="M 0 0 M 0 0 L 180 0 Q 180 0 180 0 L 180 30 Q 180 30 180 30 L 0 30 Q 0 30 0 30 L 0 0 Q 0 0 0 0 Z" stroke-miterlimit="10" stroke-width="2"/></g></g></g></g></g><g transform="scale(1,1) matrix(1,0,0,1,397.5,80) translate(2,2)"><text fill="#000000" stroke="none" font-family="Arial" font-size="18px" font-style="normal" font-weight="normal" text-decoration="none" x="83" y="15">3</text></g><g transform="translate(0,0) matrix(1,0,0,1,397.5,110)"><g><g transform="translate(0,0) scale(1.8,4.19)"><g><path fill="rgb(255,255,255)" stroke="none" d="M 0 0 L 100 0 Q 100 0 100 0 L 100 100 Q 100 100 100 100 L 0 100 Q 0 100 0 100 L 0 0 Q 0 0 0 0 Z" fill-opacity="0.008"/><g transform="scale(0.5555555555555556,0.2386634844868735)"><path fill="none" stroke="none" d="M 0 0 L 180 0 Q 180 0 180 0 L 180 419.00000000000006 Q 180 419.00000000000006 180 419.00000000000006 L 0 419.00000000000006 Q 0 419.00000000000006 0 419.00000000000006 L 0 0 Q 0 0 0 0 Z"/><path fill="none" stroke="#999999" d="M 0 0 M 0 0 L 180 0 Q 180 0 180 0 L 180 419.00000000000006 Q 180 419.00000000000006 180 419.00000000000006 L 0 419.00000000000006 Q 0 419.00000000000006 0 419.00000000000006 L 0 0 Q 0 0 0 0 Z" stroke-miterlimit="10" stroke-width="2"/></g></g></g></g></g><g transform="scale(1,1) matrix(1,0,0,1,397.5,110) translate(2,2)"><text fill="#000000" stroke="none" font-family="Arial" font-size="18px" font-style="normal" font-weight="normal" text-decoration="none" x="85.5" y="15">&#160;</text></g><g transform="translate(0,0) matrix(1,0,0,1,577.5,80)"><g><g transform="translate(0,0) scale(1.8,0.3)"><g><path fill="#ffffff" stroke="none" d="M 0 0 L 100 0 Q 100 0 100 0 L 100 100 Q 100 100 100 100 L 0 100 Q 0 100 0 100 L 0 0 Q 0 0 0 0 Z"/><g transform="scale(0.5555555555555556,3.3333333333333335)"><path fill="none" stroke="none" d="M 0 0 L 180 0 Q 180 0 180 0 L 180 30 Q 180 30 180 30 L 0 30 Q 0 30 0 30 L 0 0 Q 0 0 0 0 Z"/><path fill="none" stroke="#999999" d="M 0 0 M 0 0 L 180 0 Q 180 0 180 0 L 180 30 Q 180 30 180 30 L 0 30 Q 0 30 0 30 L 0 0 Q 0 0 0 0 Z" stroke-miterlimit="10" stroke-width="2"/></g></g></g></g></g><g transform="scale(1,1) matrix(1,0,0,1,577.5,80) translate(2,2)"><text fill="#000000" stroke="none" font-family="Arial" font-size="18px" font-style="normal" font-weight="normal" text-decoration="none" x="83" y="15">4</text></g><g transform="translate(0,0) matrix(1,0,0,1,577.5,110)"><g><g transform="translate(0,0) scale(1.8,4.19)"><g><path fill="rgb(255,255,255)" stroke="none" d="M 0 0 L 100 0 Q 100 0 100 0 L 100 100 Q 100 100 100 100 L 0 100 Q 0 100 0 100 L 0 0 Q 0 0 0 0 Z" fill-opacity="0.008"/><g transform="scale(0.5555555555555556,0.2386634844868735)"><path fill="none" stroke="none" d="M 0 0 L 180 0 Q 180 0 180 0 L 180 419.00000000000006 Q 180 419.00000000000006 180 419.00000000000006 L 0 419.00000000000006 Q 0 419.00000000000006 0 419.00000000000006 L 0 0 Q 0 0 0 0 Z"/><path fill="none" stroke="#999999" d="M 0 0 M 0 0 L 180 0 Q 180 0 180 0 L 180 419.00000000000006 Q 180 419.00000000000006 180 419.00000000000006 L 0 419.00000000000006 Q 0 419.00000000000006 0 419.00000000000006 L 0 0 Q 0 0 0 0 Z" stroke-miterlimit="10" stroke-width="2"/></g></g></g></g></g><g transform="scale(1,1) matrix(1,0,0,1,577.5,110) translate(2,2)"><text fill="#000000" stroke="none" font-family="Arial" font-size="18px" font-style="normal" font-weight="normal" text-decoration="none" x="85.5" y="15">&#160;</text></g><g transform="translate(0,0) matrix(1,0,0,1,757.5,80)"><g><g transform="translate(0,0) scale(1.8,0.3)"><g><path fill="#ffffff" stroke="none" d="M 0 0 L 100 0 Q 100 0 100 0 L 100 100 Q 100 100 100 100 L 0 100 Q 0 100 0 100 L 0 0 Q 0 0 0 0 Z"/><g transform="scale(0.5555555555555556,3.3333333333333335)"><path fill="none" stroke="none" d="M 0 0 L 180 0 Q 180 0 180 0 L 180 30 Q 180 30 180 30 L 0 30 Q 0 30 0 30 L 0 0 Q 0 0 0 0 Z"/><path fill="none" stroke="#999999" d="M 0 0 M 0 0 L 180 0 Q 180 0 180 0 L 180 30 Q 180 30 180 30 L 0 30 Q 0 30 0 30 L 0 0 Q 0 0 0 0 Z" stroke-miterlimit="10" stroke-width="2"/></g></g></g></g></g><g transform="scale(1,1) matrix(1,0,0,1,757.5,80) translate(2,2)"><text fill="#000000" stroke="none" font-family="Arial" font-size="18px" font-style="normal" font-weight="normal" text-decoration="none" x="83" y="15">5</text></g><g transform="translate(0,0) matrix(1,0,0,1,757.5,110)"><g><g transform="translate(0,0) scale(1.8,4.19)"><g><path fill="rgb(255,255,255)" stroke="none" d="M 0 0 L 100 0 Q 100 0 100 0 L 100 100 Q 100 100 100 100 L 0 100 Q 0 100 0 100 L 0 0 Q 0 0 0 0 Z" fill-opacity="0.008"/><g transform="scale(0.5555555555555556,0.2386634844868735)"><path fill="none" stroke="none" d="M 0 0 L 180 0 Q 180 0 180 0 L 180 419.00000000000006 Q 180 419.00000000000006 180 419.00000000000006 L 0 419.00000000000006 Q 0 419.00000000000006 0 419.00000000000006 L 0 0 Q 0 0 0 0 Z"/><path fill="none" stroke="#999999" d="M 0 0 M 0 0 L 180 0 Q 180 0 180 0 L 180 419.00000000000006 Q 180 419.00000000000006 180 419.00000000000006 L 0 419.00000000000006 Q 0 419.00000000000006 0 419.00000000000006 L 0 0 Q 0 0 0 0 Z" stroke-miterlimit="10" stroke-width="2"/></g></g></g></g></g><g transform="scale(1,1) matrix(1,0,0,1,757.5,110) translate(2,2)"><text fill="#000000" stroke="none" font-family="Arial" font-size="18px" font-style="normal" font-weight="normal" text-decoration="none" x="85.5" y="15">&#160;</text></g><g transform="translate(0,0) matrix(1,0,0,1,937.5,80)"><g><g transform="translate(0,0) scale(1.8,0.3)"><g><path fill="#ffffff" stroke="none" d="M 0 0 L 100 0 Q 100 0 100 0 L 100 100 Q 100 100 100 100 L 0 100 Q 0 100 0 100 L 0 0 Q 0 0 0 0 Z"/><g transform="scale(0.5555555555555556,3.3333333333333335)"><path fill="none" stroke="none" d="M 0 0 L 180 0 Q 180 0 180 0 L 180 30 Q 180 30 180 30 L 0 30 Q 0 30 0 30 L 0 0 Q 0 0 0 0 Z"/><path fill="none" stroke="#999999" d="M 0 0 M 0 0 L 180 0 Q 180 0 180 0 L 180 30 Q 180 30 180 30 L 0 30 Q 0 30 0 30 L 0 0 Q 0 0 0 0 Z" stroke-miterlimit="10" stroke-width="2"/></g></g></g></g></g><g transform="scale(1,1) matrix(1,0,0,1,937.5,80) translate(2,2)"><text fill="#000000" stroke="none" font-family="Arial" font-size="18px" font-style="normal" font-weight="normal" text-decoration="none" x="83" y="15">6</text></g><g transform="translate(0,0) matrix(1,0,0,1,937.5,110)"><g><g transform="translate(0,0) scale(1.8,4.19)"><g><path fill="rgb(255,255,255)" stroke="none" d="M 0 0 L 100 0 Q 100 0 100 0 L 100 100 Q 100 100 100 100 L 0 100 Q 0 100 0 100 L 0 0 Q 0 0 0 0 Z" fill-opacity="0.008"/><g transform="scale(0.5555555555555556,0.2386634844868735)"><path fill="none" stroke="none" d="M 0 0 L 180 0 Q 180 0 180 0 L 180 419.00000000000006 Q 180 419.00000000000006 180 419.00000000000006 L 0 419.00000000000006 Q 0 419.00000000000006 0 419.00000000000006 L 0 0 Q 0 0 0 0 Z"/><path fill="none" stroke="#999999" d="M 0 0 M 0 0 L 180 0 Q 180 0 180 0 L 180 419.00000000000006 Q 180 419.00000000000006 180 419.00000000000006 L 0 419.00000000000006 Q 0 419.00000000000006 0 419.00000000000006 L 0 0 Q 0 0 0 0 Z" stroke-miterlimit="10" stroke-width="2"/></g></g></g></g></g><g transform="scale(1,1) matrix(1,0,0,1,937.5,110) translate(2,2)"><text fill="#000000" stroke="none" font-family="Arial" font-size="18px" font-style="normal" font-weight="normal" text-decoration="none" x="85.5" y="15">&#160;</text></g><g transform="scale(1,1) matrix(1,0,0,1,38,15.5) translate(0,0)"><text fill="#000000" stroke="none" font-family="Arial" font-size="36px" font-style="normal" font-weight="bold" text-decoration="none" x="0" y="33">Development Plan K224</text></g><g transform="translate(0,0) matrix(1,0,0,1,2197.5,80)"><g><g transform="translate(0,0) scale(1.8,0.3)"><g><path fill="#ffffff" stroke="none" d="M 0 0 L 100 0 Q 100 0 100 0 L 100 100 Q 100 100 100 100 L 0 100 Q 0 100 0 100 L 0 0 Q 0 0 0 0 Z"/><g transform="scale(0.5555555555555556,3.3333333333333335)"><path fill="none" stroke="none" d="M 0 0 L 180 0 Q 180 0 180 0 L 180 30 Q 180 30 180 30 L 0 30 Q 0 30 0 30 L 0 0 Q 0 0 0 0 Z"/><path fill="none" stroke="#999999" d="M 0 0 M 0 0 L 180 0 Q 180 0 180 0 L 180 30 Q 180 30 180 30 L 0 30 Q 0 30 0 30 L 0 0 Q 0 0 0 0 Z" stroke-miterlimit="10" stroke-width="2"/></g></g></g></g></g><g transform="scale(1,1) matrix(1,0,0,1,2197.5,80) translate(2,2)"><text fill="#000000" stroke="none" font-family="Arial" font-size="18px" font-style="normal" font-weight="normal" text-decoration="none" x="78" y="15">13</text></g><g transform="translate(0,0) matrix(1,0,0,1,2197.5,110)"><g><g transform="translate(0,0) scale(1.8,4.19)"><g><path fill="rgb(255,255,255)" stroke="none" d="M 0 0 L 100 0 Q 100 0 100 0 L 100 100 Q 100 100 100 100 L 0 100 Q 0 100 0 100 L 0 0 Q 0 0 0 0 Z" fill-opacity="0.008"/><g transform="scale(0.5555555555555556,0.2386634844868735)"><path fill="none" stroke="none" d="M 0 0 L 180 0 Q 180 0 180 0 L 180 419.00000000000006 Q 180 419.00000000000006 180 419.00000000000006 L 0 419.00000000000006 Q 0 419.00000000000006 0 419.00000000000006 L 0 0 Q 0 0 0 0 Z"/><path fill="none" stroke="#999999" d="M 0 0 M 0 0 L 180 0 Q 180 0 180 0 L 180 419.00000000000006 Q 180 419.00000000000006 180 419.00000000000006 L 0 419.00000000000006 Q 0 419.00000000000006 0 419.00000000000006 L 0 0 Q 0 0 0 0 Z" stroke-miterlimit="10" stroke-width="2"/></g></g></g></g></g><g transform="scale(1,1) matrix(1,0,0,1,2197.5,110) translate(2,2)"><text fill="#000000" stroke="none" font-family="Arial" font-size="18px" font-style="normal" font-weight="normal" text-decoration="none" x="85.5" y="15">&#160;</text></g><g transform="translate(0,0) matrix(1,0,0,1,2377.5,80)"><g><g transform="translate(0,0) scale(1.8,0.3)"><g><path fill="#ffffff" stroke="none" d="M 0 0 L 100 0 Q 100 0 100 0 L 100 100 Q 100 100 100 100 L 0 100 Q 0 100 0 100 L 0 0 Q 0 0 0 0 Z"/><g transform="scale(0.5555555555555556,3.3333333333333335)"><path fill="none" stroke="none" d="M 0 0 L 180 0 Q 180 0 180 0 L 180 30 Q 180 30 180 30 L 0 30 Q 0 30 0 30 L 0 0 Q 0 0 0 0 Z"/><path fill="none" stroke="#999999" d="M 0 0 M 0 0 L 180 0 Q 180 0 180 0 L 180 30 Q 180 30 180 30 L 0 30 Q 0 30 0 30 L 0 0 Q 0 0 0 0 Z" stroke-miterlimit="10" stroke-width="2"/></g></g></g></g></g><g transform="scale(1,1) matrix(1,0,0,1,2377.5,80) translate(2,2)"><text fill="#000000" stroke="none" font-family="Arial" font-size="18px" font-style="normal" font-weight="normal" text-decoration="none" x="78" y="15">14</text></g><g transform="translate(0,0) matrix(1,0,0,1,2377.5,110)"><g><g transform="translate(0,0) scale(1.8,4.19)"><g><path fill="rgb(255,255,255)" stroke="none" d="M 0 0 L 100 0 Q 100 0 100 0 L 100 100 Q 100 100 100 100 L 0 100 Q 0 100 0 100 L 0 0 Q 0 0 0 0 Z" fill-opacity="0.008"/><g transform="scale(0.5555555555555556,0.2386634844868735)"><path fill="none" stroke="none" d="M 0 0 L 180 0 Q 180 0 180 0 L 180 419.00000000000006 Q 180 419.00000000000006 180 419.00000000000006 L 0 419.00000000000006 Q 0 419.00000000000006 0 419.00000000000006 L 0 0 Q 0 0 0 0 Z"/><path fill="none" stroke="#999999" d="M 0 0 M 0 0 L 180 0 Q 180 0 180 0 L 180 419.00000000000006 Q 180 419.00000000000006 180 419.00000000000006 L 0 419.00000000000006 Q 0 419.00000000000006 0 419.00000000000006 L 0 0 Q 0 0 0 0 Z" stroke-miterlimit="10" stroke-width="2"/></g></g></g></g></g><g transform="scale(1,1) matrix(1,0,0,1,2377.5,110) translate(2,2)"><text fill="#000000" stroke="none" font-family="Arial" font-size="18px" font-style="normal" font-weight="normal" text-decoration="none" x="85.5" y="15">&#160;</text></g><g transform="translate(0,0) matrix(1,0,0,1,2558,79.5)"><g><g transform="translate(0,0) scale(1.8,0.3)"><g><path fill="#ffffff" stroke="none" d="M 0 0 L 100 0 Q 100 0 100 0 L 100 100 Q 100 100 100 100 L 0 100 Q 0 100 0 100 L 0 0 Q 0 0 0 0 Z"/><g transform="scale(0.5555555555555556,3.3333333333333335)"><path fill="none" stroke="none" d="M 0 0 L 180 0 Q 180 0 180 0 L 180 30 Q 180 30 180 30 L 0 30 Q 0 30 0 30 L 0 0 Q 0 0 0 0 Z"/><path fill="none" stroke="#999999" d="M 0 0 M 0 0 L 180 0 Q 180 0 180 0 L 180 30 Q 180 30 180 30 L 0 30 Q 0 30 0 30 L 0 0 Q 0 0 0 0 Z" stroke-miterlimit="10" stroke-width="2"/></g></g></g></g></g><g transform="scale(1,1) matrix(1,0,0,1,2558,79.5) translate(2,2)"><text fill="#000000" stroke="none" font-family="Arial" font-size="18px" font-style="normal" font-weight="normal" text-decoration="none" x="78" y="15">15</text></g><g transform="translate(0,0) matrix(1,0,0,1,2558,109.5)"><g><g transform="translate(0,0) scale(1.8,4.19)"><g><path fill="rgb(255,255,255)" stroke="none" d="M 0 0 L 100 0 Q 100 0 100 0 L 100 100 Q 100 100 100 100 L 0 100 Q 0 100 0 100 L 0 0 Q 0 0 0 0 Z" fill-opacity="0.008"/><g transform="scale(0.5555555555555556,0.2386634844868735)"><path fill="none" stroke="none" d="M 0 0 L 180 0 Q 180 0 180 0 L 180 419.00000000000006 Q 180 419.00000000000006 180 419.00000000000006 L 0 419.00000000000006 Q 0 419.00000000000006 0 419.00000000000006 L 0 0 Q 0 0 0 0 Z"/><path fill="none" stroke="#999999" d="M 0 0 M 0 0 L 180 0 Q 180 0 180 0 L 180 419.00000000000006 Q 180 419.00000000000006 180 419.00000000000006 L 0 419.00000000000006 Q 0 419.00000000000006 0 419.00000000000006 L 0 0 Q 0 0 0 0 Z" stroke-miterlimit="10" stroke-width="2"/></g></g></g></g></g><g transform="scale(1,1) matrix(1,0,0,1,2558,109.5) translate(2,2)"><text fill="#000000" stroke="none" font-family="Arial" font-size="18px" font-style="normal" font-weight="normal" text-decoration="none" x="85.5" y="15">&#160;</text></g><g transform="translate(0,0) matrix(1,0,0,1,2738,79.5)"><g><g transform="translate(0,0) scale(1.8,0.3)"><g><path fill="#ffffff" stroke="none" d="M 0 0 L 100 0 Q 100 0 100 0 L 100 100 Q 100 100 100 100 L 0 100 Q 0 100 0 100 L 0 0 Q 0 0 0 0 Z"/><g transform="scale(0.5555555555555556,3.3333333333333335)"><path fill="none" stroke="none" d="M 0 0 L 180 0 Q 180 0 180 0 L 180 30 Q 180 30 180 30 L 0 30 Q 0 30 0 30 L 0 0 Q 0 0 0 0 Z"/><path fill="none" stroke="#999999" d="M 0 0 M 0 0 L 180 0 Q 180 0 180 0 L 180 30 Q 180 30 180 30 L 0 30 Q 0 30 0 30 L 0 0 Q 0 0 0 0 Z" stroke-miterlimit="10" stroke-width="2"/></g></g></g></g></g><g transform="scale(1,1) matrix(1,0,0,1,2738,79.5) translate(2,2)"><text fill="#000000" stroke="none" font-family="Arial" font-size="18px" font-style="normal" font-weight="normal" text-decoration="none" x="78" y="15">16</text></g><g transform="translate(0,0) matrix(1,0,0,1,2738,109.5)"><g><g transform="translate(0,0) scale(1.8,4.19)"><g><path fill="rgb(255,255,255)" stroke="none" d="M 0 0 L 100 0 Q 100 0 100 0 L 100 100 Q 100 100 100 100 L 0 100 Q 0 100 0 100 L 0 0 Q 0 0 0 0 Z" fill-opacity="0.008"/><g transform="scale(0.5555555555555556,0.2386634844868735)"><path fill="none" stroke="none" d="M 0 0 L 180 0 Q 180 0 180 0 L 180 419.00000000000006 Q 180 419.00000000000006 180 419.00000000000006 L 0 419.00000000000006 Q 0 419.00000000000006 0 419.00000000000006 L 0 0 Q 0 0 0 0 Z"/><path fill="none" stroke="#999999" d="M 0 0 M 0 0 L 180 0 Q 180 0 180 0 L 180 419.00000000000006 Q 180 419.00000000000006 180 419.00000000000006 L 0 419.00000000000006 Q 0 419.00000000000006 0 419.00000000000006 L 0 0 Q 0 0 0 0 Z" stroke-miterlimit="10" stroke-width="2"/></g></g></g></g></g><g transform="scale(1,1) matrix(1,0,0,1,2738,109.5) translate(2,2)"><text fill="#000000" stroke="none" font-family="Arial" font-size="18px" font-style="normal" font-weight="normal" text-decoration="none" x="85.5" y="15">&#160;</text></g><g transform="translate(0,0) matrix(1,0,0,1,217.5,116.25)"><g><g transform="translate(0,0) scale(3.6,0.6808510638297872)"><g><path fill="#9fc5e8" stroke="none" d="M 0 0 L 100 0 Q 100 0 100 0 L 100 100 Q 100 100 100 100 L 0 100 Q 0 100 0 100 L 0 0 Q 0 0 0 0 Z"/><g transform="scale(0.2777777777777778,1.46875)"><path fill="none" stroke="none" d="M 0 0 L 360 0 Q 360 0 360 0 L 360 68.08510638297872 Q 360 68.08510638297872 360 68.08510638297872 L 0 68.08510638297872 Q 0 68.08510638297872 0 68.08510638297872 L 0 0 Q 0 0 0 0 Z"/><path fill="none" stroke="rgb(0,0,0)" d="M 0 0 M 0 0 L 360 0 Q 360 0 360 0 L 360 68.08510638297872 Q 360 68.08510638297872 360 68.08510638297872 L 0 68.08510638297872 Q 0 68.08510638297872 0 68.08510638297872 L 0 0 Q 0 0 0 0 Z" stroke-opacity="0" stroke-miterlimit="10" stroke-width="0"/></g></g></g></g></g><g transform="scale(1,1) matrix(1,0,0,1,224.7,116.25) translate(8,26.04255319148936)"><text fill="#000000" stroke="none" font-family="Arial" font-size="14px" font-style="normal" font-weight="bold" text-decoration="none" x="155.29999999999998" y="14">ТЗ</text></g><g transform="translate(0,0) matrix(1,0,0,1,397.5,192.84574468085106)"><g><g transform="translate(0,0) scale(3.6,0.6382978723404256)"><g><path fill="#d5a6bd" stroke="none" d="M 0 0 L 100 0 Q 100 0 100 0 L 100 100 Q 100 100 100 100 L 0 100 Q 0 100 0 100 L 0 0 Q 0 0 0 0 Z"/><g transform="scale(0.2777777777777778,1.5666666666666667)"><path fill="none" stroke="none" d="M 0 0 L 360 0 Q 360 0 360 0 L 360 63.829787234042556 Q 360 63.829787234042556 360 63.829787234042556 L 0 63.829787234042556 Q 0 63.829787234042556 0 63.829787234042556 L 0 0 Q 0 0 0 0 Z"/><path fill="none" stroke="rgb(0,0,0)" d="M 0 0 M 0 0 L 360 0 Q 360 0 360 0 L 360 63.829787234042556 Q 360 63.829787234042556 360 63.829787234042556 L 0 63.829787234042556 Q 0 63.829787234042556 0 63.829787234042556 L 0 0 Q 0 0 0 0 Z" stroke-opacity="0" stroke-miterlimit="10" stroke-width="0"/></g></g></g></g></g><g transform="scale(1,1) matrix(1,0,0,1,404.7,192.84574468085106) translate(8,23.914893617021278)"><text fill="#000000" stroke="none" font-family="Arial" font-size="14px" font-style="normal" font-weight="bold" text-decoration="none" x="53.79999999999998" y="14">Функциональные требования</text></g><g transform="translate(0,0) matrix(1,0,0,1,217.50000000000006,265.186170212766)"><g><g transform="translate(0,0) scale(7.199999999999999,0.6808510638297872)"><g><path fill="#9fc5e8" stroke="none" d="M 0 0 L 100 0 Q 100 0 100 0 L 100 100 Q 100 100 100 100 L 0 100 Q 0 100 0 100 L 0 0 Q 0 0 0 0 Z"/><g transform="scale(0.1388888888888889,1.46875)"><path fill="none" stroke="none" d="M 0 0 L 719.9999999999999 0 Q 719.9999999999999 0 719.9999999999999 0 L 719.9999999999999 68.08510638297872 Q 719.9999999999999 68.08510638297872 719.9999999999999 68.08510638297872 L 0 68.08510638297872 Q 0 68.08510638297872 0 68.08510638297872 L 0 0 Q 0 0 0 0 Z"/><path fill="none" stroke="rgb(0,0,0)" d="M 0 0 M 0 0 L 719.9999999999999 0 Q 719.9999999999999 0 719.9999999999999 0 L 719.9999999999999 68.08510638297872 Q 719.9999999999999 68.08510638297872 719.9999999999999 68.08510638297872 L 0 68.08510638297872 Q 0 68.08510638297872 0 68.08510638297872 L 0 0 Q 0 0 0 0 Z" stroke-opacity="0" stroke-miterlimit="10" stroke-width="0"/></g></g></g></g></g><g transform="scale(1,1) matrix(1,0,0,1,231.90000000000003,265.186170212766) translate(8,26.04255319148936)"><text fill="#000000" stroke="none" font-family="Arial" font-size="14px" font-style="normal" font-weight="bold" text-decoration="none" x="273.5999999999998" y="14">Концепт дизайна</text></g><g transform="translate(0,0) matrix(1,0,0,1,577,352.42021276595744)"><g><g transform="translate(0,0) scale(3.6,0.6382978723404256)"><g><path fill="#a2c4c9" stroke="none" d="M 0 0 L 100 0 Q 100 0 100 0 L 100 100 Q 100 100 100 100 L 0 100 Q 0 100 0 100 L 0 0 Q 0 0 0 0 Z"/><g transform="scale(0.2777777777777778,1.5666666666666667)"><path fill="none" stroke="none" d="M 0 0 L 360 0 Q 360 0 360 0 L 360 63.829787234042556 Q 360 63.829787234042556 360 63.829787234042556 L 0 63.829787234042556 Q 0 63.829787234042556 0 63.829787234042556 L 0 0 Q 0 0 0 0 Z"/><path fill="none" stroke="rgb(0,0,0)" d="M 0 0 M 0 0 L 360 0 Q 360 0 360 0 L 360 63.829787234042556 Q 360 63.829787234042556 360 63.829787234042556 L 0 63.829787234042556 Q 0 63.829787234042556 0 63.829787234042556 L 0 0 Q 0 0 0 0 Z" stroke-opacity="0" stroke-miterlimit="10" stroke-width="0"/></g></g></g></g></g><g transform="scale(1,1) matrix(1,0,0,1,584.2,352.42021276595744) translate(8,23.914893617021278)"><text fill="#000000" stroke="none" font-family="Arial" font-size="14px" font-style="normal" font-weight="bold" text-decoration="none" x="118.29999999999998" y="14">Архитектура</text></g><g transform="translate(0,0) matrix(1,0,0,1,577,116.25)"><g><g transform="translate(0,0) scale(12.605,0.6808510638297872)"><g><path fill="#b6d7a8" stroke="none" d="M 0 0 L 100 0 Q 100 0 100 0 L 100 100 Q 100 100 100 100 L 0 100 Q 0 100 0 100 L 0 0 Q 0 0 0 0 Z"/><g transform="scale(0.07933359777865925,1.46875)"><path fill="none" stroke="none" d="M 0 0 L 1260.5 0 Q 1260.5 0 1260.5 0 L 1260.5 68.08510638297872 Q 1260.5 68.08510638297872 1260.5 68.08510638297872 L 0 68.08510638297872 Q 0 68.08510638297872 0 68.08510638297872 L 0 0 Q 0 0 0 0 Z"/><path fill="none" stroke="rgb(0,0,0)" d="M 0 0 M 0 0 L 1260.5 0 Q 1260.5 0 1260.5 0 L 1260.5 68.08510638297872 Q 1260.5 68.08510638297872 1260.5 68.08510638297872 L 0 68.08510638297872 Q 0 68.08510638297872 0 68.08510638297872 L 0 0 Q 0 0 0 0 Z" stroke-opacity="0" stroke-miterlimit="10" stroke-width="0"/></g></g></g></g></g><g transform="scale(1,1) matrix(1,0,0,1,602.2099999999999,116.25) translate(8,26.04255319148936)"><text fill="#000000" stroke="none" font-family="Arial" font-size="14px" font-style="normal" font-weight="bold" text-decoration="none" x="582.5399999999994" y="14">Код</text></g><g transform="translate(0,0) matrix(1,0,0,1,577,430)"><g><g transform="translate(0,0) scale(12.605,0.6808510638297872)"><g><path fill="#b6d7a8" stroke="none" d="M 0 0 L 100 0 Q 100 0 100 0 L 100 100 Q 100 100 100 100 L 0 100 Q 0 100 0 100 L 0 0 Q 0 0 0 0 Z"/><g transform="scale(0.07933359777865925,1.46875)"><path fill="none" stroke="none" d="M 0 0 L 1260.5 0 Q 1260.5 0 1260.5 0 L 1260.5 68.08510638297872 Q 1260.5 68.08510638297872 1260.5 68.08510638297872 L 0 68.08510638297872 Q 0 68.08510638297872 0 68.08510638297872 L 0 0 Q 0 0 0 0 Z"/><path fill="none" stroke="rgb(0,0,0)" d="M 0 0 M 0 0 L 1260.5 0 Q 1260.5 0 1260.5 0 L 1260.5 68.08510638297872 Q 1260.5 68.08510638297872 1260.5 68.08510638297872 L 0 68.08510638297872 Q 0 68.08510638297872 0 68.08510638297872 L 0 0 Q 0 0 0 0 Z" stroke-opacity="0" stroke-miterlimit="10" stroke-width="0"/></g></g></g></g></g><g transform="scale(1,1) matrix(1,0,0,1,602.2099999999999,430) translate(8,26.04255319148936)"><text fill="#000000" stroke="none" font-family="Arial" font-size="14px" font-style="normal" font-weight="bold" text-decoration="none" x="434.0399999999994" y="14">Готовая инфраструктура для тестирования</text></g><g transform="translate(0,0) matrix(1,0,0,1,1657.5,262.6329787234043)"><g><g transform="translate(0,0) scale(7.199999999999999,0.6808510638297872)"><g><path fill="#9fc5e8" stroke="none" d="M 0 0 L 100 0 Q 100 0 100 0 L 100 100 Q 100 100 100 100 L 0 100 Q 0 100 0 100 L 0 0 Q 0 0 0 0 Z"/><g transform="scale(0.1388888888888889,1.46875)"><path fill="none" stroke="none" d="M 0 0 L 719.9999999999999 0 Q 719.9999999999999 0 719.9999999999999 0 L 719.9999999999999 68.08510638297872 Q 719.9999999999999 68.08510638297872 719.9999999999999 68.08510638297872 L 0 68.08510638297872 Q 0 68.08510638297872 0 68.08510638297872 L 0 0 Q 0 0 0 0 Z"/><path fill="none" stroke="rgb(0,0,0)" d="M 0 0 M 0 0 L 719.9999999999999 0 Q 719.9999999999999 0 719.9999999999999 0 L 719.9999999999999 68.08510638297872 Q 719.9999999999999 68.08510638297872 719.9999999999999 68.08510638297872 L 0 68.08510638297872 Q 0 68.08510638297872 0 68.08510638297872 L 0 0 Q 0 0 0 0 Z" stroke-opacity="0" stroke-miterlimit="10" stroke-width="0"/></g></g></g></g></g><g transform="scale(1,1) matrix(1,0,0,1,1671.9,262.6329787234043) translate(8,26.04255319148936)"><text fill="#000000" stroke="none" font-family="Arial" font-size="14px" font-style="normal" font-weight="bold" text-decoration="none" x="246.0999999999998" y="14">Тестирование и отладка</text></g><g transform="translate(0,0) matrix(1,0,0,1,2377,120.50531914893617)"><g><g transform="translate(0,0) scale(1.805,0.6382978723404256)"><g><path fill="#e06666" stroke="none" d="M 0 0 L 100 0 Q 100 0 100 0 L 100 100 Q 100 100 100 100 L 0 100 Q 0 100 0 100 L 0 0 Q 0 0 0 0 Z"/><g transform="scale(0.554016620498615,1.5666666666666667)"><path fill="none" stroke="none" d="M 0 0 L 180.5 0 Q 180.5 0 180.5 0 L 180.5 63.829787234042556 Q 180.5 63.829787234042556 180.5 63.829787234042556 L 0 63.829787234042556 Q 0 63.829787234042556 0 63.829787234042556 L 0 0 Q 0 0 0 0 Z"/><path fill="none" stroke="rgb(0,0,0)" d="M 0 0 M 0 0 L 180.5 0 Q 180.5 0 180.5 0 L 180.5 63.829787234042556 Q 180.5 63.829787234042556 180.5 63.829787234042556 L 0 63.829787234042556 Q 0 63.829787234042556 0 63.829787234042556 L 0 0 Q 0 0 0 0 Z" stroke-opacity="0" stroke-miterlimit="10" stroke-width="0"/></g></g></g></g></g><g transform="scale(1,1) matrix(1,0,0,1,2380.61,120.50531914893617) translate(8,24.914893617021278)"><text fill="#000000" stroke="none" font-family="Arial" font-size="12px" font-style="normal" font-weight="bold" text-decoration="none" x="60.13999999999997" y="11">Релиз</text></g></g></svg>